<?xml version="1.0" standalone="no"?>
<!DOCTYPE svg PUBLIC "-//W3C//DTD SVG 1.1//EN" "http://www.w3.org/Graphics/SVG/1.1/DTD/svg11.dtd" >
<svg>
<metadata>
Created by FontForge 20090914 at Tue Jul 30 22:34:17 2013
 By www-data
Copyright (c) 2007 by The Font Bureau, Inc.. All rights reserved.
</metadata>
<defs>
<font id="EYInterstate-Light" horiz-adv-x="1270" >
  <font-face 
    font-family="EYInterstate Light"
    font-weight="300"
    font-stretch="normal"
    units-per-em="2048"
    panose-1="2 0 5 6 0 0 0 2 0 4"
    ascent="1638"
    descent="-410"
    x-height="1075"
    cap-height="1434"
    bbox="-374 -491.004 2662 2181"
    underline-thickness="41"
    underline-position="-232"
    unicode-range="U+0020-U+FB02"
  />
<missing-glyph horiz-adv-x="0" 
 />
    <glyph glyph-name="fi" unicode="fi" horiz-adv-x="1223" 
d="M1075 1376c0 -14.667 -2.83301 -28.5 -8.5 -41.5s-13.334 -24.5 -23.001 -34.5s-21 -17.833 -34 -23.5s-26.5 -8.5 -40.5 -8.5c-16 0 -30.833 2.83301 -44.5 8.5s-25.667 13.5 -36 23.5s-18.333 21.5 -24 34.5s-8.5 26.833 -8.5 41.5c0 15.333 2.83301 29.833 8.5 43.5
s13.667 25.5 24 35.5s22.333 17.833 36 23.5s28.5 8.5 44.5 8.5c14 0 27.5 -2.83301 40.5 -8.5s24.333 -13.5 34 -23.5s17.334 -21.833 23.001 -35.5s8.5 -28.167 8.5 -43.5zM633 1323c-17.333 8 -36.3281 14.167 -56.9951 18.5s-43.334 6.5 -68.001 6.5
c-38.667 0 -66.834 -9.33301 -84.501 -28s-26.5 -47 -26.5 -85v-160h211v-129h-211v-946h-153v946h-148v129h148v148c0 48 6.16699 88.667 18.5 122s29.666 60.5 51.999 81.5s49.166 36.333 80.499 46s65.666 14.5 102.999 14.5c30.667 0 56.167 -1.5 76.5 -4.5
s39.833 -7.83301 58.5 -14.5v-145zM889.005 0v1075h153v-1075h-153z" />
    <glyph glyph-name="fl" unicode="fl" horiz-adv-x="1223" 
d="M889 0v1407l153 86v-1493h-153zM633 1323c-17.333 8 -36.3281 14.167 -56.9951 18.5s-43.334 6.5 -68.001 6.5c-38.667 0 -66.834 -9.33301 -84.501 -28s-26.5 -47 -26.5 -85v-160h211v-129h-211v-946h-153v946h-148v129h148v148c0 48 6.16699 88.667 18.5 122
s29.666 60.5 51.999 81.5s49.166 36.333 80.499 46s65.666 14.5 102.999 14.5c30.667 0 56.167 -1.5 76.5 -4.5s39.833 -7.83301 58.5 -14.5v-145z" />
    <glyph glyph-name=".notdef" horiz-adv-x="0" 
 />
    <glyph glyph-name="space" unicode=" " horiz-adv-x="532" 
 />
    <glyph glyph-name="space" unicode="&#xa0;" horiz-adv-x="532" 
 />
    <glyph glyph-name="exclam" unicode="!" horiz-adv-x="539" 
d="M311 385h-86l-35 375v674h158v-674zM393 102c0 -16.667 -3.5 -32.5 -10.5 -47.5s-16.167 -28.333 -27.5 -40s-24.5 -20.834 -39.5 -27.501s-30.833 -10 -47.5 -10s-32.5 3.33301 -47.5 10s-28.333 15.834 -40 27.501s-20.834 25 -27.501 40s-10 30.833 -10 47.5
s3.33301 32.834 10 48.501s15.834 29.5 27.501 41.5s25 21.5 40 28.5s30.833 10.5 47.5 10.5s32.5 -3.5 47.5 -10.5s28.167 -16.5 39.5 -28.5s20.5 -25.833 27.5 -41.5s10.5 -31.834 10.5 -48.501z" />
    <glyph glyph-name="quotedbl" unicode="&#x22;" horiz-adv-x="942" 
d="M735 764h-121l-34 670h190zM328 764h-121l-35 670h190z" />
    <glyph glyph-name="numbersign" unicode="#" 
d="M946 362v-362h-143v362h-336v-362h-143v362h-222v134h222v442h-222v133h222v363h143v-363h336v363h143v-363h221v-133h-221v-442h221v-134h-221zM803 938h-336v-442h336v442z" />
    <glyph glyph-name="dollar" unicode="$" 
d="M1120 397c0 -52 -9.50293 -100.499 -28.5029 -145.499s-46.5 -84.5 -82.5 -118.5s-80.167 -62 -132.5 -84s-111.833 -36.333 -178.5 -43v-211h-151v211c-42 4 -83 11.333 -123 22s-78.167 23.834 -114.5 39.501s-70.5 33.167 -102.5 52.5s-61.333 40 -88 62l98 125
c30 -23.333 61.167 -45 93.5 -65s65.666 -37.167 99.999 -51.5s69.666 -25.5 105.999 -33.5s73.833 -12 112.5 -12c104.667 0 186.5 21.667 245.5 65s88.5 103.666 88.5 180.999c0 32.667 -5.83301 61.5 -17.5 86.5s-31.5 48.167 -59.5 69.5s-65.5 41.833 -112.5 61.5
s-105.5 40.167 -175.5 61.5c-82 26 -151 51.667 -207 77s-101 53.166 -135 83.499s-58.5 64.833 -73.5 103.5s-22.5 84.334 -22.5 137.001s9.33301 100 28 142s45 78 79 108s74.833 54.167 122.5 72.5s100.834 30.5 159.501 36.5v208h151v-206
c39.333 -2.66699 76.166 -7.83398 110.499 -15.501s67.166 -17.334 98.499 -29.001s61.333 -25.167 90 -40.5s57.334 -32.333 86.001 -51l-94 -131c-29.333 19.333 -58.166 36.666 -86.499 51.999s-57.166 28.166 -86.499 38.499s-60.166 18.333 -92.499 24
s-67.166 8.5 -104.499 8.5c-54 0 -100 -5.33301 -138 -16s-69.167 -25.167 -93.5 -43.5s-42.166 -40.166 -53.499 -65.499s-17 -52.666 -17 -81.999s4.5 -55.5 13.5 -78.5s26.667 -44.833 53 -65.5s63.333 -41.167 111 -61.5s110.167 -42.5 187.5 -66.5
c84 -27.333 154 -54 210 -80s100.667 -54.667 134 -86s57 -66.666 71 -105.999s21 -86 21 -140z" />
    <glyph glyph-name="percent" unicode="%" 
d="M512 1063c0 -130 -19 -228.667 -57 -296s-90 -101 -156 -101s-117.333 33 -154 99s-55 164 -55 294s19 228.667 57 296s90 101 156 101s117.333 -33 154 -99s55 -164 55 -294zM393 1059c0 90.667 -7.99805 160.332 -23.998 208.999s-39.333 73 -70 73
s-53.334 -23.667 -68.001 -71s-22 -116.333 -22 -207s8 -160.5 24 -209.5s39.333 -73.5 70 -73.5c31.333 0 54.166 23.833 68.499 71.5s21.5 116.834 21.5 207.501zM360.002 -0.00195312h-120l669 1434h121zM1180 374.998c0 -130 -19 -228.833 -57 -296.5
s-90 -101.5 -156 -101.5s-117.333 33.167 -154 99.5s-55 164.5 -55 294.5s19 228.667 57 296s90 101 156 101s117.333 -33 154 -99s55 -164 55 -294zM1061 370.998c0 90.667 -8.00195 160.334 -24.002 209.001s-39.333 73 -70 73c-31.333 0 -54.166 -23.667 -68.499 -71
s-21.5 -116.333 -21.5 -207s7.83301 -160.5 23.5 -209.5s39.167 -73.5 70.5 -73.5c30.667 0 53.334 23.667 68.001 71s22 116.666 22 207.999z" />
    <glyph glyph-name="ampersand" unicode="&#x26;" horiz-adv-x="1319" 
d="M795 1145c0 54.667 -16.333 98 -49 130s-73.667 48 -123 48c-28 0 -54 -4.16699 -78 -12.5s-44.667 -20 -62 -35s-30.833 -32.667 -40.5 -53s-14.5 -42.833 -14.5 -67.5c0 -40.667 8.66699 -77.167 26 -109.5s37.333 -62.833 60 -91.5l72 -92
c40 25.333 73.333 49.833 100 73.5s48 47 64 70s27.5 46 34.5 69s10.5 46.5 10.5 70.5zM668 752l281.998 -365.003c17.333 34 34 71.5 50 112.5s32.333 87.5 49 139.5l133 -41c-15.333 -58.667 -35.5 -117 -60.5 -175s-52.167 -109 -81.5 -153l207 -270h-188l-115 150
c-57.333 -58 -117.666 -101.333 -180.999 -130s-132 -43 -206 -43c-66 0 -125.5 8 -178.5 24s-98.333 40 -136 72s-66.667 72.167 -87 120.5s-30.5 104.5 -30.5 168.5c0 54.667 7.83301 103.5 23.5 146.5s37.667 81.5 66 115.5s62.166 64.833 101.499 92.5
s82.666 53.834 129.999 78.501l-51 65c-17.333 22.667 -33.666 45.334 -48.999 68.001s-28.666 45.667 -39.999 69s-20.166 47.5 -26.499 72.5s-9.5 50.833 -9.5 77.5c0 50 9.5 94 28.5 132s44.667 70 77 96s69.833 45.667 112.5 59s87.667 20 135 20
c46 0 89.333 -7 130 -21s76.167 -34.167 106.5 -60.5s54.333 -58.333 72 -96s26.5 -80.167 26.5 -127.5c0 -145.333 -96.667 -277.666 -290 -396.999zM527.998 689.997c-80.667 -36 -142.333 -80.6689 -185 -134.002s-64 -116.333 -64 -189
c0 -35.333 6.16699 -68.166 18.5 -98.499s30.5 -56.666 54.5 -78.999s53.5 -40 88.5 -53s75.167 -19.5 120.5 -19.5c62 0 118.333 12.667 169 38s94 59 130 101z" />
    <glyph glyph-name="quotesingle" unicode="'" horiz-adv-x="526" 
d="M326 764h-125l-35 670h194z" />
    <glyph glyph-name="parenleft" unicode="(" horiz-adv-x="713" 
d="M591 -225c-38.667 24.667 -78.667 53.1719 -120 85.5049s-81.5 68.166 -120.5 107.499s-76 82.5 -111 129.5s-65.5 97.333 -91.5 151s-46.667 110.834 -62 171.501s-23 124.667 -23 192c0 71.333 7.66699 138.5 23 201.5s36 122.167 62 177.5s56.5 106.666 91.5 153.999
s72 90.666 111 129.999s79.167 75.166 120.5 107.499s81.333 60.833 120 85.5l58 -67c-60 -49.333 -115.333 -100.833 -166 -154.5s-94.334 -111.667 -131.001 -174s-65.334 -130.333 -86.001 -204s-31 -154.834 -31 -243.501c0 -92.667 10.333 -176.334 31 -251.001
s49.334 -143.167 86.001 -205.5s80.334 -120 131.001 -173s106 -104.167 166 -153.5z" />
    <glyph glyph-name="parenright" unicode=")" horiz-adv-x="713" 
d="M649 631c0 -71.333 -7.66602 -138.502 -22.999 -201.502s-36 -122.167 -62 -177.5s-56.5 -106.666 -91.5 -153.999s-72.167 -90.666 -111.5 -129.999s-79.5 -75.166 -120.5 -107.499s-81.167 -60.833 -120.5 -85.5l-57 67c60 49.333 115.333 100.833 166 154.5
s94.334 111.667 131.001 174s65.334 130.166 86.001 203.499s31 154.666 31 243.999c0 92.667 -10.333 176.334 -31 251.001s-49.334 143.167 -86.001 205.5s-80.334 120 -131.001 173s-106 104.167 -166 153.5l57 67c38.667 -24.667 78.667 -53.167 120 -85.5
s81.666 -68.166 120.999 -107.499s76.5 -82.5 111.5 -129.5s65.5 -97.333 91.5 -151s46.667 -110.834 62 -171.501s23 -124.667 23 -192z" />
    <glyph glyph-name="asterisk" unicode="*" horiz-adv-x="1024" 
d="M829 979l-55 -96l-237 178l30 -295h-110l28 295l-235 -178l-55 96l264 119l-264 123l55 94l235 -176l-28 295h110l-30 -295l237 176l55 -94l-264 -123z" />
    <glyph glyph-name="plus" unicode="+" 
d="M709 635v-436h-148v436h-424v139h424v436h148v-436h424v-139h-424z" />
    <glyph glyph-name="comma" unicode="," horiz-adv-x="635" 
d="M303 -242h-110l30 478h213z" />
    <glyph glyph-name="hyphen" unicode="-" horiz-adv-x="659" 
d="M104 674v149h451v-149h-451z" />
    <glyph glyph-name="hyphen" unicode="&#xad;" horiz-adv-x="659" 
d="M104 674v149h451v-149h-451z" />
    <glyph glyph-name="period" unicode="." horiz-adv-x="635" 
d="M451 111c0 -18.667 -3.66699 -36.167 -11 -52.5s-17 -30.5 -29 -42.5s-26.167 -21.5 -42.5 -28.5s-33.5 -10.5 -51.5 -10.5s-35.167 3.5 -51.5 10.5s-30.5 16.5 -42.5 28.5s-21.5 26.167 -28.5 42.5s-10.5 33.833 -10.5 52.5c0 18 3.5 35.333 10.5 52
s16.5 31.334 28.5 44.001s26.167 22.667 42.5 30s33.5 11 51.5 11s35.167 -3.66699 51.5 -11s30.5 -17.333 42.5 -30s21.667 -27.334 29 -44.001s11 -34 11 -52z" />
    <glyph glyph-name="slash" unicode="/" horiz-adv-x="870" 
d="M205 -184h-152l613 1802h151z" />
    <glyph glyph-name="zero" unicode="0" 
d="M1157 717c0 -118.667 -13 -224 -39 -316s-62.167 -169.333 -108.5 -232s-101.333 -110.334 -165 -143.001s-133.5 -49 -209.5 -49s-145.833 16.333 -209.5 49s-118.667 80.334 -165 143.001s-82.5 140 -108.5 232s-39 197.333 -39 316s13 224 39 316
s62.167 169.333 108.5 232s101.333 110.167 165 142.5s133.5 48.5 209.5 48.5s145.833 -16.167 209.5 -48.5s118.667 -79.833 165 -142.5s82.5 -140 108.5 -232s39 -197.333 39 -316zM999 717c0 92.667 -8.5 175.834 -25.5 249.501s-41.333 136.167 -73 187.5
s-69.834 90.666 -114.501 117.999s-95 41 -151 41s-106.5 -13.667 -151.5 -41s-83.333 -66.666 -115 -117.999s-56 -113.833 -73 -187.5s-25.5 -156.834 -25.5 -249.501s8.5 -175.834 25.5 -249.501s41.333 -136.167 73 -187.5s70 -90.666 115 -117.999s95.5 -41 151.5 -41
s106.333 13.667 151 41s82.834 66.666 114.501 117.999s56 113.833 73 187.5s25.5 156.834 25.5 249.501z" />
    <glyph glyph-name="one" unicode="1" 
d="M270 0v140.999h316v1006h-281v100c44 2.66699 84.167 7.5 120.5 14.5s68 17.833 95 32.5s49.333 33.334 67 56.001s29.5 50.667 35.5 84h120v-1293h287v-141h-760z" />
    <glyph glyph-name="two" unicode="2" 
d="M113 0c4.66699 88 20.8252 168.164 48.4922 240.497s65.834 136 114.501 191s102.5 103.667 161.5 146s112.5 78.5 160.5 108.5c68.667 44.667 124.834 83.5 168.501 116.5s77.667 63.667 102 92s41 56 50 83s13.5 57.5 13.5 91.5c0 76.667 -27.167 136.5 -81.5 179.5
s-133.166 64.5 -236.499 64.5c-43.333 0 -82.666 -3.83301 -117.999 -11.5s-67.666 -18 -96.999 -31s-56.5 -28.167 -81.5 -45.5s-48.833 -35.333 -71.5 -54l-92 115c29.333 22.667 60.333 44.334 93 65.001s68 38.834 106 54.501s79.167 28 123.5 37s92.5 13.5 144.5 13.5
c65.333 0 126.333 -7.5 183 -22.5s106 -38 148 -69s75 -70.333 99 -118s36 -104.167 36 -169.5c0 -56 -6.83301 -104 -20.5 -144s-35.5 -77.333 -65.5 -112s-69.167 -69.5 -117.5 -104.5s-107.166 -75.167 -176.499 -120.5
c-51.333 -33.333 -100.666 -67.166 -147.999 -101.499s-89.666 -69.833 -126.999 -106.5s-67 -74 -89 -112s-37.333 -79.333 -46 -124h807v-152h-991z" />
    <glyph glyph-name="three" unicode="3" 
d="M1094 412c0 -68 -12.0049 -128.998 -36.0049 -182.998s-58.5 -99.667 -103.5 -137s-100 -65.833 -165 -85.5s-138.5 -29.5 -220.5 -29.5c-51.333 0 -99.833 4.83301 -145.5 14.5s-88.5 22.834 -128.5 39.501s-76.833 36.167 -110.5 58.5s-63.834 45.833 -90.501 70.5
l103 112c57.333 -51.333 117.666 -89.333 180.999 -114s129 -37 197 -37c118.667 0 208.5 24.167 269.5 72.5s91.5 119.833 91.5 214.5c0 44 -8.66699 82.833 -26 116.5s-41.666 61.834 -72.999 84.501s-69 39.834 -113 51.501s-92.667 17.5 -146 17.5h-101v137h103
c94 0 166.167 22 216.5 66s75.5 104.667 75.5 182c0 35.333 -5.33301 68.166 -16 98.499s-28.5 56.833 -53.5 79.5s-57.833 40.334 -98.5 53.001s-91 19 -151 19c-62.667 0 -119.5 -11.5 -170.5 -34.5s-95.167 -51.167 -132.5 -84.5l-96 109
c20.667 18 45.334 36.167 74.001 54.5s60.334 34.833 95.001 49.5s71.667 26.5 111 35.5s80.333 13.5 123 13.5c65.333 0 126.833 -7.5 184.5 -22.5s107.834 -37.667 150.501 -68s76.334 -68.833 101.001 -115.5s37 -101.667 37 -165c0 -42.667 -5 -80.834 -15 -114.501
s-24 -63.834 -42 -90.501s-39.667 -50.334 -65 -71.001s-53.666 -39 -84.999 -55c34.667 -8.66699 68.334 -21.834 101.001 -39.501s61.667 -40.5 87 -68.5s45.5 -61.333 60.5 -100s22.5 -83.334 22.5 -134.001z" />
    <glyph glyph-name="four" unicode="4" 
d="M983 342v-342h-147v342h-744v133l721 959h170v-955h188v-137h-188zM836 1229l-566 -750h566v750z" />
    <glyph glyph-name="five" unicode="5" 
d="M1133 477c0 -86.667 -13.3291 -161.334 -39.9961 -224.001s-63.834 -114.5 -111.501 -155.5s-104.5 -71.333 -170.5 -91s-138.333 -29.5 -217 -29.5c-88.667 0 -170.834 12 -246.501 36s-144.5 56 -206.5 96l78 127c54 -34 114 -61.667 180 -83s135 -32 207 -32
c61.333 0 115.166 8.33301 161.499 25s84.833 40.334 115.5 71.001s53.667 67.167 69 109.5s23 89.166 23 140.499c0 95.333 -29.833 169.333 -89.5 222s-143.834 79 -252.501 79c-33.333 0 -63.833 -2.16699 -91.5 -6.5s-53.5 -10.5 -77.5 -18.5s-46.667 -17.667 -68 -29
s-42 -24 -62 -38l-158 61l49 697h822v-152h-685l-34 -461c36 24.667 80.5 45.834 133.5 63.501s113.5 26.5 181.5 26.5c82 0 153.667 -10.5 215 -31.5s112.333 -50.5 153 -88.5s71.167 -83.667 91.5 -137s30.5 -112.333 30.5 -177z" />
    <glyph glyph-name="six" unicode="6" 
d="M1174 442c0 -76.667 -13.502 -144.001 -40.502 -202.001s-64.333 -106.5 -112 -145.5s-103.667 -68.333 -168 -88s-133.833 -29.5 -208.5 -29.5c-71.333 0 -138.166 10.333 -200.499 31s-116.833 53.5 -163.5 98.5s-83.334 103.333 -110.001 175s-40 158.834 -40 261.501
c0 62 6 126.667 18 194s31.167 133.833 57.5 199.5s60.833 128.5 103.5 188.5s94.667 113.5 156 160.5s133 85.667 215 116s175.333 48.5 280 54.5v-141c-189.333 -16.667 -340.166 -75.667 -452.499 -177s-186.833 -243 -223.5 -425c22.667 24.667 47.5 47.167 74.5 67.5
s57.167 38 90.5 53s70.333 26.667 111 35s86.334 12.5 137.001 12.5c66 0 127.833 -9 185.5 -27s108 -45.167 151 -81.5s77 -82 102 -137s37.5 -119.5 37.5 -193.5zM1016 433.999c0 48 -8.16992 90.8311 -24.5029 128.498s-39.833 69.5 -70.5 95.5s-68.167 45.667 -112.5 59
s-94.833 20 -151.5 20s-107.667 -7.33301 -153 -22s-84 -35.167 -116 -61.5s-56.5 -58.166 -73.5 -95.499s-25.5 -78.666 -25.5 -123.999c0 -44.667 8.66699 -86 26 -124s41.833 -71 73.5 -99s69.834 -50 114.501 -66s94 -24 148 -24c59.333 0 111.833 7.66699 157.5 23
s83.834 36.833 114.501 64.5s53.834 60.667 69.501 99s23.5 80.5 23.5 126.5z" />
    <glyph glyph-name="seven" unicode="7" 
d="M1153 1284c-69.333 -78 -135.001 -162.332 -197.001 -252.999s-116.833 -189 -164.5 -295s-86 -220.167 -115 -342.5s-44.833 -253.5 -47.5 -393.5h-162c4 128.667 18.833 251.667 44.5 369s60.334 229.166 104.001 335.499s95.5 207.5 155.5 303.5s126 187.333 198 274
h-852v152h1036v-150z" />
    <glyph glyph-name="eight" unicode="8" 
d="M1151 403c0 -69.333 -12.335 -130.5 -37.002 -183.5s-59.667 -97.5 -105 -133.5s-100 -63.167 -164 -81.5s-135.333 -27.5 -214 -27.5s-149.5 9 -212.5 27s-116.667 44.833 -161 80.5s-78.5 79.667 -102.5 132s-36 113.166 -36 182.499c0 48.667 6.33301 92.5 19 131.5
s30 72.833 52 101.5s49.833 54.834 83.5 78.501s73.5 43.5 119.5 59.5c-32 12.667 -61.167 28.167 -87.5 46.5s-49.166 40 -68.499 65s-34.333 53.333 -45 85s-16 67.167 -16 106.5c0 54.667 10 105.334 30 152.001s49.5 87.167 88.5 121.5s87 61.166 144 80.499
s122.5 29 196.5 29s139.5 -9.5 196.5 -28.5s104.833 -45.333 143.5 -79s67.834 -73.834 87.501 -120.501s29.5 -97.667 29.5 -153c0 -38 -5.16699 -72.333 -15.5 -103s-25 -58.334 -44 -83.001s-42 -46.5 -69 -65.5s-56.833 -35.5 -89.5 -49.5
c44.667 -15.333 84.167 -34.666 118.5 -57.999s63.833 -51.166 88.5 -83.499s42.5 -66.833 53.5 -103.5s16.5 -78.667 16.5 -126zM935.998 1071c0 30 -5.5 59.6641 -16.5 88.9971s-28.667 55.5 -53 78.5s-55.666 41.5 -93.999 55.5s-84.833 21 -139.5 21
c-55.333 0 -102.166 -6.83301 -140.499 -20.5s-69.333 -31.667 -93 -54s-40.834 -48 -51.501 -77s-16 -58.5 -16 -88.5c0 -34 7 -65.833 21 -95.5s34 -55.167 60 -76.5s57.667 -38.166 95 -50.499s79.666 -18.5 126.999 -18.5c46 0 87.5 6.16699 124.5 18.5
s68.667 29.333 95 51s46.5 46.834 60.5 75.501s21 59.334 21 92.001zM992.998 398.997c0 41.333 -7.99805 79.833 -23.998 115.5s-39.333 66.5 -70 92.5s-68.334 46.333 -113.001 61s-95.667 22 -153 22c-58 0 -109.333 -7.16699 -154 -21.5s-82.167 -34.333 -112.5 -60
s-53.333 -56 -69 -91s-23.5 -73.167 -23.5 -114.5c0 -42 7.5 -80.333 22.5 -115s37.667 -64.5 68 -89.5s68.166 -44.5 113.499 -58.5s98.333 -21 159 -21c60 0 112.333 6.66699 157 20s81.667 32.333 111 57s51.333 54.167 66 88.5s22 72.5 22 114.5z" />
    <glyph glyph-name="nine" unicode="9" 
d="M981 999c0 44.667 -8.66602 86.1689 -25.999 124.502s-41.833 71.5 -73.5 99.5s-69.834 50 -114.501 66s-94.334 24 -149.001 24c-59.333 0 -111.666 -7.66699 -156.999 -23s-83.333 -36.833 -114 -64.5s-53.834 -60.834 -69.501 -99.501s-23.5 -81 -23.5 -127
c0 -96 31.833 -170.5 95.5 -223.5s151.167 -79.5 262.5 -79.5c56.667 0 107.834 7.16699 153.501 21.5s84.5 34.833 116.5 61.5s56.5 58.667 73.5 96s25.5 78.666 25.5 123.999zM1139 891.002c0 -62 -6.00098 -126.832 -18.001 -194.499s-31.167 -134.334 -57.5 -200.001
s-60.833 -128.5 -103.5 -188.5s-94.667 -113.5 -156 -160.5s-133 -85.667 -215 -116s-175.333 -48.5 -280 -54.5v142c189.333 16.667 340 75.5 452 176.5s186.667 242.833 224 425.5c-23.333 -24.667 -48.333 -47.167 -75 -67.5s-56.667 -38 -90 -53
s-70.5 -26.667 -111.5 -35s-86.833 -12.5 -137.5 -12.5c-65.333 0 -126.833 8.83301 -184.5 26.5s-108 44.667 -151 81s-77 82 -102 137s-37.5 119.5 -37.5 193.5c0 76.667 13.5 144 40.5 202s64.333 106.5 112 145.5s103.667 68.333 168 88s133.833 29.5 208.5 29.5
c70.667 0 137.334 -10.333 200.001 -31s117.167 -53.5 163.5 -98.5s83 -103.333 110 -175s40.5 -158.5 40.5 -260.5z" />
    <glyph glyph-name="colon" unicode=":" horiz-adv-x="635" 
d="M451 961c0 -18.667 -3.66699 -36.167 -11 -52.5s-17 -30.5 -29 -42.5s-26.167 -21.5 -42.5 -28.5s-33.5 -10.5 -51.5 -10.5s-35.167 3.5 -51.5 10.5s-30.5 16.5 -42.5 28.5s-21.5 26.167 -28.5 42.5s-10.5 33.833 -10.5 52.5c0 18 3.5 35.333 10.5 52
s16.5 31.334 28.5 44.001s26.167 22.667 42.5 30s33.5 11 51.5 11s35.167 -3.66699 51.5 -11s30.5 -17.333 42.5 -30s21.667 -27.334 29 -44.001s11 -34 11 -52zM451 111c0 -18.667 -3.66699 -36.167 -11 -52.5s-17 -30.5 -29 -42.5s-26.167 -21.5 -42.5 -28.5
s-33.5 -10.5 -51.5 -10.5s-35.167 3.5 -51.5 10.5s-30.5 16.5 -42.5 28.5s-21.5 26.167 -28.5 42.5s-10.5 33.833 -10.5 52.5c0 18 3.5 35.333 10.5 52s16.5 31.334 28.5 44.001s26.167 22.667 42.5 30s33.5 11 51.5 11s35.167 -3.66699 51.5 -11s30.5 -17.333 42.5 -30
s21.667 -27.334 29 -44.001s11 -34 11 -52z" />
    <glyph glyph-name="semicolon" unicode=";" horiz-adv-x="635" 
d="M451 961c0 -18.667 -3.66699 -36.167 -11 -52.5s-17 -30.5 -29 -42.5s-26.167 -21.5 -42.5 -28.5s-33.5 -10.5 -51.5 -10.5s-35.167 3.5 -51.5 10.5s-30.5 16.5 -42.5 28.5s-21.5 26.167 -28.5 42.5s-10.5 33.833 -10.5 52.5c0 18 3.5 35.333 10.5 52
s16.5 31.334 28.5 44.001s26.167 22.667 42.5 30s33.5 11 51.5 11s35.167 -3.66699 51.5 -11s30.5 -17.333 42.5 -30s21.667 -27.334 29 -44.001s11 -34 11 -52zM289 -242h-111l31 478h213z" />
    <glyph glyph-name="less" unicode="&#x3c;" 
d="M184 621v167l910 568v-166l-775 -483l775 -484v-170z" />
    <glyph glyph-name="equal" unicode="=" 
d="M178 856v143h914v-143h-914zM178 410v143h914v-143h-914z" />
    <glyph glyph-name="greater" unicode="&#x3e;" 
d="M176 53v166l774 483l-774 484v170l909 -568v-167z" />
    <glyph glyph-name="question" unicode="?" horiz-adv-x="1149" 
d="M1012 1104c0 -50 -5.66895 -92.8262 -17.002 -128.493s-28 -67.334 -50 -95.001s-48.667 -53 -80 -76s-67 -46.833 -107 -71.5c-34 -21.333 -61.333 -41.333 -82 -60s-36.5 -40.334 -47.5 -65.001s-18.167 -54.5 -21.5 -89.5s-5 -79.5 -5 -133.5h-158
c0 61.333 2.33301 115.666 7 162.999s15.5 88.166 32.5 122.499s41.833 65.5 74.5 93.5s75.334 58 128.001 90c26.667 16.667 50.334 32.834 71.001 48.501s38 32.667 52 51s24.667 38.666 32 60.999s11 48.166 11 77.499c0 65.333 -26.667 118.166 -80 158.499
s-123 60.5 -209 60.5c-75.333 0 -142.666 -14.167 -201.999 -42.5s-115.333 -66.833 -168 -115.5l-103 113c27.333 26.667 58 51.5 92 74.5s71 43 111 60s83 30.5 129 40.5s95 15 147 15c64.667 0 124.167 -7.33301 178.5 -22s101.166 -36.834 140.499 -66.501
s69.833 -66.5 91.5 -110.5s32.5 -95 32.5 -153zM644.998 102.007c0 -16.667 -3.5 -32.5 -10.5 -47.5s-16.167 -28.333 -27.5 -40s-24.5 -20.834 -39.5 -27.501s-30.833 -10 -47.5 -10s-32.5 3.33301 -47.5 10s-28.333 15.834 -40 27.501s-20.834 25 -27.501 40
s-10 30.833 -10 47.5s3.33301 32.834 10 48.501s15.834 29.5 27.501 41.5s25 21.5 40 28.5s30.833 10.5 47.5 10.5s32.5 -3.5 47.5 -10.5s28.167 -16.5 39.5 -28.5s20.5 -25.833 27.5 -41.5s10.5 -31.834 10.5 -48.501z" />
    <glyph glyph-name="at" unicode="@" horiz-adv-x="1712" 
d="M1595 737c0 -77.333 -7.16504 -143 -21.498 -197s-34.833 -98 -61.5 -132s-58.5 -58.667 -95.5 -74s-78.5 -23 -124.5 -23c-25.333 0 -49.333 3.33301 -72 10s-43.334 15.834 -62.001 27.501s-35.167 25.334 -49.5 41.001s-26.166 32.5 -35.499 50.5
c-30.667 -39.333 -68.5 -70.666 -113.5 -93.999s-95.833 -35 -152.5 -35c-44.667 0 -86 5.66699 -124 17s-71 28.666 -99 51.999s-50 52.5 -66 87.5s-24 76.5 -24 124.5c0 43.333 8.5 81.666 25.5 114.999s40.333 61.333 70 84s64.667 39.834 105 51.501
s83.833 17.5 130.5 17.5c54 0 99 -5.33301 135 -16s67 -23.667 93 -39v121c0 44 -16.5 76.833 -49.5 98.5s-86.833 32.5 -161.5 32.5c-37.333 0 -73.5 -4.33301 -108.5 -13s-68.5 -20.667 -100.5 -36l-45 88c41.333 20.667 83.833 36.334 127.5 47.001s90.5 16 140.5 16
c45.333 0 86.666 -4 123.999 -12s69.166 -20.833 95.499 -38.5s46.833 -41 61.5 -70s22 -64.5 22 -106.5v-395c0 -42 12.833 -74.833 38.5 -98.5s61.5 -35.5 107.5 -35.5c27.333 0 52.5 5.83301 75.5 17.5s42.833 30.667 59.5 57s29.667 60.666 39 102.999
s14 93.833 14 154.5c0 93.333 -16 178.333 -48 255s-76.333 142.5 -133 197.5s-123.834 97.5 -201.501 127.5s-162.5 45 -254.5 45s-177 -15.167 -255 -45.5s-145.333 -73.5 -202 -129.5s-100.834 -123.333 -132.501 -202s-47.5 -166 -47.5 -262
c0 -97.333 15.833 -185.833 47.5 -265.5s75.834 -147.667 132.501 -204s124 -100 202 -131s163 -46.5 255 -46.5c54.667 0 104 5.16699 148 15.5s87.667 26.166 131 47.499l36 -90c-29.333 -13.333 -56.666 -24.5 -81.999 -33.5s-50.333 -16.167 -75 -21.5
s-49.834 -9.16602 -75.501 -11.499s-53.167 -3.5 -82.5 -3.5c-71.333 0 -139.166 8.33301 -203.499 25s-123.833 40.5 -178.5 71.5s-104 68.667 -148 113s-81.5 93.833 -112.5 148.5s-54.833 114.167 -71.5 178.5s-25 132.166 -25 203.499s8.33301 139.166 25 203.499
s40.5 123.833 71.5 178.5s68.5 104 112.5 148s93.333 81.5 148 112.5s114.167 54.833 178.5 71.5s132.166 25 203.499 25c72.667 0 141.334 -8.66699 206.001 -26s124.334 -41.833 179.001 -73.5s104 -69.667 148 -114s81.167 -93.166 111.5 -146.499
s53.666 -110.333 69.999 -171s24.5 -123.334 24.5 -188.001zM1053 702c-26 15.333 -58.667 29.167 -98 41.5s-86 18.5 -140 18.5c-30.667 0 -58.667 -4 -84 -12s-47.166 -19.333 -65.499 -34s-32.5 -32 -42.5 -52s-15 -42 -15 -66c0 -60 16.667 -105.667 50 -137
s86.333 -47 159 -47c24 0 47.667 3 71 9s45.166 14.5 65.499 25.5s39 24 56 39s31.5 31.5 43.5 49.5v165z" />
    <glyph glyph-name="A" unicode="A" horiz-adv-x="1389" 
d="M1280 0h-168l-123 365h-592l-125 -365h-163l497 1434h176zM940 510l-246 733l-248 -733h494z" />
    <glyph glyph-name="B" unicode="B" horiz-adv-x="1282" 
d="M1169 424c0 -141.333 -40.1689 -247.334 -120.502 -318.001s-195.833 -106 -346.5 -106h-514v1434h525c56.667 0 108.834 -7.16699 156.501 -21.5s88.667 -36.333 123 -66s61.166 -67 80.499 -112s29 -98.167 29 -159.5c0 -39.333 -5.16699 -74.666 -15.5 -105.999
s-24.666 -59 -42.999 -83s-40.166 -44.667 -65.499 -62s-53 -31.333 -83 -42c48 -12.667 89.167 -30.167 123.5 -52.5s62.333 -48.333 84 -78s38.167 -63.5 49.5 -101.5s17 -80 17 -126zM941.998 1069c0 32.667 -4.83398 62.5 -14.501 89.5s-24.167 50 -43.5 69
s-43.666 33.833 -72.999 44.5s-64 16 -104 16h-359v-446h346c44.667 0 82.667 6 114 18s57 28.167 77 48.5s34.5 44.333 43.5 72s13.5 57.167 13.5 88.5zM1010 415.999c0 44.667 -7.16895 84.502 -21.502 119.502s-34.666 64.5 -60.999 88.5s-58.333 42.333 -96 55
s-79.834 19 -126.501 19h-357v-553h365c54 0 99.833 6.5 137.5 19.5s68.334 31.167 92.001 54.5s40.834 51.666 51.501 84.999s16 70.666 16 111.999z" />
    <glyph glyph-name="C" unicode="C" horiz-adv-x="1286" 
d="M1042 1130c-23.333 31.333 -46.502 58.334 -69.502 81.001s-47.5 41.5 -73.5 56.5s-54.5 26 -85.5 33s-65.833 10.5 -104.5 10.5c-61.333 0 -117.833 -14.5 -169.5 -43.5s-96.167 -69.667 -133.5 -122s-66.5 -114.833 -87.5 -187.5s-31.5 -152.334 -31.5 -239.001
c0 -87.333 10.667 -167.5 32 -240.5s51 -135.833 89 -188.5s82.833 -93.667 134.5 -123s107.834 -44 168.501 -44c77.333 0 144.166 16.5 200.499 49.5s107.5 79.167 153.5 138.5l111 -96c-26 -35.333 -55.333 -67.5 -88 -96.5s-68.5 -54 -107.5 -75
s-81.333 -37.333 -127 -49s-94.5 -17.5 -146.5 -17.5c-58.667 0 -113.667 8.5 -165 25.5s-98.5 41.167 -141.5 72.5s-81.333 69.166 -115 113.499s-62.334 93.833 -86.001 148.5s-41.667 113.834 -54 177.501s-18.5 130.5 -18.5 200.5c0 106.667 14.333 205.167 43 295.5
s68.834 168.5 120.501 234.5s113.334 117.667 185.001 155s150.834 56 237.501 56c98.667 0 185.167 -18.667 259.5 -56s139.833 -95 196.5 -173z" />
    <glyph glyph-name="D" unicode="D" horiz-adv-x="1348" 
d="M1221 727c0 -64.667 -4.16504 -124.001 -12.498 -178.001s-23.5 -110.833 -45.5 -170.5s-54.667 -115 -98 -166s-92.833 -92.167 -148.5 -123.5s-114.834 -54 -177.501 -68s-129.334 -21 -200.001 -21h-351v1434h379c94 0 181 -13.833 261 -41.5
s149.167 -70.167 207.5 -127.5s103.833 -130.666 136.5 -219.999s49 -195.333 49 -318zM1061 720.999c0 91.333 -10.8311 172.334 -32.498 243.001s-53.834 130 -96.501 178s-95.5 84.333 -158.5 109s-135.833 37 -218.5 37h-207v-1143h211c77.333 0 147 10.667 209 32
s114.667 55.166 158 101.499s76.666 105.833 99.999 178.5s35 160.667 35 264z" />
    <glyph glyph-name="E" unicode="E" horiz-adv-x="1202" 
d="M1085 0h-897v1434h867v-146h-707v-450h572v-146h-572v-547h737v-145z" />
    <glyph glyph-name="F" unicode="F" horiz-adv-x="1122" 
d="M348 1288v-475h393v-145h-393v-668h-160v1434h842v-146h-682z" />
    <glyph glyph-name="G" unicode="G" horiz-adv-x="1350" 
d="M1237 571c0 -98.667 -13.3379 -185.165 -40.0049 -259.498s-63.667 -136.166 -111 -185.499s-103.333 -86.5 -168 -111.5s-135 -37.5 -211 -37.5c-92 0 -175 20.667 -249 62s-134.667 95.166 -182 161.499s-83.666 141.666 -108.999 225.999s-38.666 180.5 -39.999 288.5
c0 106.667 14.333 205.167 43 295.5s68.834 168.5 120.501 234.5s113.334 117.667 185.001 155s150.834 56 237.501 56c98.667 0 185.167 -18.667 259.5 -56s139.833 -95 196.5 -173l-127 -97c-23.333 31.333 -46.5 58.333 -69.5 81s-47.5 41.5 -73.5 56.5
s-54.5 26 -85.5 33s-65.833 10.5 -104.5 10.5c-61.333 0 -117.833 -14.5 -169.5 -43.5s-96.167 -69.667 -133.5 -122s-66.5 -114.833 -87.5 -187.5s-31.5 -152.334 -31.5 -239.001c0 -87.333 10.833 -167.5 32.5 -240.5s51.5 -135.833 89.5 -188.5
s82.833 -93.667 134.5 -123s107.5 -44 167.5 -44c120 0 211.667 36 275 108s95 178.667 95 320v12h-258v148h414v-140z" />
    <glyph glyph-name="H" unicode="H" horiz-adv-x="1409" 
d="M1061 0v676h-713v-676h-160v1434h160v-613h713v613h160v-1434h-160z" />
    <glyph glyph-name="I" unicode="I" horiz-adv-x="557" 
d="M199 0v1434h159v-1434h-159z" />
    <glyph glyph-name="J" unicode="J" horiz-adv-x="1184" 
d="M1006 549c0 -191.333 -40.499 -334.497 -121.499 -429.497s-203.833 -142.5 -368.5 -142.5c-60.667 0 -114.834 7.5 -162.501 22.5s-90 37.333 -127 67s-69.167 66 -96.5 109s-50.333 92.5 -69 148.5l152 51c14 -39.333 30 -74.5 48 -105.5s39.333 -57.333 64 -79
s53 -38.334 85 -50.001s69.333 -17.5 112 -17.5c57.333 0 106.5 8.33301 147.5 25s74.5 42.667 100.5 78s45.167 80.166 57.5 134.499s18.5 119.166 18.5 194.499v879h160v-885z" />
    <glyph glyph-name="K" unicode="K" horiz-adv-x="1315" 
d="M1227 0h-183l-423 764l-273 -352v-412h-160v1434h160v-809l625 809h174l-420 -539z" />
    <glyph glyph-name="L" unicode="L" horiz-adv-x="1178" 
d="M188 0v1434h160v-1289h709v-145h-869z" />
    <glyph glyph-name="M" unicode="M" horiz-adv-x="1614" 
d="M1425 0h-153v1094l-469 -1131l-461 1131v-1094h-154v1434h179l440 -1117l444 1117h174v-1434z" />
    <glyph glyph-name="N" unicode="N" horiz-adv-x="1409" 
d="M1221 0h-150l-729 1141v-1141h-154v1434h156l723 -1164v1164h154v-1434z" />
    <glyph glyph-name="O" unicode="O" horiz-adv-x="1444" 
d="M1317 719c0 -108 -14.498 -207.333 -43.498 -298s-69.667 -169 -122 -235s-115.333 -117.333 -189 -154s-154.834 -55 -243.501 -55c-89.333 0 -170.333 18.167 -243 54.5s-134.834 87.166 -186.501 152.499s-91.667 143.166 -120 233.499s-42.5 189.5 -42.5 297.5
s14.333 207.333 43 298s69.167 168.834 121.5 234.501s115 116.834 188 153.501s154.167 55 243.5 55c88.667 0 169.5 -18.167 242.5 -54.5s135.5 -87 187.5 -152s92.333 -142.667 121 -233s43 -189.5 43 -297.5zM1157 715c0 90 -11.1689 171.666 -33.502 244.999
s-53.166 136 -92.499 188s-85.833 92.167 -139.5 120.5s-111.834 42.5 -174.501 42.5c-62 0 -119.333 -14 -172 -42s-98 -67.667 -136 -119s-67.833 -113.5 -89.5 -186.5s-32.5 -154.5 -32.5 -244.5s11.167 -171.667 33.5 -245s53 -136 92 -188s85.167 -92.167 138.5 -120.5
s111.333 -42.5 174 -42.5c62 0 119.333 13.833 172 41.5s98.334 67.334 137.001 119.001s68.834 114 90.501 187s32.5 154.5 32.5 244.5z" />
    <glyph glyph-name="P" unicode="P" horiz-adv-x="1266" 
d="M1182 1006c0 -71.333 -11.833 -134.5 -35.5 -189.5s-57 -101.333 -100 -139s-94.167 -66.167 -153.5 -85.5s-125 -29 -197 -29h-348v-563h-160v1434h537c64.667 0 125 -8.66699 181 -26s104.333 -43.666 145 -78.999s72.667 -79.833 96 -133.5s35 -116.834 35 -189.501z
M1022 999c0 59.333 -10.001 108.667 -30.001 148s-45.333 69 -76 89s-62.5 33.667 -95.5 41s-66.833 11 -101.5 11h-371v-579h350c110.667 0 192.334 24.5 245.001 73.5s79 121.167 79 216.5z" />
    <glyph glyph-name="Q" unicode="Q" horiz-adv-x="1444" 
d="M1317 719c0 -66.667 -5.83105 -130.167 -17.498 -190.5s-28.334 -116.833 -50.001 -169.5s-48.167 -100.667 -79.5 -144s-66.333 -81 -105 -113l92 -149l-131 -78l-90 148c-33.333 -14.667 -68 -26 -104 -34s-73.667 -12 -113 -12c-89.333 0 -170.333 18.167 -243 54.5
s-134.834 87.166 -186.501 152.499s-91.667 143.166 -120 233.499s-42.5 189.5 -42.5 297.5s14.333 207.333 43 298s69.167 168.834 121.5 234.501s115 116.834 188 153.501s154.167 55 243.5 55c88.667 0 169.5 -18.167 242.5 -54.5s135.5 -87 187.5 -152
s92.333 -142.667 121 -233s43 -189.5 43 -297.5zM1157 715c0 90 -11.167 171.667 -33.5 245s-53.166 136 -92.499 188s-85.833 92.167 -139.5 120.5s-111.834 42.5 -174.501 42.5c-62 0 -119.333 -14 -172 -42s-98 -67.667 -136 -119s-67.833 -113.5 -89.5 -186.5
s-32.5 -154.5 -32.5 -244.5s11.167 -171.667 33.5 -245s53 -136 92 -188s85.167 -92.167 138.5 -120.5s111.333 -42.5 174 -42.5c48.667 0 93.667 8 135 24l-117 191l131 78l115 -189c52 50 93 115.833 123 197.5s45 178.5 45 290.5z" />
    <glyph glyph-name="R" unicode="R" horiz-adv-x="1331" 
d="M995 0l-307 610h-340v-610h-160v1434h568c62.667 0 121.167 -8.16699 175.5 -24.5s101.5 -41.166 141.5 -74.499s71.5 -75.5 94.5 -126.5s34.5 -111.167 34.5 -180.5c0 -56 -8 -106.5 -24 -151.5s-38.667 -84.5 -68 -118.5s-64.833 -62.333 -106.5 -85
s-88.167 -39.334 -139.5 -50.001l316 -623h-185zM1021 1143.5c-14 35 -35.3311 63.668 -63.998 86.001s-60.834 37.666 -96.501 45.999s-72.5 12.5 -110.5 12.5h-402v-534h381c46 0 87.833 4.33301 125.5 13s71.167 23.667 100.5 45s51.166 50 65.499 86
s21.5 77.333 21.5 124c0 46 -7 86.5 -21 121.5z" />
    <glyph glyph-name="S" unicode="S" horiz-adv-x="1212" 
d="M1069 377c0 -56 -10.6689 -108.331 -32.002 -156.998s-52.333 -91 -93 -127s-90.5 -64.333 -149.5 -85s-125.833 -31 -200.5 -31c-48.667 0 -95.834 5 -141.501 15s-89 23.833 -130 41.5s-79.167 38.667 -114.5 63s-67 50.833 -95 79.5l106 119
c54.667 -52.667 113.334 -94.5 176.001 -125.5s131 -46.5 205 -46.5c48 0 91 5.66699 129 17s70.333 27.666 97 48.999s47.167 47.166 61.5 77.499s21.5 64.5 21.5 102.5c0 33.333 -5.5 63.5 -16.5 90.5s-29.667 52.333 -56 76s-61.5 46.5 -105.5 68.5
s-98.667 44.667 -164 68c-77.333 27.333 -142.333 54.833 -195 82.5s-95.167 57.667 -127.5 90s-55.5 68.333 -69.5 108s-21 85.5 -21 137.5c0 57.333 10.833 108.666 32.5 153.999s52 83.666 91 114.999s86 55.333 141 72s116.167 25 183.5 25
c48 0 92.167 -3.5 132.5 -10.5s78 -17 113 -30s68 -29 99 -48s61.5 -40.5 91.5 -64.5l-102 -125c-26 21.333 -52 40.333 -78 57s-52.667 30.667 -80 42s-56.166 19.833 -86.499 25.5s-63.5 8.5 -99.5 8.5c-49.333 0 -91.666 -5.66699 -126.999 -17
s-64.166 -26.833 -86.499 -46.5s-38.833 -42.167 -49.5 -67.5s-16 -52 -16 -80c0 -30 4.33301 -57 13 -81s25.334 -47.167 50.001 -69.5s59.167 -44.666 103.5 -66.999s102.166 -46.166 173.499 -71.499c79.333 -28.667 145.666 -57.5 198.999 -86.5s96 -60.333 128 -94
s54.833 -71 68.5 -112s20.5 -88.167 20.5 -141.5z" />
    <glyph glyph-name="T" unicode="T" horiz-adv-x="1204" 
d="M682 1288v-1288h-160v1288h-422v146h1004v-146h-422z" />
    <glyph glyph-name="U" unicode="U" horiz-adv-x="1389" 
d="M1210 582c0 -110 -12.8311 -203.832 -38.498 -281.499s-60.834 -139.834 -105.501 -186.501s-97.334 -81.167 -158.001 -103.5s-131.334 -33.5 -212.001 -33.5s-151.667 11.167 -213 33.5s-114.666 56.833 -159.999 103.5s-80.833 108.834 -106.5 186.501
s-38.5 171.5 -38.5 281.5v852h160v-848c0 -156 30 -272.167 90 -348.5s152.333 -114.5 277 -114.5c122 0 210.167 37.167 264.5 111.5s81.5 190.166 81.5 347.499v852h159v-852z" />
    <glyph glyph-name="V" unicode="V" horiz-adv-x="1368" 
d="M1260 1434l-488 -1434h-176l-487 1434h167l408 -1251l412 1251h164z" />
    <glyph glyph-name="W" unicode="W" horiz-adv-x="1753" 
d="M1637 1434l-287 -1434h-181l-294 1202l-295 -1202h-177l-286 1434h159l220 -1208l297 1208h172l295 -1208l221 1208h156z" />
    <glyph glyph-name="X" unicode="X" horiz-adv-x="1294" 
d="M1178 0h-181l-350 597l-354 -597h-176l446 745l-409 689h180l315 -537l316 537h176l-410 -684z" />
    <glyph glyph-name="Y" unicode="Y" horiz-adv-x="1335" 
d="M1239 1434l-491 -865v-569h-160v567l-492 867h183l390 -703l392 703h178z" />
    <glyph glyph-name="Z" unicode="Z" horiz-adv-x="1286" 
d="M1149 0h-1024v139l848 1155h-807v140h983v-140l-848 -1155h848v-139z" />
    <glyph glyph-name="bracketleft" unicode="[" horiz-adv-x="721" 
d="M195 -225v1659h397v-125h-248v-1409h248v-125h-397z" />
    <glyph glyph-name="backslash" unicode="\" horiz-adv-x="870" 
d="M666 -184l-613 1802h152l612 -1802h-151z" />
    <glyph glyph-name="bracketright" unicode="]" horiz-adv-x="721" 
d="M129 -225v125h248v1409h-248v125h397v-1659h-397z" />
    <glyph glyph-name="asciicircum" unicode="^" horiz-adv-x="1143" 
d="M870 782l-301 484l-301 -484h-172l418 652h115l418 -652h-177z" />
    <glyph glyph-name="underscore" unicode="_" horiz-adv-x="1024" 
d="M0 -313v129h1024v-129h-1024z" />
    <glyph glyph-name="grave" unicode="`" horiz-adv-x="1024" 
d="M547 1219l-309 327h219l211 -327h-121z" />
    <glyph glyph-name="a" unicode="a" horiz-adv-x="1104" 
d="M786 0v131.001c-18.667 -20.667 -39.5 -40.334 -62.5 -59.001s-48.333 -35 -76 -49s-57.834 -25.167 -90.501 -33.5s-68 -12.5 -106 -12.5c-42 0 -83.667 5.66699 -125 17s-78.166 30.5 -110.499 57.5s-58.666 62.5 -78.999 106.5s-30.5 98.667 -30.5 164
c0 60 11.5 111.667 34.5 155s53.5 79 91.5 107s81.833 48.667 131.5 62s101.167 20 154.5 20c54.667 0 105 -6 151 -18s85 -26.667 117 -44v127c0 80.667 -19 140.5 -57 179.5s-96.667 58.5 -176 58.5c-56.667 0 -108.667 -7.33301 -156 -22s-93 -34.667 -137 -60l-57 125
c47.333 25.333 101.666 46 162.999 62s127 24 197 24c58 0 110.333 -6.5 157 -19.5s86.167 -33.5 118.5 -61.5s57.333 -64 75 -108s26.5 -97 26.5 -159v-750h-154zM786 481.001c-17.333 10 -35.334 18.8311 -54.001 26.498s-39 14.167 -61 19.5s-46.167 9.33301 -72.5 12
s-55.833 4 -88.5 4c-79.333 0 -141.166 -18.167 -185.499 -54.5s-66.5 -88.5 -66.5 -156.5c0 -40 5.33301 -74.5 16 -103.5s25.5 -52.833 44.5 -71.5s42 -32.5 69 -41.5s56.833 -13.5 89.5 -13.5c34.667 0 67.167 4.16699 97.5 12.5s58.5 19.833 84.5 34.5
s49.667 31.834 71 51.501s40 40.834 56 63.501v217z" />
    <glyph glyph-name="b" unicode="b" horiz-adv-x="1145" 
d="M1032 555c0 -95.333 -10.501 -179.001 -31.501 -251.001s-49.833 -132.333 -86.5 -181s-79.667 -85.167 -129 -109.5s-102 -36.5 -158 -36.5c-67.333 0 -125.333 13.167 -174 39.5s-91.667 61.166 -129 104.499v-121h-154v1407l154 86v-549
c18.667 20.667 39.167 40.334 61.5 59.001s46.833 35 73.5 49s55.667 25.167 87 33.5s65 12.5 101 12.5c54 0 104.333 -10.5 151 -31.5s87.334 -53.667 122.001 -98s62 -100.666 82 -168.999s30 -149.833 30 -244.5zM880.999 552.999c0 134 -23.998 236.167 -71.998 306.5
s-115 105.5 -201 105.5c-24 0 -49.333 -3.16699 -76 -9.5s-53.334 -17.5 -80.001 -33.5s-49.667 -32.667 -69 -50s-39 -38.333 -59 -63v-537c14.667 -22.667 32.167 -43.834 52.5 -63.501s42.666 -36.667 66.999 -51s50.833 -25.666 79.5 -33.999s59 -12.5 91 -12.5
c90 0 157 37.333 201 112s66 184.667 66 330z" />
    <glyph glyph-name="c" unicode="c" horiz-adv-x="1014" 
d="M911 127c-22.667 -23.333 -46.3369 -44.165 -71.0039 -62.498s-51 -34 -79 -47s-58.167 -23 -90.5 -30s-67.5 -10.5 -105.5 -10.5c-58.667 0 -115.167 11.333 -169.5 34s-102.5 57 -144.5 103s-75.5 103.833 -100.5 173.5s-37.5 151.167 -37.5 244.5
c0 99.333 13.5 184.666 40.5 255.999s62.333 130 106 176s93.167 79.833 148.5 101.5s111 32.5 167 32.5c73.333 0 137.833 -12 193.5 -36s104.5 -54.333 146.5 -91l-92 -115c-19.333 17.333 -38.666 32.833 -57.999 46.5s-39.166 25.167 -59.499 34.5s-42 16.333 -65 21
s-48.167 7 -75.5 7c-42 0 -81.167 -9.33301 -117.5 -28s-67.666 -45.834 -93.999 -81.501s-47.166 -79.667 -62.499 -132s-23 -111.833 -23 -178.5c0 -66 6.83301 -125.667 20.5 -179s33.5 -99 59.5 -137s57.833 -67.167 95.5 -87.5s80.167 -30.5 127.5 -30.5
c26 0 50.167 2.66699 72.5 8s43.333 12.833 63 22.5s38.667 21.5 57 35.5s36.833 30 55.5 48z" />
    <glyph glyph-name="d" unicode="d" horiz-adv-x="1145" 
d="M821 0l-0.00292969 131.003c-19.333 -20.667 -40.166 -40.334 -62.499 -59.001s-46.666 -35 -72.999 -49s-55.166 -25.167 -86.499 -33.5s-65 -12.5 -101 -12.5c-54 0 -104.333 10.5 -151 31.5s-87.334 53.667 -122.001 98s-62 100.666 -82 168.999
s-30 149.833 -30 244.5c0 95.333 10.5 179 31.5 251s49.833 132.333 86.5 181s79.667 85.167 129 109.5s102 36.5 158 36.5c34 0 65.333 -3.5 94 -10.5s55.334 -16.833 80.001 -29.5s47.5 -27.834 68.5 -45.501s41.167 -37.167 60.5 -58.5v453l154 86v-1493h-154z
M820.997 803.003c-14.667 22.667 -32.165 43.832 -52.498 63.499s-42.833 36.834 -67.5 51.501s-51.334 26.167 -80.001 34.5s-59 12.5 -91 12.5c-89.333 0 -156 -37.5 -200 -112.5s-66 -185.167 -66 -330.5c0 -70 6.66699 -131.333 20 -184s32.666 -96 57.999 -130
s54.333 -58.667 87 -74s68.667 -23 108 -23c31.333 0 59.333 3.66699 84 11s48.667 17.666 72 30.999s45.5 29.333 66.5 48s41.5 40.334 61.5 65.001v537z" />
    <glyph glyph-name="e" unicode="e" horiz-adv-x="1106" 
d="M989 569c0 -18.667 -0.499023 -34.1689 -1.49902 -46.502s-2.5 -24.833 -4.5 -37.5h-717c4 -57.333 13.5 -109 28.5 -155s35.167 -85.333 60.5 -118s55.666 -57.667 90.999 -75s75 -26 119 -26c31.333 0 59.833 2.16699 85.5 6.5s50 10.833 73 19.5
s45.667 19.334 68 32.001s45.833 27.334 70.5 44.001l72 -111c-32 -20.667 -62.5 -38.834 -91.5 -54.501s-58.5 -28.667 -88.5 -39s-61.5 -18.166 -94.5 -23.499s-69.833 -8 -110.5 -8c-32.667 0 -66.167 4.16699 -100.5 12.5s-67.666 21.833 -99.999 40.5
s-62.833 42.667 -91.5 72s-53.667 65 -75 107s-38.166 90.667 -50.499 146s-18.5 118 -18.5 188c0 85.333 11.167 162.333 33.5 231s53.166 127 92.499 175s86.166 84.833 140.499 110.5s113.5 38.5 177.5 38.5c70 0 132 -13.167 186 -39.5s99.167 -62.833 135.5 -109.5
s63.833 -102.5 82.5 -167.5s28 -135.833 28 -212.5zM846.001 609.998c-3.33301 52 -11.499 99.834 -24.499 143.501s-31.333 81.167 -55 112.5s-53.167 55.666 -88.5 72.999s-76.333 26 -123 26c-40 0 -76.667 -7.16699 -110 -21.5s-62.5 -36.333 -87.5 -66
s-45.333 -66.667 -61 -111s-25.834 -96.5 -30.501 -156.5h580z" />
    <glyph glyph-name="f" unicode="f" horiz-adv-x="729" 
d="M633 1323c-17.333 8 -36.3271 14.167 -56.9941 18.5s-43.334 6.5 -68.001 6.5c-16 0 -30.833 -1.66699 -44.5 -5s-25.334 -9.33301 -35.001 -18s-17.334 -20.167 -23.001 -34.5s-8.5 -32.833 -8.5 -55.5v-160h211v-129h-211v-946h-153v946h-148v129h148v148
c0 48 6.16699 88.667 18.5 122s29.666 60.5 51.999 81.5s49.166 36.333 80.499 46s65.666 14.5 102.999 14.5c30.667 0 56.167 -1.5 76.5 -4.5s39.833 -7.83301 58.5 -14.5v-145z" />
    <glyph glyph-name="g" unicode="g" horiz-adv-x="1145" 
d="M975 96c0 -76.667 -9.66895 -145.829 -29.002 -207.496s-51.333 -113.167 -96 -154.5c-41.333 -39.333 -99 -69.833 -173 -91.5s-167.333 -34.167 -280 -37.5l-39 125c102 0 183.167 6.66699 243.5 20s104.166 31.666 131.499 54.999c30 26 52.167 61.5 66.5 106.5
s21.5 99.833 21.5 164.5v55c-19.333 -20.667 -40.166 -40.334 -62.499 -59.001s-46.666 -35 -72.999 -49s-55.166 -25.167 -86.499 -33.5s-65 -12.5 -101 -12.5c-54 0 -104.333 10.5 -151 31.5s-87.334 53.667 -122.001 98s-62 100.666 -82 168.999s-30 149.833 -30 244.5
c0 95.333 10.5 179 31.5 251s49.833 132.333 86.5 181s79.667 85.167 129 109.5s102 36.5 158 36.5c34 0 65.333 -3.5 94 -10.5s55.334 -16.833 80.001 -29.5s47.5 -27.834 68.5 -45.501s41.167 -37.167 60.5 -58.5v121h154v-979zM536.998 111.005
c57.333 0 109.502 13.9971 156.502 41.9971s89.5 65.667 127.5 113v537c-14.667 22.667 -32.167 43.834 -52.5 63.501s-42.833 36.834 -67.5 51.501s-51.334 26.167 -80.001 34.5s-59 12.5 -91 12.5c-89.333 0 -156 -37.5 -200 -112.5s-66 -185.167 -66 -330.5
c0 -135.333 24.167 -237.666 72.5 -306.999s115.166 -104 200.499 -104z" />
    <glyph glyph-name="h" unicode="h" horiz-adv-x="1161" 
d="M844 0l-0.000976562 628.996c0 116 -20.667 201 -62 255s-105.333 81 -192 81c-37.333 0 -72.166 -6.5 -104.499 -19.5s-60.5 -33.167 -84.5 -60.5s-42.833 -62.166 -56.5 -104.499s-20.5 -92.833 -20.5 -151.5v-629h-154v1407l154 86v-549
c15.333 22.667 33 43.334 53 62.001s42.5 34.834 67.5 48.501s52.167 24.334 81.5 32.001s61 11.5 95 11.5c56.667 0 108.167 -8.5 154.5 -25.5s85.833 -43.5 118.5 -79.5s58 -82 76 -138s27 -122.667 27 -200v-655h-153z" />
    <glyph glyph-name="i" unicode="i" horiz-adv-x="514" 
d="M367 1376c0 -14.667 -2.83301 -28.5 -8.5 -41.5s-13.5 -24.5 -23.5 -34.5s-21.5 -17.833 -34.5 -23.5s-26.5 -8.5 -40.5 -8.5c-16 0 -30.833 2.83301 -44.5 8.5s-25.5 13.5 -35.5 23.5s-18 21.5 -24 34.5s-9 26.833 -9 41.5c0 15.333 3 29.833 9 43.5s14 25.5 24 35.5
s21.833 17.833 35.5 23.5s28.5 8.5 44.5 8.5c14 0 27.5 -2.83301 40.5 -8.5s24.5 -13.5 34.5 -23.5s17.833 -21.833 23.5 -35.5s8.5 -28.167 8.5 -43.5zM180 0v1075h154v-1075h-154z" />
    <glyph glyph-name="j" unicode="j" horiz-adv-x="514" 
d="M367 1376c0 -14.667 -2.83301 -28.5 -8.5 -41.5s-13.5 -24.5 -23.5 -34.5s-21.5 -17.833 -34.5 -23.5s-26.5 -8.5 -40.5 -8.5c-16 0 -30.833 2.83301 -44.5 8.5s-25.5 13.5 -35.5 23.5s-18 21.5 -24 34.5s-9 26.833 -9 41.5c0 15.333 3 29.833 9 43.5s14 25.5 24 35.5
s21.833 17.833 35.5 23.5s28.5 8.5 44.5 8.5c14 0 27.5 -2.83301 40.5 -8.5s24.5 -13.5 34.5 -23.5s17.833 -21.833 23.5 -35.5s8.5 -28.167 8.5 -43.5zM334 25c0 -61.333 -3.83496 -114.667 -11.502 -160s-23 -84.5 -46 -117.5s-55.167 -60.833 -96.5 -83.5
s-96 -42.334 -164 -59.001l-51 114c48.667 14.667 87.334 29.834 116.001 45.501s50.334 34.667 65.001 57s24 49.833 28 82.5s6 73.667 6 123v1048h154v-1050z" />
    <glyph glyph-name="k" unicode="k" horiz-adv-x="1034" 
d="M782 0l-272 565l-186 -256v-309h-154v1407l154 86v-980l395 562h172l-283 -381l340 -694h-166z" />
    <glyph glyph-name="l" unicode="l" horiz-adv-x="514" 
d="M180 0v1407l154 86v-1493h-154z" />
    <glyph glyph-name="m" unicode="m" horiz-adv-x="1737" 
d="M1419 0l0.000976562 628.994c0 61.333 -4.83301 113.333 -14.5 156s-24 77.334 -43 104.001s-43 46 -72 58s-62.833 18 -101.5 18c-36.667 0 -69.667 -6.33301 -99 -19s-54.5 -32.667 -75.5 -60s-37.167 -62.166 -48.5 -104.499s-17 -93.166 -17 -152.499v-629h-153v629
c0 61.333 -5 113.333 -15 156s-24.833 77.334 -44.5 104.001s-44 46 -73 58s-62.167 18 -99.5 18c-36.667 0 -69.834 -6.33301 -99.501 -19s-54.834 -32.667 -75.501 -60s-36.5 -62.166 -47.5 -104.499s-16.5 -93.166 -16.5 -152.499v-629h-154v1075h154v-131
c28 46 64.333 83.167 109 111.5s99 42.5 163 42.5c66 0 123.667 -15.167 173 -45.5s90 -76.833 122 -139.5c16 26 33.667 50.167 53 72.5s42 41.833 68 58.5s55.667 29.834 89 39.501s72 14.5 116 14.5c54.667 0 104 -8.33301 148 -25s81.333 -42.834 112 -78.501
s54.334 -81.5 71.001 -137.5s25 -123.333 25 -202v-655h-154z" />
    <glyph glyph-name="n" unicode="n" horiz-adv-x="1165" 
d="M844 0l-0.000976562 628.996c0 116 -20.667 201 -62 255s-105.333 81 -192 81c-37.333 0 -72.166 -6.5 -104.499 -19.5s-60.5 -33.167 -84.5 -60.5s-42.833 -62.166 -56.5 -104.499s-20.5 -92.833 -20.5 -151.5v-629h-154v1075h154v-131
c15.333 22.667 33 43.334 53 62.001s42.5 34.834 67.5 48.501s52.167 24.334 81.5 32.001s61 11.5 95 11.5c56.667 0 108.167 -8.5 154.5 -25.5s85.833 -43.5 118.5 -79.5s58 -82 76 -138s27 -122.667 27 -200v-655h-153z" />
    <glyph glyph-name="o" unicode="o" horiz-adv-x="1159" 
d="M1047 545c0 -91.333 -12.335 -172.332 -37.002 -242.999s-58.167 -130 -100.5 -178s-92.166 -84.5 -149.499 -109.5s-119 -37.5 -185 -37.5c-65.333 0 -126.166 12 -182.499 36s-105.166 59.667 -146.499 107s-73.833 105.833 -97.5 175.5s-35.5 150.167 -35.5 241.5
c0 90.667 12.167 171 36.5 241s57.833 128.667 100.5 176s92.667 83.166 150 107.499s118.666 36.5 183.999 36.5s126.166 -11.667 182.499 -35s105.333 -58.333 147 -105s74.334 -104.5 98.001 -173.5s35.5 -148.833 35.5 -239.5zM892.998 541.001
c0 70.667 -7.66699 132.5 -23 185.5s-36.666 97.167 -63.999 132.5s-60.166 61.833 -98.499 79.5s-80.833 26.5 -127.5 26.5s-89.167 -8.83301 -127.5 -26.5s-71.166 -44.167 -98.499 -79.5s-48.5 -79.5 -63.5 -132.5s-22.5 -114.833 -22.5 -185.5
s7.5 -132.834 22.5 -186.501s36.167 -98.5 63.5 -134.5s60.166 -63.167 98.499 -81.5s80.833 -27.5 127.5 -27.5s89.167 9.16699 127.5 27.5s71.166 45.5 98.499 81.5s48.666 80.833 63.999 134.5s23 115.834 23 186.501z" />
    <glyph glyph-name="p" unicode="p" horiz-adv-x="1145" 
d="M1032 555c0 -95.333 -10.502 -179 -31.502 -251s-49.833 -132.333 -86.5 -181s-79.667 -85.167 -129 -109.5s-102 -36.5 -158 -36.5c-67.333 0 -125.333 13.167 -174 39.5s-91.667 61.166 -129 104.499v-430l-154 -86v1470h154v-131c43.333 48.667 92.333 86.5 147 113.5
s113.334 40.5 176.001 40.5c54 0 104.333 -10.5 151 -31.5s87.334 -53.667 122.001 -98s62 -100.666 82 -168.999s30 -149.833 30 -244.5zM880.998 553c0 132 -23.8311 233.667 -71.498 305s-114.834 107 -201.501 107c-55.333 0 -107 -14 -155 -42s-91 -66 -129 -114v-537
c14.667 -22.667 32.167 -43.834 52.5 -63.501s42.666 -36.667 66.999 -51s50.833 -25.666 79.5 -33.999s59 -12.5 91 -12.5c90 0 157 37.333 201 112s66 184.667 66 330z" />
    <glyph glyph-name="q" unicode="q" horiz-adv-x="1145" 
d="M821 -395l0.000976562 526.002c-45.333 -49.333 -94.333 -87.333 -147 -114s-111.334 -40 -176.001 -40c-54 0 -104.333 10.5 -151 31.5s-87.334 53.667 -122.001 98s-62 100.666 -82 168.999s-30 149.833 -30 244.5c0 95.333 10.5 179 31.5 251s49.833 132.333 86.5 181
s79.667 85.167 129 109.5s102 36.5 158 36.5c34 0 65.333 -3.5 94 -10.5s55.334 -16.833 80.001 -29.5s47.5 -27.834 68.5 -45.501s41.167 -37.167 60.5 -58.5v121h154v-1384zM821.001 803.002c-14.667 22.667 -32.165 43.8311 -52.498 63.498s-42.833 36.834 -67.5 51.501
s-51.334 26.167 -80.001 34.5s-59 12.5 -91 12.5c-89.333 0 -156 -37.5 -200 -112.5s-66 -185.167 -66 -330.5c0 -135.333 24.167 -237.666 72.5 -306.999s115.166 -104 200.499 -104c57.333 0 109.5 14 156.5 42s89.5 65.667 127.5 113v537z" />
    <glyph glyph-name="r" unicode="r" horiz-adv-x="834" 
d="M719 915c-21.333 12.667 -44.6689 22.667 -70.002 30s-56 11 -92 11c-74.667 0 -132.167 -28.5 -172.5 -85.5s-60.5 -136.833 -60.5 -239.5v-631h-154v1075h154v-133c12 21.333 27.333 41.5 46 60.5s39.5 35.5 62.5 49.5s47.833 25.167 74.5 33.5
s54.334 12.5 83.001 12.5c40 0 73.333 -2.5 100 -7.5s49.334 -11.5 68.001 -19.5z" />
    <glyph glyph-name="s" unicode="s" horiz-adv-x="956" 
d="M809 983l-85.9971 -112.997c-46 36 -88.5 61.167 -127.5 75.5s-85.833 21.5 -140.5 21.5c-56.667 0 -100.667 -12.5 -132 -37.5s-47 -56.833 -47 -95.5c0 -22.667 3.83301 -42.5 11.5 -59.5s20.667 -33.167 39 -48.5s42.833 -30.833 73.5 -46.5
s68.667 -33.834 114 -54.501c50.667 -23.333 96 -45.333 136 -66s73.667 -43.667 101 -69s48.333 -54.5 63 -87.5s22 -73.5 22 -121.5c0 -52.667 -10.5 -98.167 -31.5 -136.5s-48.833 -69.833 -83.5 -94.5s-74 -43 -118 -55s-89.333 -18 -136 -18
c-74.667 0 -143.667 12.667 -207 38s-120.666 58.666 -171.999 99.999l90 112c43.333 -38 89.666 -67.167 138.999 -87.5s100.666 -30.5 153.999 -30.5c74 0 128.667 14.5 164 43.5s53 69.5 53 121.5c0 22 -4.33301 42 -13 60s-22.834 35.5 -42.501 52.5s-45.667 34 -78 51
s-72.5 35.833 -120.5 56.5c-54 22.667 -100.167 44.667 -138.5 66s-69.833 44.166 -94.5 68.499s-42.834 52 -54.501 83s-17.5 68.167 -17.5 111.5c0 40.667 8.33301 78 25 112s40 63 70 87s65.5 42.667 106.5 56s85.833 20 134.5 20c74 0 139.5 -10.667 196.5 -32
s106.167 -49 147.5 -83z" />
    <glyph glyph-name="t" unicode="t" horiz-adv-x="762" 
d="M616 14c-30 -12 -60.1719 -21.1689 -90.5049 -27.502s-66.166 -9.5 -107.499 -9.5c-33.333 0 -62.666 4.33301 -87.999 13s-46.666 22.667 -63.999 42s-30.5 44.5 -39.5 75.5s-13.5 68.833 -13.5 113.5v725h-133v129h133v332l154 86v-418h266v-129h-266v-700
c0 -24 1.83301 -44.167 5.5 -60.5s9.66699 -29.666 18 -39.999s19.333 -17.666 33 -21.999s30.834 -6.5 51.501 -6.5c31.333 0 58.333 2.5 81 7.5s46.334 12.5 71.001 22.5z" />
    <glyph glyph-name="u" unicode="u" horiz-adv-x="1161" 
d="M838 0v131c-31.333 -46 -72 -83.167 -122 -111.5s-108.333 -42.5 -175 -42.5c-121.333 0 -214.5 37.5 -279.5 112.5s-97.5 185.167 -97.5 330.5v655h153v-629c0 -116 20.667 -200.833 62 -254.5s105.333 -80.5 192 -80.5c82 0 147 28.667 195 86s72 140.333 72 249v629
h153v-1075h-153z" />
    <glyph glyph-name="v" unicode="v" horiz-adv-x="1069" 
d="M602 0h-135l-385 1075h164l291 -897l290 897h160z" />
    <glyph glyph-name="w" unicode="w" horiz-adv-x="1495" 
d="M1114 0h-141l-228 846l-227 -846h-137l-285 1075h158l199 -840l227 840h139l228 -840l198 840h154z" />
    <glyph glyph-name="x" unicode="x" horiz-adv-x="1032" 
d="M758 0l-246 430l-248 -430h-160l332 555l-309 520h170l223 -392l225 392h160l-309 -516l332 -559h-170z" />
    <glyph glyph-name="y" unicode="y" horiz-adv-x="1087" 
d="M471 -379h-154l148 391l-383 1063h162l299 -891l301 891h162z" />
    <glyph glyph-name="z" unicode="z" horiz-adv-x="1008" 
d="M111 0v113l587 833h-540v129h714v-112l-587 -834h587v-129h-761z" />
    <glyph glyph-name="braceleft" unicode="{" horiz-adv-x="813" 
d="M705 -225c-144.667 4 -250.5 41.5 -317.5 112.5s-100.5 178.833 -100.5 323.5v176c0 30 -2 54.5 -6 73.5s-10.667 34 -20 45s-21.833 18.667 -37.5 23s-34.834 6.5 -57.501 6.5h-49v143h49c22.667 0 41.834 2.16699 57.501 6.5s28.167 12 37.5 23s16 26 20 45
s6 43.167 6 72.5v183c0 144 33.5 251.667 100.5 323s172.833 109 317.5 113v-129c-48 -5.33301 -88.833 -14.5 -122.5 -27.5s-61.167 -31 -82.5 -54s-37 -51.667 -47 -86s-15 -74.833 -15 -121.5v-143c0 -42.667 -2 -79.167 -6 -109.5s-10.667 -56.166 -20 -77.499
s-21.666 -39.333 -36.999 -54s-34.666 -27.334 -57.999 -38.001c23.333 -10.667 42.666 -23.167 57.999 -37.5s27.666 -32.333 36.999 -54s16 -47.5 20 -77.5s6 -66.333 6 -109v-133c0 -47.333 5 -88 15 -122s25.667 -62.5 47 -85.5s48.833 -41.167 82.5 -54.5
s74.5 -22.333 122.5 -27v-129z" />
    <glyph glyph-name="bar" unicode="|" horiz-adv-x="623" 
d="M238 -379v2017h147v-2017h-147z" />
    <glyph glyph-name="braceright" unicode="}" horiz-adv-x="813" 
d="M647 541c-23.333 0 -42.666 -2.16699 -57.999 -6.5s-27.666 -12 -36.999 -23s-16 -26 -20 -45s-6 -43.5 -6 -73.5v-182c0 -144.667 -33.5 -252.5 -100.5 -323.5s-172.5 -108.5 -316.5 -112.5v129c47.333 4.66699 87.833 13.667 121.5 27s61.167 31.5 82.5 54.5
s37 51.5 47 85.5s15 74.667 15 122v143c0 42.667 2 79 6 109s10.667 55.833 20 77.5s21.666 39.667 36.999 54s34.666 26.833 57.999 37.5c-23.333 10.667 -42.666 23.334 -57.999 38.001s-27.666 32.667 -36.999 54s-16 47.166 -20 77.499s-6 66.833 -6 109.5v133
c0 46.667 -5 87.167 -15 121.5s-25.667 63 -47 86s-48.833 41 -82.5 54s-74.167 22.167 -121.5 27.5v129c144 -4 249.5 -41.667 316.5 -113s100.5 -179 100.5 -323v-177c0 -29.333 2 -53.5 6 -72.5s10.667 -34 20 -45s21.666 -18.667 36.999 -23s34.666 -6.5 57.999 -6.5h49
v-143h-49z" />
    <glyph glyph-name="asciitilde" unicode="~" horiz-adv-x="1130" 
d="M1042 864c-17.333 -43.333 -35.499 -81.001 -54.499 -113.001s-40 -58.833 -63 -80.5s-48.833 -37.834 -77.5 -48.501s-61 -16 -97 -16c-20.667 0 -39.5 1.66699 -56.5 5s-33 8.16602 -48 14.499s-29.667 13.833 -44 22.5l-44.5 28c-42 28 -76.667 48.333 -104 61
s-51.333 19 -72 19c-18.667 0 -35 -3 -49 -9s-27 -15.5 -39 -28.5s-23.5 -29.667 -34.5 -50s-22.833 -45.166 -35.5 -74.499l-135 61c17.333 42.667 35.666 80.167 54.999 112.5s40.5 59.333 63.5 81s48.833 37.834 77.5 48.501s61 16 97 16
c19.333 0 37.166 -1.5 53.499 -4.5s32 -7.5 47 -13.5s30 -13.333 45 -22s30.5 -18.334 46.5 -29.001c24.667 -16 53.167 -33.167 85.5 -51.5s62.833 -27.833 91.5 -28.5c18 0 33.833 2.66699 47.5 8s26.334 14.333 38.001 27s23 29.334 34 50.001s23.5 46.334 37.5 77.001z
" />
    <glyph glyph-name="exclamdown" unicode="&#xa1;" horiz-adv-x="539" 
d="M395 1331c0 -16.667 -3.33301 -32.834 -10 -48.501s-15.667 -29.5 -27 -41.5s-24.666 -21.5 -39.999 -28.5s-31.333 -10.5 -48 -10.5c-16 0 -31.667 3.5 -47 10.5s-28.666 16.5 -39.999 28.5s-20.5 25.833 -27.5 41.5s-10.5 31.834 -10.5 48.501s3.5 32.667 10.5 48
s16.167 28.666 27.5 39.999s24.666 20.333 39.999 27s31 10 47 10c16.667 0 32.667 -3.33301 48 -10s28.666 -15.667 39.999 -27s20.333 -24.666 27 -39.999s10 -31.333 10 -48zM190 0v674l37 375h86l35 -375v-674h-158z" />
    <glyph glyph-name="cent" unicode="&#xa2;" 
d="M1032 1032c-25.333 22.667 -50.3369 42.002 -75.0039 58.002s-50 29.167 -76 39.5s-53.667 17.833 -83 22.5s-61.333 7 -96 7c-56.667 0 -109.334 -9.66699 -158.001 -29s-90.834 -47 -126.501 -83s-63.667 -79.5 -84 -130.5s-30.5 -108.167 -30.5 -171.5
c0 -68.667 9.83301 -130.334 29.5 -185.001s47.334 -101 83.001 -139s78.334 -67.167 128.001 -87.5s104.834 -30.5 165.501 -30.5c68.667 0 129 11.5 181 34.5s96.667 54.5 134 94.5l98 -88c-46.667 -50.667 -98.167 -89.167 -154.5 -115.5
s-122.166 -43.166 -197.499 -50.499v-201h-158v201c-72 8.66699 -136.667 28 -194 58s-106.166 68.833 -146.499 116.5s-71.166 103.167 -92.499 166.5s-32 132.666 -32 207.999c0 78.667 12 150 36 214s56.833 119.667 98.5 167s90.834 85.666 147.501 114.999
s117.667 49 183 59v193h158v-187c81.333 -6 151.666 -22.333 210.999 -49s110 -60 152 -100z" />
    <glyph glyph-name="sterling" unicode="&#xa3;" 
d="M182 0l0.00390625 143.002c30.667 35.333 58.334 69.666 83.001 102.999s45.667 68 63 104s30.666 74.167 39.999 114.5s14.333 85.5 15 135.5h-201v139h178c-8 21.333 -17.833 42.5 -29.5 63.5l-37.5 65.5c-12 18.667 -22.333 36.667 -31 54
s-15.834 34.833 -21.501 52.5s-10 36.5 -13 56.5s-4.5 42.333 -4.5 67c0 58 11.833 109.167 35.5 153.5s56.167 81.666 97.5 111.999s89.833 53.333 145.5 69s115.834 23.5 180.501 23.5c88.667 0 168.667 -15.333 240 -46s138.666 -74.667 201.999 -132l-96 -117
c-51.333 50 -105.833 87.833 -163.5 113.5s-119.834 38.5 -186.501 38.5c-50 0 -93.5 -5.83301 -130.5 -17.5s-67.833 -27.167 -92.5 -46.5s-43.167 -41.833 -55.5 -67.5s-18.5 -52.834 -18.5 -81.501c0 -33.333 5.5 -64.833 16.5 -94.5s27.167 -62.5 48.5 -98.5
c13.333 -22.667 26.666 -48 39.999 -76s24.666 -58.667 33.999 -92h311v-139h-296c-2 -52 -8 -99.833 -18 -143.5s-22.833 -84 -38.5 -121s-33.5 -71.167 -53.5 -102.5s-41 -60.666 -63 -87.999h779v-145h-959z" />
    <glyph glyph-name="currency" unicode="&#xa4;" horiz-adv-x="1139" 
d="M217 961l-139 136l115 119l139 -139c70.667 48 149.667 72 237 72c88 0 167 -24 237 -72l139 139l116 -119l-139 -136c47.333 -73.333 71 -151.666 71 -234.999c0 -84 -23.667 -162.667 -71 -236l139 -136l-116 -119l-139 140c-70 -48.667 -149 -73 -237 -73
c-87.333 0 -166.333 24.333 -237 73l-139 -140l-115 119l139 136c-47.333 73.333 -71 152 -71 236c0 83.333 23.667 161.666 71 234.999zM309 726c0 -72 25.333 -133.333 76 -184s111.667 -76 183 -76s132.333 25.333 183 76s76 112 76 184
c0 71.333 -25.167 132.333 -75.5 183s-111.5 76 -183.5 76c-71.333 0 -132.333 -25.333 -183 -76s-76 -111.667 -76 -183z" />
    <glyph glyph-name="yen" unicode="&#xa5;" 
d="M715 567v-157h346v-142h-346v-268h-160v268h-346v142h346v155l-485 869h184l382 -721l384 721h180z" />
    <glyph glyph-name="brokenbar" unicode="&#xa6;" horiz-adv-x="623" 
d="M238 1638h147v-874h-147v874zM238 496h147v-875h-147v875z" />
    <glyph glyph-name="section" unicode="&#xa7;" horiz-adv-x="1286" 
d="M1174 549c0 -41.333 -6.50391 -79.499 -19.5039 -114.499s-31 -67 -54 -96s-49.833 -55.5 -80.5 -79.5s-64 -46 -100 -66c34.667 -27.333 61.667 -58.5 81 -93.5s29 -76.5 29 -124.5c0 -47.333 -9.83301 -90.166 -29.5 -128.499s-47 -71 -82 -98
s-76.833 -47.833 -125.5 -62.5s-102 -22 -160 -22c-78 0 -148.833 12.833 -212.5 38.5s-124.5 62.167 -182.5 109.5l94 114c51.333 -44 101.5 -74.833 150.5 -92.5s107.167 -26.5 174.5 -26.5c64 0 115.833 14.5 155.5 43.5s59.5 66.5 59.5 112.5c0 22.667 -4.5 44 -13.5 64
s-24.5 38.667 -46.5 56s-51.833 33.666 -89.5 48.999s-85.167 30 -142.5 44c-90 22.667 -164.833 46.334 -224.5 71.001s-107.5 52.5 -143.5 83.5s-61.5 66 -76.5 105s-22.5 84.167 -22.5 135.5c0 41.333 6.5 79.5 19.5 114.5s30.833 67.167 53.5 96.5s49.5 56 80.5 80
s64.5 46 100.5 66c-35.333 26.667 -62.666 57.667 -81.999 93s-29 76.666 -29 123.999s9.83301 90.166 29.5 128.499s47 71 82 98s76.833 47.833 125.5 62.5s102 22 160 22c78 0 148.833 -12.833 212.5 -38.5s124.834 -61.834 183.501 -108.501l-95 -115
c-47.333 40.667 -95.166 70.667 -143.499 90s-108.833 29 -181.5 29c-31.333 0 -60.166 -3.66699 -86.499 -11s-49 -17.833 -68 -31.5s-33.833 -30.167 -44.5 -49.5s-16 -40.666 -16 -63.999s4.5 -44.833 13.5 -64.5s24.667 -38.167 47 -55.5s52.333 -33.666 90 -48.999
s85.167 -30 142.5 -44c89.333 -22.667 164 -46.334 224 -71.001s108 -52.5 144 -83.5s61.5 -66 76.5 -105s22.5 -84.167 22.5 -135.5zM1016 537.001c0 28.667 -3.99902 55.1699 -11.999 79.5029s-23.833 46.833 -47.5 67.5s-56.667 40 -99 58s-97.5 35.667 -165.5 53
c-36 9.33301 -70.167 18.666 -102.5 27.999s-63.5 20.333 -93.5 33c-71.333 -32.667 -126.833 -72.334 -166.5 -119.001s-59.5 -97.667 -59.5 -153c0 -29.333 4.16699 -56.166 12.5 -80.499s24.166 -46.833 47.499 -67.5s56.166 -40 98.499 -58s97.5 -35.333 165.5 -52
c36 -9.33301 70.333 -18.833 103 -28.5s64 -20.834 94 -33.501c70.667 33.333 125.834 73.166 165.501 119.499s59.5 97.5 59.5 153.5z" />
    <glyph glyph-name="dieresis" unicode="&#xa8;" horiz-adv-x="1024" 
d="M823 1348c0 -15.333 -3 -29.833 -9 -43.5s-14 -25.667 -24 -36s-21.833 -18.5 -35.5 -24.5s-28.167 -9 -43.5 -9s-29.833 3 -43.5 9s-25.667 14.167 -36 24.5s-18.5 22.333 -24.5 36s-9 28.167 -9 43.5s3 29.833 9 43.5s14.167 25.834 24.5 36.501s22.333 19 36 25
s28.167 9 43.5 9s29.833 -3 43.5 -9s25.5 -14.333 35.5 -25s18 -22.834 24 -36.501s9 -28.167 9 -43.5zM426 1348c0 -15.333 -3 -29.833 -9 -43.5s-14 -25.667 -24 -36s-21.833 -18.5 -35.5 -24.5s-27.834 -9 -42.501 -9c-16 0 -30.833 3 -44.5 9s-25.667 14.167 -36 24.5
s-18.5 22.333 -24.5 36s-9 28.167 -9 43.5s3 29.833 9 43.5s14.167 25.834 24.5 36.501s22.333 19 36 25s28.5 9 44.5 9c14.667 0 28.834 -3 42.501 -9s25.5 -14.333 35.5 -25s18 -22.834 24 -36.501s9 -28.167 9 -43.5z" />
    <glyph glyph-name="copyright" unicode="&#xa9;" horiz-adv-x="1712" 
d="M1595 717c0 -110 -18.833 -210.5 -56.5 -301.5s-89.5 -169 -155.5 -234s-144.167 -115.333 -234.5 -151s-187.833 -53.5 -292.5 -53.5c-105.333 0 -203 17.833 -293 53.5s-168 86 -234 151s-117.833 143 -155.5 234s-56.5 191.5 -56.5 301.5s18.833 210.333 56.5 301
s89.5 168.5 155.5 233.5s144 115.333 234 151s187.667 53.5 293 53.5c104.667 0 202.167 -17.833 292.5 -53.5s168.5 -86 234.5 -151s117.833 -142.833 155.5 -233.5s56.5 -191 56.5 -301zM1495 717c0 95.333 -16.333 182.5 -49 261.5s-77.5 147 -134.5 204
s-124.5 101.167 -202.5 132.5s-162.333 47 -253 47s-174.834 -15.667 -252.501 -47s-145.167 -75.5 -202.5 -132.5s-102.333 -125 -135 -204s-49 -166.167 -49 -261.5s16.333 -182.5 49 -261.5s77.667 -147 135 -204s124.833 -101.167 202.5 -132.5s161.834 -47 252.501 -47
s175 15.667 253 47s145.5 75.5 202.5 132.5s101.833 125 134.5 204s49 166.167 49 261.5zM1049 936c-26.667 34.667 -54.1631 60.6699 -82.4961 78.0029s-64.5 26 -108.5 26c-34 0 -65 -7.83301 -93 -23.5s-52.333 -37.834 -73 -66.501s-36.667 -62.667 -48 -102
s-17 -82.333 -17 -129c0 -48 5.83301 -91.833 17.5 -131.5s27.667 -74 48 -103s44.666 -51.5 72.999 -67.5s59.166 -24 92.499 -24c43.333 0 80.5 9.16699 111.5 27.5s61.5 46.166 91.5 83.499l80 -70c-34 -45.333 -74.5 -80.5 -121.5 -105.5s-101.5 -37.5 -163.5 -37.5
c-51.333 0 -97.833 10.833 -139.5 32.5s-77.334 51.5 -107.001 89.5s-52.667 82.833 -69 134.5s-24.5 107.5 -24.5 167.5c0 61.333 8.33301 118.166 25 170.499s40.167 97.5 70.5 135.5s66.666 67.833 108.999 89.5s88.833 32.5 139.5 32.5
c58.667 0 110.167 -11.333 154.5 -34s84.5 -57.667 120.5 -105z" />
    <glyph glyph-name="ordfeminine" unicode="&#xaa;" horiz-adv-x="766" 
d="M602 750c0 -30 -5.66699 -58.333 -17 -85s-27 -50 -47 -70s-43.333 -35.833 -70 -47.5s-55 -17.5 -85 -17.5s-58.333 5.83301 -85 17.5s-50 27.5 -70 47.5s-35.667 43.333 -47 70s-17 55 -17 85s5.66699 58.5 17 85.5s27 50.667 47 71s43.333 36.5 70 48.5s55 18 85 18
s58.333 -6 85 -18s50 -28.167 70 -48.5s35.667 -44 47 -71s17 -55.5 17 -85.5z" />
    <glyph glyph-name="guillemotleft" unicode="&#xab;" horiz-adv-x="1180" 
d="M913 0l-415 537l415 538h174l-415 -536l415 -539h-174zM477 0l-416 537l416 538h174l-415 -536l415 -539h-174z" />
    <glyph glyph-name="logicalnot" unicode="&#xac;" 
d="M1113 219h-150v416h-806v139h956v-555z" />
    <glyph glyph-name="registered" unicode="&#xae;" horiz-adv-x="1712" 
d="M1595 717c0 -110 -18.833 -210.5 -56.5 -301.5s-89.5 -169 -155.5 -234s-144.167 -115.333 -234.5 -151s-187.833 -53.5 -292.5 -53.5c-105.333 0 -203 17.833 -293 53.5s-168 86 -234 151s-117.833 143 -155.5 234s-56.5 191.5 -56.5 301.5s18.833 210.333 56.5 301
s89.5 168.5 155.5 233.5s144 115.333 234 151s187.667 53.5 293 53.5c104.667 0 202.167 -17.833 292.5 -53.5s168.5 -86 234.5 -151s117.833 -142.833 155.5 -233.5s56.5 -191 56.5 -301zM1495 717c0 95.333 -16.333 182.5 -49 261.5s-77.5 147 -134.5 204
s-124.5 101.167 -202.5 132.5s-162.333 47 -253 47s-174.834 -15.667 -252.501 -47s-145.167 -75.5 -202.5 -132.5s-102.333 -125 -135 -204s-49 -166.167 -49 -261.5s16.333 -182.5 49 -261.5s77.667 -147 135 -204s124.833 -101.167 202.5 -132.5s161.834 -47 252.501 -47
s175 15.667 253 47s145.5 75.5 202.5 132.5s101.833 125 134.5 204s49 166.167 49 261.5zM1184 903c0 -62 -17 -112.668 -51 -152.001s-80 -65.666 -138 -78.999l183 -350h-127l-177 342h-176v-342h-108v817h332c36.667 0 71 -4.66699 103 -14s59.667 -23.666 83 -42.999
s41.833 -43.833 55.5 -73.5s20.5 -64.834 20.5 -105.501zM1075 902.999c0 46 -13.667 80.667 -41 104s-67 35 -119 35h-217v-276h205c58.667 0 102 11 130 33s42 56.667 42 104z" />
    <glyph glyph-name="macron" unicode="&#xaf;" horiz-adv-x="1024" 
d="M233 1266v143h558v-143h-558z" />
    <glyph glyph-name="macron" unicode="&#x2c9;" horiz-adv-x="1024" 
d="M233 1266v143h558v-143h-558z" />
    <glyph glyph-name="degree" unicode="&#xb0;" horiz-adv-x="975" 
d="M870 1065c0 -56 -9.5 -108.167 -28.5 -156.5s-45.333 -90.166 -79 -125.499s-74 -63 -121 -83s-98.5 -30 -154.5 -30c-55.333 0 -106.333 10 -153 30s-87 47.667 -121 83s-60.667 77.166 -80 125.499s-29 100.5 -29 156.5c0 54.667 9.66699 105.834 29 153.501
s46 89 80 124s74.333 62.667 121 83s97.667 30.5 153 30.5c56 0 107.5 -10.167 154.5 -30.5s87.333 -48 121 -83s60 -76.333 79 -124s28.5 -98.834 28.5 -153.501zM735 1065c0 38 -5.83301 73.167 -17.5 105.5s-28.334 60.166 -50.001 83.499s-47.834 41.666 -78.501 54.999
s-64.667 20 -102 20c-36.667 0 -70.167 -6.66699 -100.5 -20s-56.333 -31.666 -78 -54.999s-38.5 -51.166 -50.5 -83.499s-18 -67.5 -18 -105.5c0 -40 6 -76.5 18 -109.5s28.833 -61.167 50.5 -84.5s47.667 -41.5 78 -54.5s63.833 -19.5 100.5 -19.5
c37.333 0 71.333 6.5 102 19.5s56.834 31.167 78.501 54.5s38.334 51.5 50.001 84.5s17.5 69.5 17.5 109.5z" />
    <glyph glyph-name="plusminus" unicode="&#xb1;" 
d="M710 655v-395h-150v395h-403v140h403v395h150v-395h403v-140h-403zM157 59v140h956v-140h-956z" />
    <glyph glyph-name="twosuperior" unicode="&#xb2;" horiz-adv-x="885" 
d="M135 532c2.66699 63.333 11.3379 117.835 26.0049 163.502s34.334 86.167 59.001 121.5s54.167 67.166 88.5 95.499s72.833 57.166 115.5 86.499l86 61.5c22.667 17 40.667 33 54 48s22.666 29.667 27.999 44s8 30.833 8 49.5c0 37.333 -13.167 66.5 -39.5 87.5
s-63.5 31.5 -111.5 31.5c-22.667 0 -43.334 -2 -62.001 -6s-36.167 -9.66699 -52.5 -17s-32.333 -16.666 -48 -27.999s-31.834 -24.333 -48.501 -39l-86 110c22.667 18.667 44.834 35.167 66.501 49.5s44.167 26.333 67.5 36s48.666 17 75.999 22s57.666 7.5 90.999 7.5
c41.333 0 79.666 -5.16699 114.999 -15.5s66 -25.833 92 -46.5s46.333 -46.667 61 -78s22 -68 22 -110c0 -34 -3.83301 -63.667 -11.5 -89s-20.334 -49.5 -38.001 -72.5s-40.834 -46 -69.501 -69s-64 -48.5 -106 -76.5c-36.667 -25.333 -67.667 -47.833 -93 -67.5
s-46.333 -38.334 -63 -56.001s-29.667 -34.5 -39 -50.5s-16.666 -33 -21.999 -51h451v-142h-617z" />
    <glyph glyph-name="threesuperior" unicode="&#xb3;" horiz-adv-x="829" 
d="M381 520c-56.667 0 -110.497 12.999 -161.497 38.999s-96.833 61 -137.5 105l98 98c33.333 -35.333 66.333 -62 99 -80s68 -27 106 -27c62 0 107.833 12.667 137.5 38s44.5 62 44.5 110c0 46 -16.5 80.333 -49.5 103s-76.5 34 -130.5 34h-80v131h84
c47.333 0 82.666 11.667 105.999 35s35 54.666 35 93.999c0 38.667 -13 68.5 -39 89.5s-64 31.5 -114 31.5c-32 0 -61.333 -7.33301 -88 -22s-54 -36 -82 -64l-96 96c34 35.333 73.167 65 117.5 89s94.5 36 150.5 36c41.333 0 80 -5.16699 116 -15.5
s67.167 -25.666 93.5 -45.999s47.166 -45.666 62.499 -75.999s23 -65.833 23 -106.5c0 -46 -8 -84.5 -24 -115.5s-38 -57.167 -66 -78.5c17.333 -8 33.5 -18.333 48.5 -31s28.167 -27.667 39.5 -45s20.333 -37.333 27 -60s10 -48.334 10 -77.001
c0 -44.667 -7.5 -84.667 -22.5 -120s-36.833 -65.166 -65.5 -89.499s-63.334 -43 -104.001 -56s-86.667 -19.5 -138 -19.5z" />
    <glyph glyph-name="acute" unicode="&#xb4;" horiz-adv-x="1024" 
d="M477 1219h-121l211 327h219z" />
    <glyph glyph-name="mu" unicode="&#xb5;" horiz-adv-x="1167" 
d="M844 0l-0.00195312 130.997c-31.333 -45.333 -71.666 -82.333 -120.999 -111s-108 -43 -176 -43c-52.667 0 -97.667 6.33301 -135 19s-66.666 26.667 -87.999 42v-347l-154 -86v1470h154v-629c0 -57.333 5.33301 -107.666 16 -150.999s27.5 -79.166 50.5 -107.499
s50.333 -48.166 82 -59.499s66.834 -17 105.501 -17c37.333 0 72.166 6.5 104.499 19.5s60.5 33 84.5 60s42.833 61.667 56.5 104s20.5 92.833 20.5 151.5v629h153v-1075h-153z" />
    <glyph glyph-name="paragraph" unicode="&#xb6;" horiz-adv-x="1409" 
d="M1061 -379l0.00195312 1673h-187v-1673h-157v914h-156c-63.333 0 -123 9.83301 -179 29.5s-105.333 48.667 -148 87s-76.334 85.5 -101.001 141.5s-37 120 -37 192s12.5 135.833 37.5 191.5s58.667 102.5 101 140.5s91.666 67 147.999 87s115.833 30 178.5 30h658v-1813
h-158z" />
    <glyph glyph-name="periodcentered" unicode="&#xb7;" horiz-adv-x="492" 
d="M377 752c0 -18 -3.5 -35 -10.5 -51s-16.5 -29.833 -28.5 -41.5s-26 -21 -42 -28s-32.667 -10.5 -50 -10.5c-18 0 -35 3.5 -51 10.5s-29.833 16.333 -41.5 28s-21 25.5 -28 41.5s-10.5 33 -10.5 51s3.5 35 10.5 51s16.333 30.333 28 43s25.5 22.667 41.5 30s33 11 51 11
c17.333 0 34 -3.66699 50 -11s30 -17.333 42 -30s21.5 -27 28.5 -43s10.5 -33 10.5 -51z" />
    <glyph glyph-name="periodcentered" unicode="&#x2219;" horiz-adv-x="492" 
d="M377 752c0 -18 -3.5 -35 -10.5 -51s-16.5 -29.833 -28.5 -41.5s-26 -21 -42 -28s-32.667 -10.5 -50 -10.5c-18 0 -35 3.5 -51 10.5s-29.833 16.333 -41.5 28s-21 25.5 -28 41.5s-10.5 33 -10.5 51s3.5 35 10.5 51s16.333 30.333 28 43s25.5 22.667 41.5 30s33 11 51 11
c17.333 0 34 -3.66699 50 -11s30 -17.333 42 -30s21.5 -27 28.5 -43s10.5 -33 10.5 -51z" />
    <glyph glyph-name="cedilla" unicode="&#xb8;" horiz-adv-x="1024" 
d="M457 0h91.998l-35 -104c14.667 9.33301 31 16.333 49 21s39.333 7 64 7c14 0 29 -2.5 45 -7.5s30.833 -13 44.5 -24s25 -25.5 34 -43.5s13.5 -40 13.5 -66c0 -33.333 -6.5 -61.333 -19.5 -84s-30.667 -41 -53 -55s-48.166 -24 -77.499 -30s-60.333 -9 -93 -9
c-42 0 -83.833 6.33301 -125.5 19s-80.5 30.667 -116.5 54l39 66c56.667 -36.667 119.334 -55 188.001 -55c47.333 0 82 7.66699 104 23s33 37 33 65c0 20.667 -5.5 37 -16.5 49s-27.167 18 -48.5 18c-40 0 -72.667 -12.333 -98 -37l-74 29z" />
    <glyph glyph-name="onesuperior" unicode="&#xb9;" horiz-adv-x="705" 
d="M317 1210h-155v107c26 2 49.333 5 70 9s38.667 10.167 54 18.5s27.833 19.5 37.5 33.5s16.5 32 20.5 54h117v-910h-144v688z" />
    <glyph glyph-name="ordmasculine" unicode="&#xba;" horiz-adv-x="983" 
d="M872 1014c0 -72.667 -9.83105 -137.17 -29.498 -193.503s-46.834 -103.666 -81.501 -141.999s-75.334 -67.5 -122.001 -87.5s-97.334 -30 -152.001 -30c-54 0 -103.833 9.66699 -149.5 29s-85.334 47.833 -119.001 85.5s-60 84.334 -79 140.001
s-28.5 119.834 -28.5 192.501s9.83301 137 29.5 193s46.834 102.833 81.501 140.5s75.5 66.167 122.5 85.5s97.5 29 151.5 29s103.833 -9.33301 149.5 -28s85.334 -46.5 119.001 -83.5s60 -83 79 -138s28.5 -119.167 28.5 -192.5zM733.002 1012
c0 54 -5.83301 101.167 -17.5 141.5s-28 73.833 -49 100.5s-46.333 46.5 -76 59.5s-62.5 19.5 -98.5 19.5c-36.667 0 -69.834 -6.5 -99.501 -19.5s-55 -32.833 -76 -59.5s-37.333 -60.167 -49 -100.5s-17.5 -87.5 -17.5 -141.5c0 -54.667 5.83301 -102.5 17.5 -143.5
s28 -75.167 49 -102.5s46.333 -47.833 76 -61.5s62.834 -20.5 99.501 -20.5c36 0 68.833 6.83301 98.5 20.5s55 34.167 76 61.5s37.333 61.5 49 102.5s17.5 88.833 17.5 143.5z" />
    <glyph glyph-name="guillemotright" unicode="&#xbb;" horiz-adv-x="1180" 
d="M702 0h-174l416 537l-416 538h174l416 -536zM266 0h-174l416 537l-416 538h174l416 -536z" />
    <glyph glyph-name="onequarter" unicode="&#xbc;" horiz-adv-x="1905" 
d="M352 1210h-155v107c26 2 49.333 5 70 9s38.667 10.167 54 18.5s27.833 19.5 37.5 33.5s16.5 32 20.5 54h117v-910h-144v688zM507 0h-167l976 1434h168zM1443 205h-459v112l459 594h137v-573h119v-133h-119v-203h-137v203zM1443 338v358l-279 -358h279z" />
    <glyph glyph-name="onehalf" unicode="&#xbd;" horiz-adv-x="1905" 
d="M346 1210h-155v107c26 2 49.333 5 70 9s38.667 10.167 54 18.5s27.833 19.5 37.5 33.5s16.5 32 20.5 54h117v-910h-144v688zM446 0h-167l976 1434h168zM1097 1c2.66699 63.333 11.3379 117.835 26.0049 163.502s34.334 86.167 59.001 121.5s54.167 67.166 88.5 95.499
s72.833 57.166 115.5 86.499l86 61.5c22.667 17 40.667 33 54 48s22.666 29.667 27.999 44s8 30.833 8 49.5c0 37.333 -13.167 66.5 -39.5 87.5s-63.5 31.5 -111.5 31.5c-22.667 0 -43.334 -2 -62.001 -6s-36.167 -9.66699 -52.5 -17s-32.333 -16.666 -48 -27.999
s-31.834 -24.333 -48.501 -39l-86 110c22.667 18.667 44.834 35.167 66.501 49.5s44.167 26.333 67.5 36s48.666 17 75.999 22s57.666 7.5 90.999 7.5c41.333 0 79.666 -5.16699 114.999 -15.5s66 -25.833 92 -46.5s46.333 -46.667 61 -78s22 -68 22 -110
c0 -34 -3.83301 -63.667 -11.5 -89s-20.334 -49.5 -38.001 -72.5s-40.834 -46 -69.501 -69s-64 -48.5 -106 -76.5c-36.667 -25.333 -67.667 -47.833 -93 -67.5s-46.333 -38.334 -63 -56.001s-29.667 -34.5 -39 -50.5s-16.666 -33 -21.999 -51h451v-142h-617z" />
    <glyph glyph-name="threequarters" unicode="&#xbe;" horiz-adv-x="1905" 
d="M444 520c-56.667 0 -110.497 12.999 -161.497 38.999s-96.833 61 -137.5 105l98 98c33.333 -35.333 66.333 -62 99 -80s68 -27 106 -27c62 0 107.833 12.667 137.5 38s44.5 62 44.5 110c0 46 -16.5 80.333 -49.5 103s-76.5 34 -130.5 34h-80v131h84
c47.333 0 82.666 11.667 105.999 35s35 54.666 35 93.999c0 38.667 -13 68.5 -39 89.5s-64 31.5 -114 31.5c-32 0 -61.333 -7.33301 -88 -22s-54 -36 -82 -64l-96 96c34 35.333 73.167 65 117.5 89s94.5 36 150.5 36c41.333 0 80 -5.16699 116 -15.5
s67.167 -25.666 93.5 -45.999s47.166 -45.666 62.499 -75.999s23 -65.833 23 -106.5c0 -46 -8 -84.5 -24 -115.5s-38 -57.167 -66 -78.5c17.333 -8 33.5 -18.333 48.5 -31s28.167 -27.667 39.5 -45s20.333 -37.333 27 -60s10 -48.334 10 -77.001
c0 -44.667 -7.5 -84.667 -22.5 -120s-36.833 -65.166 -65.5 -89.499s-63.334 -43 -104.001 -56s-86.667 -19.5 -138 -19.5zM625.003 -0.000976562h-167l976 1434h168zM1503 204.999h-459v112l459 594h137v-573h119v-133h-119v-203h-137v203zM1503 337.999v358l-279 -358h279
z" />
    <glyph glyph-name="questiondown" unicode="&#xbf;" horiz-adv-x="1149" 
d="M754 1331c0 -16.667 -3.33301 -32.834 -10 -48.501s-15.834 -29.5 -27.501 -41.5s-25 -21.5 -40 -28.5s-30.833 -10.5 -47.5 -10.5s-32.5 3.5 -47.5 10.5s-28.333 16.5 -40 28.5s-20.834 25.833 -27.501 41.5s-10 31.834 -10 48.501s3.33301 32.667 10 48
s15.834 28.666 27.501 39.999s25 20.333 40 27s30.833 10 47.5 10s32.5 -3.33301 47.5 -10s28.333 -15.667 40 -27s20.834 -24.666 27.501 -39.999s10 -31.333 10 -48zM1059 168c-27.333 -26.667 -58.002 -51.6689 -92.002 -75.002s-71 -43.5 -111 -60.5
s-83.167 -30.5 -129.5 -40.5s-95.166 -15 -146.499 -15c-65.333 0 -125.166 7.33301 -179.499 22s-101 36.834 -140 66.501s-69.333 66.5 -91 110.5s-32.5 95.333 -32.5 154c0 49.333 5.66699 91.833 17 127.5s28 67.334 50 95.001s48.667 53 80 76s67 46.833 107 71.5
c34 20.667 61.333 40.5 82 59.5s36.5 41 47.5 66s18.167 55 21.5 90s5 79.5 5 133.5h158c0 -46 -1 -86.333 -3 -121s-6 -65.667 -12 -93s-14.5 -51.833 -25.5 -73.5s-25.5 -42.334 -43.5 -62.001s-39.833 -39 -65.5 -58s-56.5 -39.5 -92.5 -61.5
c-26.667 -16.667 -50.334 -32.834 -71.001 -48.501s-38 -32.667 -52 -51s-24.667 -38.666 -32 -60.999s-11 -48.166 -11 -77.499c0 -64 26.333 -116.5 79 -157.5s122.667 -61.5 210 -61.5c38 0 73.667 3.66699 107 11s65 17.666 95 30.999s58.833 29.833 86.5 49.5
s54.834 41.834 81.501 66.501z" />
    <glyph glyph-name="Agrave" unicode="&#xc0;" horiz-adv-x="1389" 
d="M1280 0h-168l-123 365h-592l-125 -365h-163l497 1434h176zM940 510l-246 733l-248 -733h494zM637 1526l-309 327h219l211 -327h-121z" />
    <glyph glyph-name="Aacute" unicode="&#xc1;" horiz-adv-x="1389" 
d="M1280 0h-168l-123 365h-592l-125 -365h-163l497 1434h176zM940 510l-246 733l-248 -733h494zM749 1526h-121l211 327h219z" />
    <glyph glyph-name="Acircumflex" unicode="&#xc2;" horiz-adv-x="1389" 
d="M1280 0h-168l-123 365h-592l-125 -365h-163l497 1434h176zM940 510l-246 733l-248 -733h494zM899 1485l-207 211l-207 -211h-129l252 327h172l252 -327h-133z" />
    <glyph glyph-name="Atilde" unicode="&#xc3;" horiz-adv-x="1389" 
d="M1280 0h-168l-123 365h-592l-125 -365h-163l497 1434h176zM940 510l-246 733l-248 -733h494zM1059 1798c0 -45.333 -5.66797 -84.666 -17.001 -117.999s-26.666 -61 -45.999 -83s-41.666 -38.333 -66.999 -49s-51.666 -16 -78.999 -16s-53.166 4 -77.499 12
s-49 21.5 -74 40.5l-56 42.5c-12.333 9.33301 -21.833 16 -28.5 20c-14.667 10 -27.834 17.167 -39.501 21.5s-24.5 6.5 -38.5 6.5c-22 0 -39.333 -10.667 -52 -32s-22 -56.333 -28 -105h-127c0 45.333 5.66699 84.666 17 117.999s26.666 61 45.999 83
s41.666 38.333 66.999 49s51.666 16 78.999 16s53.166 -4 77.499 -12s49 -21.5 74 -40.5l56 -42.5c12.333 -9.33301 21.833 -16 28.5 -20c14.667 -10 27.834 -17.167 39.501 -21.5s24.5 -6.5 38.5 -6.5c21.333 0 38.333 10.833 51 32.5s22.334 56.5 29.001 104.5h127z" />
    <glyph glyph-name="Adieresis" unicode="&#xc4;" horiz-adv-x="1389" 
d="M1280 0h-168l-123 365h-592l-125 -365h-163l497 1434h176zM940 510l-246 733l-248 -733h494zM1007 1655c0 -15.333 -3 -29.833 -9 -43.5s-14 -25.667 -24 -36s-21.833 -18.5 -35.5 -24.5s-28.167 -9 -43.5 -9s-29.833 3 -43.5 9s-25.667 14.167 -36 24.5
s-18.5 22.333 -24.5 36s-9 28.167 -9 43.5s3 29.833 9 43.5s14.167 25.834 24.5 36.501s22.333 19 36 25s28.167 9 43.5 9s29.833 -3 43.5 -9s25.5 -14.333 35.5 -25s18 -22.834 24 -36.501s9 -28.167 9 -43.5zM610 1655c0 -15.333 -3 -29.833 -9 -43.5s-14 -25.667 -24 -36
s-21.833 -18.5 -35.5 -24.5s-27.834 -9 -42.501 -9c-16 0 -30.833 3 -44.5 9s-25.667 14.167 -36 24.5s-18.5 22.333 -24.5 36s-9 28.167 -9 43.5s3 29.833 9 43.5s14.167 25.834 24.5 36.501s22.333 19 36 25s28.5 9 44.5 9c14.667 0 28.834 -3 42.501 -9
s25.5 -14.333 35.5 -25s18 -22.834 24 -36.501s9 -28.167 9 -43.5z" />
    <glyph glyph-name="Aring" unicode="&#xc5;" horiz-adv-x="1389" 
d="M1112 0l-122.999 365h-592l-125 -365h-163l471 1348c-39.333 20.667 -70.333 49.667 -93 87s-34 80 -34 128c0 33.333 6 64.333 18 93s28.5 53.667 49.5 75s46.167 38.166 75.5 50.499s61.333 18.5 96 18.5s66.667 -6.16699 96 -18.5s54.666 -29.166 75.999 -50.499
s38 -46.333 50 -75s18 -59.667 18 -93c0 -46.667 -11.333 -88.667 -34 -126s-53 -66.333 -91 -87l473 -1350h-168zM836.001 1563c0 21.333 -3.33301 41.166 -10 59.499s-16.334 34 -29.001 47s-27.834 23.167 -45.501 30.5s-37.5 11 -59.5 11s-41.833 -3.66699 -59.5 -11
s-32.667 -17.5 -45 -30.5s-21.833 -28.667 -28.5 -47s-10 -38.166 -10 -59.499s3.33301 -41.166 10 -59.499s16.167 -34 28.5 -47s27.333 -23.167 45 -30.5s37.5 -11 59.5 -11s41.833 3.66699 59.5 11s32.834 17.5 45.501 30.5s22.334 28.667 29.001 47s10 38.166 10 59.499
zM940.001 510l-246 733l-248 -733h494z" />
    <glyph glyph-name="AE" unicode="&#xc6;" horiz-adv-x="2044" 
d="M1896 1434v-146h-714v-450h575v-146h-575v-547h745v-145h-897v365h-559l-240 -365h-182l963 1434h884zM565 510h465v706z" />
    <glyph glyph-name="Ccedilla" unicode="&#xc7;" horiz-adv-x="1286" 
d="M1042 1130c-23.333 31.333 -46.502 58.334 -69.502 81.001s-47.5 41.5 -73.5 56.5s-54.5 26 -85.5 33s-65.833 10.5 -104.5 10.5c-61.333 0 -117.833 -14.5 -169.5 -43.5s-96.167 -69.667 -133.5 -122s-66.5 -114.833 -87.5 -187.5s-31.5 -152.334 -31.5 -239.001
c0 -87.333 10.667 -167.5 32 -240.5s51 -135.833 89 -188.5s82.833 -93.667 134.5 -123s107.834 -44 168.501 -44c77.333 0 144.166 16.5 200.499 49.5s107.5 79.167 153.5 138.5l111 -96c-26 -35.333 -55.333 -67.5 -88 -96.5s-68.5 -54 -107.5 -75
s-81.333 -37.333 -127 -49s-94.5 -17.5 -146.5 -17.5c-58.667 0 -113.667 8.5 -165 25.5s-98.5 41.167 -141.5 72.5s-81.333 69.166 -115 113.499s-62.334 93.833 -86.001 148.5s-41.667 113.834 -54 177.501s-18.5 130.5 -18.5 200.5c0 106.667 14.333 205.167 43 295.5
s68.834 168.5 120.501 234.5s113.334 117.667 185.001 155s150.834 56 237.501 56c98.667 0 185.167 -18.667 259.5 -56s139.833 -95 196.5 -173zM641.998 0.000976562h91.998l-35 -104c14.667 9.33301 31 16.333 49 21s39.333 7 64 7c14 0 29 -2.5 45 -7.5
s30.833 -13 44.5 -24s25 -25.5 34 -43.5s13.5 -40 13.5 -66c0 -33.333 -6.5 -61.333 -19.5 -84s-30.667 -41 -53 -55s-48.166 -24 -77.499 -30s-60.333 -9 -93 -9c-42 0 -83.833 6.33301 -125.5 19s-80.5 30.667 -116.5 54l39 66c56.667 -36.667 119.334 -55 188.001 -55
c47.333 0 82 7.66699 104 23s33 37 33 65c0 20.667 -5.5 37 -16.5 49s-27.167 18 -48.5 18c-40 0 -72.667 -12.333 -98 -37l-74 29z" />
    <glyph glyph-name="Egrave" unicode="&#xc8;" horiz-adv-x="1202" 
d="M1085 0h-897v1434h867v-146h-707v-450h572v-146h-572v-547h737v-145zM610 1526l-309 327h219l211 -327h-121z" />
    <glyph glyph-name="Eacute" unicode="&#xc9;" horiz-adv-x="1202" 
d="M1085 0h-897v1434h867v-146h-707v-450h572v-146h-572v-547h737v-145zM643 1526h-121l211 327h219z" />
    <glyph glyph-name="Ecircumflex" unicode="&#xca;" horiz-adv-x="1202" 
d="M1085 0h-897v1434h867v-146h-707v-450h572v-146h-572v-547h737v-145zM826 1526l-207 211l-207 -211h-129l252 327h172l252 -327h-133z" />
    <glyph glyph-name="Edieresis" unicode="&#xcb;" horiz-adv-x="1202" 
d="M1085 0h-897v1434h867v-146h-707v-450h572v-146h-572v-547h737v-145zM934 1655c0 -15.333 -3 -29.833 -9 -43.5s-14 -25.667 -24 -36s-21.833 -18.5 -35.5 -24.5s-28.167 -9 -43.5 -9s-29.833 3 -43.5 9s-25.667 14.167 -36 24.5s-18.5 22.333 -24.5 36
s-9 28.167 -9 43.5s3 29.833 9 43.5s14.167 25.834 24.5 36.501s22.333 19 36 25s28.167 9 43.5 9s29.833 -3 43.5 -9s25.5 -14.333 35.5 -25s18 -22.834 24 -36.501s9 -28.167 9 -43.5zM537 1655c0 -15.333 -3 -29.833 -9 -43.5s-14 -25.667 -24 -36
s-21.833 -18.5 -35.5 -24.5s-27.834 -9 -42.501 -9c-16 0 -30.833 3 -44.5 9s-25.667 14.167 -36 24.5s-18.5 22.333 -24.5 36s-9 28.167 -9 43.5s3 29.833 9 43.5s14.167 25.834 24.5 36.501s22.333 19 36 25s28.5 9 44.5 9c14.667 0 28.834 -3 42.501 -9
s25.5 -14.333 35.5 -25s18 -22.834 24 -36.501s9 -28.167 9 -43.5z" />
    <glyph glyph-name="Igrave" unicode="&#xcc;" horiz-adv-x="557" 
d="M199 0v1434h159v-1434h-159zM234 1526l-309 327h219l211 -327h-121z" />
    <glyph glyph-name="Iacute" unicode="&#xcd;" horiz-adv-x="557" 
d="M199 0v1434h159v-1434h-159zM329 1526h-121l211 327h219z" />
    <glyph glyph-name="Icircumflex" unicode="&#xce;" horiz-adv-x="557" 
d="M199 0v1434h159v-1434h-159zM479 1516l-207 211l-207 -211h-129l252 327h172l252 -327h-133z" />
    <glyph glyph-name="Idieresis" unicode="&#xcf;" horiz-adv-x="557" 
d="M199 0v1434h159v-1434h-159zM589 1663c0 -15.333 -3 -29.833 -9 -43.5s-14 -25.667 -24 -36s-21.833 -18.5 -35.5 -24.5s-28.167 -9 -43.5 -9s-29.833 3 -43.5 9s-25.667 14.167 -36 24.5s-18.5 22.333 -24.5 36s-9 28.167 -9 43.5s3 29.833 9 43.5
s14.167 25.834 24.5 36.501s22.333 19 36 25s28.167 9 43.5 9s29.833 -3 43.5 -9s25.5 -14.333 35.5 -25s18 -22.834 24 -36.501s9 -28.167 9 -43.5zM192 1663c0 -15.333 -3 -29.833 -9 -43.5s-14 -25.667 -24 -36s-21.833 -18.5 -35.5 -24.5s-27.834 -9 -42.501 -9
c-16 0 -30.833 3 -44.5 9s-25.667 14.167 -36 24.5s-18.5 22.333 -24.5 36s-9 28.167 -9 43.5s3 29.833 9 43.5s14.167 25.834 24.5 36.501s22.333 19 36 25s28.5 9 44.5 9c14.667 0 28.834 -3 42.501 -9s25.5 -14.333 35.5 -25s18 -22.834 24 -36.501s9 -28.167 9 -43.5z
" />
    <glyph glyph-name="Eth" unicode="&#xd0;" horiz-adv-x="1397" 
d="M1241 727c0 -130 -17.5 -241.001 -52.5 -333.001s-83.167 -167.167 -144.5 -225.5s-133.5 -101 -216.5 -128s-172.5 -40.5 -268.5 -40.5h-350v678h-127v143h127v613h379c94 0 181 -13.833 261 -41.5s149 -70.167 207 -127.5s103.333 -130.666 136 -219.999
s49 -195.333 49 -318zM1081 720.999c0 91.333 -10.8311 172.334 -32.498 243.001s-53.834 130 -96.501 178s-95.5 84.333 -158.5 109s-135.833 37 -218.5 37h-210v-467h290v-143h-290v-533h215c77.333 0 146.833 10.667 208.5 32s114.167 55.166 157.5 101.499
s76.666 105.833 99.999 178.5s35 160.667 35 264z" />
    <glyph glyph-name="Ntilde" unicode="&#xd1;" horiz-adv-x="1409" 
d="M1221 0h-150l-729 1141v-1141h-154v1434h156l723 -1164v1164h154v-1434zM1080 1806c0 -45.333 -5.66797 -84.666 -17.001 -117.999s-26.666 -61 -45.999 -83s-41.666 -38.333 -66.999 -49s-51.666 -16 -78.999 -16s-53.166 4 -77.499 12s-49 21.5 -74 40.5l-56 42.5
c-12.333 9.33301 -21.833 16 -28.5 20c-14.667 10 -27.834 17.167 -39.501 21.5s-24.5 6.5 -38.5 6.5c-22 0 -39.333 -10.667 -52 -32s-22 -56.333 -28 -105h-127c0 45.333 5.66699 84.666 17 117.999s26.666 61 45.999 83s41.666 38.333 66.999 49s51.666 16 78.999 16
s53.166 -4 77.499 -12s49 -21.5 74 -40.5l56 -42.5c12.333 -9.33301 21.833 -16 28.5 -20c14.667 -10 27.834 -17.167 39.501 -21.5s24.5 -6.5 38.5 -6.5c21.333 0 38.333 10.833 51 32.5s22.334 56.5 29.001 104.5h127z" />
    <glyph glyph-name="Ograve" unicode="&#xd2;" horiz-adv-x="1444" 
d="M1317 719c0 -108 -14.498 -207.333 -43.498 -298s-69.667 -169 -122 -235s-115.333 -117.333 -189 -154s-154.834 -55 -243.501 -55c-89.333 0 -170.333 18.167 -243 54.5s-134.834 87.166 -186.501 152.499s-91.667 143.166 -120 233.499s-42.5 189.5 -42.5 297.5
s14.333 207.333 43 298s69.167 168.834 121.5 234.501s115 116.834 188 153.501s154.167 55 243.5 55c88.667 0 169.5 -18.167 242.5 -54.5s135.5 -87 187.5 -152s92.333 -142.667 121 -233s43 -189.5 43 -297.5zM1157 715c0 90 -11.1689 171.666 -33.502 244.999
s-53.166 136 -92.499 188s-85.833 92.167 -139.5 120.5s-111.834 42.5 -174.501 42.5c-62 0 -119.333 -14 -172 -42s-98 -67.667 -136 -119s-67.833 -113.5 -89.5 -186.5s-32.5 -154.5 -32.5 -244.5s11.167 -171.667 33.5 -245s53 -136 92 -188s85.167 -92.167 138.5 -120.5
s111.333 -42.5 174 -42.5c62 0 119.333 13.833 172 41.5s98.334 67.334 137.001 119.001s68.834 114 90.501 187s32.5 154.5 32.5 244.5zM682 1526l-309 327h219l211 -327h-121z" />
    <glyph glyph-name="Oacute" unicode="&#xd3;" horiz-adv-x="1444" 
d="M1317 719c0 -108 -14.498 -207.333 -43.498 -298s-69.667 -169 -122 -235s-115.333 -117.333 -189 -154s-154.834 -55 -243.501 -55c-89.333 0 -170.333 18.167 -243 54.5s-134.834 87.166 -186.501 152.499s-91.667 143.166 -120 233.499s-42.5 189.5 -42.5 297.5
s14.333 207.333 43 298s69.167 168.834 121.5 234.501s115 116.834 188 153.501s154.167 55 243.5 55c88.667 0 169.5 -18.167 242.5 -54.5s135.5 -87 187.5 -152s92.333 -142.667 121 -233s43 -189.5 43 -297.5zM1157 715c0 90 -11.1689 171.666 -33.502 244.999
s-53.166 136 -92.499 188s-85.833 92.167 -139.5 120.5s-111.834 42.5 -174.501 42.5c-62 0 -119.333 -14 -172 -42s-98 -67.667 -136 -119s-67.833 -113.5 -89.5 -186.5s-32.5 -154.5 -32.5 -244.5s11.167 -171.667 33.5 -245s53 -136 92 -188s85.167 -92.167 138.5 -120.5
s111.333 -42.5 174 -42.5c62 0 119.333 13.833 172 41.5s98.334 67.334 137.001 119.001s68.834 114 90.501 187s32.5 154.5 32.5 244.5zM756 1526h-121l211 327h219z" />
    <glyph glyph-name="Ocircumflex" unicode="&#xd4;" horiz-adv-x="1444" 
d="M1317 719c0 -108 -14.498 -207.333 -43.498 -298s-69.667 -169 -122 -235s-115.333 -117.333 -189 -154s-154.834 -55 -243.501 -55c-89.333 0 -170.333 18.167 -243 54.5s-134.834 87.166 -186.501 152.499s-91.667 143.166 -120 233.499s-42.5 189.5 -42.5 297.5
s14.333 207.333 43 298s69.167 168.834 121.5 234.501s115 116.834 188 153.501s154.167 55 243.5 55c88.667 0 169.5 -18.167 242.5 -54.5s135.5 -87 187.5 -152s92.333 -142.667 121 -233s43 -189.5 43 -297.5zM1157 715c0 90 -11.1689 171.666 -33.502 244.999
s-53.166 136 -92.499 188s-85.833 92.167 -139.5 120.5s-111.834 42.5 -174.501 42.5c-62 0 -119.333 -14 -172 -42s-98 -67.667 -136 -119s-67.833 -113.5 -89.5 -186.5s-32.5 -154.5 -32.5 -244.5s11.167 -171.667 33.5 -245s53 -136 92 -188s85.167 -92.167 138.5 -120.5
s111.333 -42.5 174 -42.5c62 0 119.333 13.833 172 41.5s98.334 67.334 137.001 119.001s68.834 114 90.501 187s32.5 154.5 32.5 244.5zM924 1516l-207 211l-207 -211h-129l252 327h172l252 -327h-133z" />
    <glyph glyph-name="Otilde" unicode="&#xd5;" horiz-adv-x="1444" 
d="M1317 719c0 -108 -14.498 -207.333 -43.498 -298s-69.667 -169 -122 -235s-115.333 -117.333 -189 -154s-154.834 -55 -243.501 -55c-89.333 0 -170.333 18.167 -243 54.5s-134.834 87.166 -186.501 152.499s-91.667 143.166 -120 233.499s-42.5 189.5 -42.5 297.5
s14.333 207.333 43 298s69.167 168.834 121.5 234.501s115 116.834 188 153.501s154.167 55 243.5 55c88.667 0 169.5 -18.167 242.5 -54.5s135.5 -87 187.5 -152s92.333 -142.667 121 -233s43 -189.5 43 -297.5zM1157 715c0 90 -11.1689 171.666 -33.502 244.999
s-53.166 136 -92.499 188s-85.833 92.167 -139.5 120.5s-111.834 42.5 -174.501 42.5c-62 0 -119.333 -14 -172 -42s-98 -67.667 -136 -119s-67.833 -113.5 -89.5 -186.5s-32.5 -154.5 -32.5 -244.5s11.167 -171.667 33.5 -245s53 -136 92 -188s85.167 -92.167 138.5 -120.5
s111.333 -42.5 174 -42.5c62 0 119.333 13.833 172 41.5s98.334 67.334 137.001 119.001s68.834 114 90.501 187s32.5 154.5 32.5 244.5zM1084 1798c0 -45.333 -5.66797 -84.666 -17.001 -117.999s-26.666 -61 -45.999 -83s-41.666 -38.333 -66.999 -49
s-51.666 -16 -78.999 -16s-53.166 4 -77.499 12s-49 21.5 -74 40.5l-56 42.5c-12.333 9.33301 -21.833 16 -28.5 20c-14.667 10 -27.834 17.167 -39.501 21.5s-24.5 6.5 -38.5 6.5c-22 0 -39.333 -10.667 -52 -32s-22 -56.333 -28 -105h-127
c0 45.333 5.66699 84.666 17 117.999s26.666 61 45.999 83s41.666 38.333 66.999 49s51.666 16 78.999 16s53.166 -4 77.499 -12s49 -21.5 74 -40.5l56 -42.5c12.333 -9.33301 21.833 -16 28.5 -20c14.667 -10 27.834 -17.167 39.501 -21.5s24.5 -6.5 38.5 -6.5
c21.333 0 38.333 10.833 51 32.5s22.334 56.5 29.001 104.5h127z" />
    <glyph glyph-name="Odieresis" unicode="&#xd6;" horiz-adv-x="1444" 
d="M1317 719c0 -108 -14.498 -207.333 -43.498 -298s-69.667 -169 -122 -235s-115.333 -117.333 -189 -154s-154.834 -55 -243.501 -55c-89.333 0 -170.333 18.167 -243 54.5s-134.834 87.166 -186.501 152.499s-91.667 143.166 -120 233.499s-42.5 189.5 -42.5 297.5
s14.333 207.333 43 298s69.167 168.834 121.5 234.501s115 116.834 188 153.501s154.167 55 243.5 55c88.667 0 169.5 -18.167 242.5 -54.5s135.5 -87 187.5 -152s92.333 -142.667 121 -233s43 -189.5 43 -297.5zM1157 715c0 90 -11.1689 171.666 -33.502 244.999
s-53.166 136 -92.499 188s-85.833 92.167 -139.5 120.5s-111.834 42.5 -174.501 42.5c-62 0 -119.333 -14 -172 -42s-98 -67.667 -136 -119s-67.833 -113.5 -89.5 -186.5s-32.5 -154.5 -32.5 -244.5s11.167 -171.667 33.5 -245s53 -136 92 -188s85.167 -92.167 138.5 -120.5
s111.333 -42.5 174 -42.5c62 0 119.333 13.833 172 41.5s98.334 67.334 137.001 119.001s68.834 114 90.501 187s32.5 154.5 32.5 244.5zM1032 1655c0 -15.333 -3 -29.833 -9 -43.5s-14 -25.667 -24 -36s-21.833 -18.5 -35.5 -24.5s-28.167 -9 -43.5 -9s-29.833 3 -43.5 9
s-25.667 14.167 -36 24.5s-18.5 22.333 -24.5 36s-9 28.167 -9 43.5s3 29.833 9 43.5s14.167 25.834 24.5 36.501s22.333 19 36 25s28.167 9 43.5 9s29.833 -3 43.5 -9s25.5 -14.333 35.5 -25s18 -22.834 24 -36.501s9 -28.167 9 -43.5zM635 1655
c0 -15.333 -3 -29.833 -9 -43.5s-14 -25.667 -24 -36s-21.833 -18.5 -35.5 -24.5s-27.834 -9 -42.501 -9c-16 0 -30.833 3 -44.5 9s-25.667 14.167 -36 24.5s-18.5 22.333 -24.5 36s-9 28.167 -9 43.5s3 29.833 9 43.5s14.167 25.834 24.5 36.501s22.333 19 36 25
s28.5 9 44.5 9c14.667 0 28.834 -3 42.501 -9s25.5 -14.333 35.5 -25s18 -22.834 24 -36.501s9 -28.167 9 -43.5z" />
    <glyph glyph-name="multiply" unicode="&#xd7;" 
d="M1018 225l-383 387l-383 -387l-96 97l387 383l-387 382l96 97l383 -387l383 387l96 -97l-387 -382l387 -383z" />
    <glyph glyph-name="Oslash" unicode="&#xd8;" horiz-adv-x="1444" 
d="M1317 719c0 -108 -14.499 -207.334 -43.499 -298.001s-69.667 -169 -122 -235s-115.333 -117.333 -189 -154s-154.834 -55 -243.501 -55c-89.333 0 -174 20 -254 60l-64 -139h-141l98 213c-74 66 -131 150.5 -171 253.5s-60 219.833 -60 350.5
c0 108 14.333 207.333 43 298s69.167 168.834 121.5 234.501s115 116.834 188 153.501s154.167 55 243.5 55c81.333 0 157 -15.667 227 -47l58 127h141l-88 -195c40 -31.333 75.833 -68.333 107.5 -111s58.5 -90.5 80.5 -143.5s38.833 -110.333 50.5 -172
s17.5 -126.834 17.5 -195.501zM889.001 1276c-53.333 27.333 -110.667 41.002 -172 41.002c-62.667 0 -120.5 -14.167 -173.5 -42.5s-99 -68.5 -138 -120.5s-69.5 -114.833 -91.5 -188.5s-33 -155.834 -33 -246.501c0 -98 12.833 -185.833 38.5 -263.5
s61.167 -142.834 106.5 -195.501zM1163 715.001c0 106 -14.999 200 -44.999 282s-71 149 -123 201l-469 -1026c59.333 -36.667 125.666 -55 198.999 -55c62.667 0 120.667 14 174 42s99.5 68 138.5 120s69.667 114.833 92 188.5s33.5 156.167 33.5 247.5z" />
    <glyph glyph-name="Ugrave" unicode="&#xd9;" horiz-adv-x="1389" 
d="M1210 582c0 -110 -12.8311 -203.832 -38.498 -281.499s-60.834 -139.834 -105.501 -186.501s-97.334 -81.167 -158.001 -103.5s-131.334 -33.5 -212.001 -33.5s-151.667 11.167 -213 33.5s-114.666 56.833 -159.999 103.5s-80.833 108.834 -106.5 186.501
s-38.5 171.5 -38.5 281.5v852h160v-848c0 -156 30 -272.167 90 -348.5s152.333 -114.5 277 -114.5c122 0 210.167 37.167 264.5 111.5s81.5 190.166 81.5 347.499v852h159v-852zM656.002 1495l-309 327h219l211 -327h-121z" />
    <glyph glyph-name="Uacute" unicode="&#xda;" horiz-adv-x="1389" 
d="M1210 582c0 -110 -12.8311 -203.832 -38.498 -281.499s-60.834 -139.834 -105.501 -186.501s-97.334 -81.167 -158.001 -103.5s-131.334 -33.5 -212.001 -33.5s-151.667 11.167 -213 33.5s-114.666 56.833 -159.999 103.5s-80.833 108.834 -106.5 186.501
s-38.5 171.5 -38.5 281.5v852h160v-848c0 -156 30 -272.167 90 -348.5s152.333 -114.5 277 -114.5c122 0 210.167 37.167 264.5 111.5s81.5 190.166 81.5 347.499v852h159v-852zM729.002 1495h-121l211 327h219z" />
    <glyph glyph-name="Ucircumflex" unicode="&#xdb;" horiz-adv-x="1389" 
d="M1210 582c0 -110 -12.8311 -203.832 -38.498 -281.499s-60.834 -139.834 -105.501 -186.501s-97.334 -81.167 -158.001 -103.5s-131.334 -33.5 -212.001 -33.5s-151.667 11.167 -213 33.5s-114.666 56.833 -159.999 103.5s-80.833 108.834 -106.5 186.501
s-38.5 171.5 -38.5 281.5v852h160v-848c0 -156 30 -272.167 90 -348.5s152.333 -114.5 277 -114.5c122 0 210.167 37.167 264.5 111.5s81.5 190.166 81.5 347.499v852h159v-852zM899.002 1526l-207 211l-207 -211h-129l252 327h172l252 -327h-133z" />
    <glyph glyph-name="Udieresis" unicode="&#xdc;" horiz-adv-x="1389" 
d="M1210 582c0 -110 -12.8311 -203.832 -38.498 -281.499s-60.834 -139.834 -105.501 -186.501s-97.334 -81.167 -158.001 -103.5s-131.334 -33.5 -212.001 -33.5s-151.667 11.167 -213 33.5s-114.666 56.833 -159.999 103.5s-80.833 108.834 -106.5 186.501
s-38.5 171.5 -38.5 281.5v852h160v-848c0 -156 30 -272.167 90 -348.5s152.333 -114.5 277 -114.5c122 0 210.167 37.167 264.5 111.5s81.5 190.166 81.5 347.499v852h159v-852zM1005 1655c0 -15.333 -3 -29.833 -9 -43.5s-14 -25.667 -24 -36s-21.833 -18.5 -35.5 -24.5
s-28.167 -9 -43.5 -9s-29.833 3 -43.5 9s-25.667 14.167 -36 24.5s-18.5 22.333 -24.5 36s-9 28.167 -9 43.5s3 29.833 9 43.5s14.167 25.834 24.5 36.501s22.333 19 36 25s28.167 9 43.5 9s29.833 -3 43.5 -9s25.5 -14.333 35.5 -25s18 -22.834 24 -36.501
s9 -28.167 9 -43.5zM608.002 1655c0 -15.333 -3 -29.833 -9 -43.5s-14 -25.667 -24 -36s-21.833 -18.5 -35.5 -24.5s-27.834 -9 -42.501 -9c-16 0 -30.833 3 -44.5 9s-25.667 14.167 -36 24.5s-18.5 22.333 -24.5 36s-9 28.167 -9 43.5s3 29.833 9 43.5
s14.167 25.834 24.5 36.501s22.333 19 36 25s28.5 9 44.5 9c14.667 0 28.834 -3 42.501 -9s25.5 -14.333 35.5 -25s18 -22.834 24 -36.501s9 -28.167 9 -43.5z" />
    <glyph glyph-name="Yacute" unicode="&#xdd;" horiz-adv-x="1335" 
d="M1239 1434l-491 -865v-569h-160v567l-492 867h183l390 -703l392 703h178zM633 1526h-121l211 327h219z" />
    <glyph glyph-name="Thorn" unicode="&#xde;" horiz-adv-x="1266" 
d="M1182 748c0 -71.333 -11.833 -134.5 -35.5 -189.5s-57 -101.333 -100 -139s-94.167 -66.167 -153.5 -85.5s-125 -29 -197 -29h-348v-305h-160v1434h160v-258h377c64.667 0 125 -8.66699 181 -26s104.333 -43.666 145 -78.999s72.667 -79.833 96 -133.5
s35 -116.834 35 -189.501zM1022 741c0 93.333 -25.833 164.833 -77.5 214.5s-126.834 74.5 -225.501 74.5h-371v-579h350c110.667 0 192.334 24.5 245.001 73.5s79 121.167 79 216.5z" />
    <glyph glyph-name="germandbls" unicode="&#xdf;" horiz-adv-x="1171" 
d="M1059 463c0 -85.333 -14.001 -157.333 -42.001 -216s-66.167 -106.334 -114.5 -143.001s-104.666 -63.167 -168.999 -79.5s-132.833 -24.5 -205.5 -24.5h-30v135h37c58.667 0 111 6 157 18s84.667 30.833 116 56.5s55.333 58.167 72 97.5s25 86.666 25 141.999
c0 53.333 -10 98.833 -30 136.5s-47 68.5 -81 92.5s-73 41.667 -117 53s-90 17 -138 17h-41v133h47c78.667 0 140 20 184 60s66 100.333 66 181c0 71.333 -22 127.833 -66 169.5s-101.333 62.5 -172 62.5c-69.333 0 -125.5 -24 -168.5 -72s-64.5 -114.333 -64.5 -199v-1392
l-154 -86v1452c0 69.333 9.33301 130.833 28 184.5s45.167 98.667 79.5 135s75.5 63.833 123.5 82.5s101.333 28 160 28s112 -9.33301 160 -28s88.667 -44.167 122 -76.5s59.166 -70.666 77.499 -114.999s27.5 -92.166 27.5 -143.499c0 -70 -15.167 -129.5 -45.5 -178.5
s-77.166 -88.5 -140.499 -118.5c36 -8.66699 71.667 -21.667 107 -39s67 -40.5 95 -69.5s50.833 -64.5 68.5 -106.5s26.5 -91.667 26.5 -149z" />
    <glyph glyph-name="agrave" unicode="&#xe0;" horiz-adv-x="1104" 
d="M786 0v131.001c-18.667 -20.667 -39.5 -40.334 -62.5 -59.001s-48.333 -35 -76 -49s-57.834 -25.167 -90.501 -33.5s-68 -12.5 -106 -12.5c-42 0 -83.667 5.66699 -125 17s-78.166 30.5 -110.499 57.5s-58.666 62.5 -78.999 106.5s-30.5 98.667 -30.5 164
c0 60 11.5 111.667 34.5 155s53.5 79 91.5 107s81.833 48.667 131.5 62s101.167 20 154.5 20c54.667 0 105 -6 151 -18s85 -26.667 117 -44v127c0 80.667 -19 140.5 -57 179.5s-96.667 58.5 -176 58.5c-56.667 0 -108.667 -7.33301 -156 -22s-93 -34.667 -137 -60l-57 125
c47.333 25.333 101.666 46 162.999 62s127 24 197 24c58 0 110.333 -6.5 157 -19.5s86.167 -33.5 118.5 -61.5s57.333 -64 75 -108s26.5 -97 26.5 -159v-750h-154zM786 481.001c-17.333 10 -35.334 18.8311 -54.001 26.498s-39 14.167 -61 19.5s-46.167 9.33301 -72.5 12
s-55.833 4 -88.5 4c-79.333 0 -141.166 -18.167 -185.499 -54.5s-66.5 -88.5 -66.5 -156.5c0 -40 5.33301 -74.5 16 -103.5s25.5 -52.833 44.5 -71.5s42 -32.5 69 -41.5s56.833 -13.5 89.5 -13.5c34.667 0 67.167 4.16699 97.5 12.5s58.5 19.833 84.5 34.5
s49.667 31.834 71 51.501s40 40.834 56 63.501v217zM534.999 1219l-309 327h219l211 -327h-121z" />
    <glyph glyph-name="aacute" unicode="&#xe1;" horiz-adv-x="1104" 
d="M786 0v131.001c-18.667 -20.667 -39.5 -40.334 -62.5 -59.001s-48.333 -35 -76 -49s-57.834 -25.167 -90.501 -33.5s-68 -12.5 -106 -12.5c-42 0 -83.667 5.66699 -125 17s-78.166 30.5 -110.499 57.5s-58.666 62.5 -78.999 106.5s-30.5 98.667 -30.5 164
c0 60 11.5 111.667 34.5 155s53.5 79 91.5 107s81.833 48.667 131.5 62s101.167 20 154.5 20c54.667 0 105 -6 151 -18s85 -26.667 117 -44v127c0 80.667 -19 140.5 -57 179.5s-96.667 58.5 -176 58.5c-56.667 0 -108.667 -7.33301 -156 -22s-93 -34.667 -137 -60l-57 125
c47.333 25.333 101.666 46 162.999 62s127 24 197 24c58 0 110.333 -6.5 157 -19.5s86.167 -33.5 118.5 -61.5s57.333 -64 75 -108s26.5 -97 26.5 -159v-750h-154zM786 481.001c-17.333 10 -35.334 18.8311 -54.001 26.498s-39 14.167 -61 19.5s-46.167 9.33301 -72.5 12
s-55.833 4 -88.5 4c-79.333 0 -141.166 -18.167 -185.499 -54.5s-66.5 -88.5 -66.5 -156.5c0 -40 5.33301 -74.5 16 -103.5s25.5 -52.833 44.5 -71.5s42 -32.5 69 -41.5s56.833 -13.5 89.5 -13.5c34.667 0 67.167 4.16699 97.5 12.5s58.5 19.833 84.5 34.5
s49.667 31.834 71 51.501s40 40.834 56 63.501v217zM585.999 1219h-121l211 327h219z" />
    <glyph glyph-name="acircumflex" unicode="&#xe2;" horiz-adv-x="1104" 
d="M786 0v131.001c-18.667 -20.667 -39.5 -40.334 -62.5 -59.001s-48.333 -35 -76 -49s-57.834 -25.167 -90.501 -33.5s-68 -12.5 -106 -12.5c-42 0 -83.667 5.66699 -125 17s-78.166 30.5 -110.499 57.5s-58.666 62.5 -78.999 106.5s-30.5 98.667 -30.5 164
c0 60 11.5 111.667 34.5 155s53.5 79 91.5 107s81.833 48.667 131.5 62s101.167 20 154.5 20c54.667 0 105 -6 151 -18s85 -26.667 117 -44v127c0 80.667 -19 140.5 -57 179.5s-96.667 58.5 -176 58.5c-56.667 0 -108.667 -7.33301 -156 -22s-93 -34.667 -137 -60l-57 125
c47.333 25.333 101.666 46 162.999 62s127 24 197 24c58 0 110.333 -6.5 157 -19.5s86.167 -33.5 118.5 -61.5s57.333 -64 75 -108s26.5 -97 26.5 -159v-750h-154zM786 481.001c-17.333 10 -35.334 18.8311 -54.001 26.498s-39 14.167 -61 19.5s-46.167 9.33301 -72.5 12
s-55.833 4 -88.5 4c-79.333 0 -141.166 -18.167 -185.499 -54.5s-66.5 -88.5 -66.5 -156.5c0 -40 5.33301 -74.5 16 -103.5s25.5 -52.833 44.5 -71.5s42 -32.5 69 -41.5s56.833 -13.5 89.5 -13.5c34.667 0 67.167 4.16699 97.5 12.5s58.5 19.833 84.5 34.5
s49.667 31.834 71 51.501s40 40.834 56 63.501v217zM759.999 1211l-207 211l-207 -211h-129l252 327h172l252 -327h-133z" />
    <glyph glyph-name="atilde" unicode="&#xe3;" horiz-adv-x="1104" 
d="M786 0v131.001c-18.667 -20.667 -39.5 -40.334 -62.5 -59.001s-48.333 -35 -76 -49s-57.834 -25.167 -90.501 -33.5s-68 -12.5 -106 -12.5c-42 0 -83.667 5.66699 -125 17s-78.166 30.5 -110.499 57.5s-58.666 62.5 -78.999 106.5s-30.5 98.667 -30.5 164
c0 60 11.5 111.667 34.5 155s53.5 79 91.5 107s81.833 48.667 131.5 62s101.167 20 154.5 20c54.667 0 105 -6 151 -18s85 -26.667 117 -44v127c0 80.667 -19 140.5 -57 179.5s-96.667 58.5 -176 58.5c-56.667 0 -108.667 -7.33301 -156 -22s-93 -34.667 -137 -60l-57 125
c47.333 25.333 101.666 46 162.999 62s127 24 197 24c58 0 110.333 -6.5 157 -19.5s86.167 -33.5 118.5 -61.5s57.333 -64 75 -108s26.5 -97 26.5 -159v-750h-154zM786 481.001c-17.333 10 -35.334 18.8311 -54.001 26.498s-39 14.167 -61 19.5s-46.167 9.33301 -72.5 12
s-55.833 4 -88.5 4c-79.333 0 -141.166 -18.167 -185.499 -54.5s-66.5 -88.5 -66.5 -156.5c0 -40 5.33301 -74.5 16 -103.5s25.5 -52.833 44.5 -71.5s42 -32.5 69 -41.5s56.833 -13.5 89.5 -13.5c34.667 0 67.167 4.16699 97.5 12.5s58.5 19.833 84.5 34.5
s49.667 31.834 71 51.501s40 40.834 56 63.501v217zM917.999 1491c0 -45.333 -5.66797 -84.666 -17.001 -117.999s-26.666 -61 -45.999 -83s-41.666 -38.333 -66.999 -49s-51.666 -16 -78.999 -16s-53.166 4 -77.499 12s-49 21.5 -74 40.5l-56 42.5
c-12.333 9.33301 -21.833 16 -28.5 20c-14.667 10 -27.834 17.167 -39.501 21.5s-24.5 6.5 -38.5 6.5c-22 0 -39.333 -10.667 -52 -32s-22 -56.333 -28 -105h-127c0 45.333 5.66699 84.666 17 117.999s26.666 61 45.999 83s41.666 38.333 66.999 49s51.666 16 78.999 16
s53.166 -4 77.499 -12s49 -21.5 74 -40.5l56 -42.5c12.333 -9.33301 21.833 -16 28.5 -20c14.667 -10 27.834 -17.167 39.501 -21.5s24.5 -6.5 38.5 -6.5c21.333 0 38.333 10.833 51 32.5s22.334 56.5 29.001 104.5h127z" />
    <glyph glyph-name="adieresis" unicode="&#xe4;" horiz-adv-x="1104" 
d="M786 0v131.001c-18.667 -20.667 -39.5 -40.334 -62.5 -59.001s-48.333 -35 -76 -49s-57.834 -25.167 -90.501 -33.5s-68 -12.5 -106 -12.5c-42 0 -83.667 5.66699 -125 17s-78.166 30.5 -110.499 57.5s-58.666 62.5 -78.999 106.5s-30.5 98.667 -30.5 164
c0 60 11.5 111.667 34.5 155s53.5 79 91.5 107s81.833 48.667 131.5 62s101.167 20 154.5 20c54.667 0 105 -6 151 -18s85 -26.667 117 -44v127c0 80.667 -19 140.5 -57 179.5s-96.667 58.5 -176 58.5c-56.667 0 -108.667 -7.33301 -156 -22s-93 -34.667 -137 -60l-57 125
c47.333 25.333 101.666 46 162.999 62s127 24 197 24c58 0 110.333 -6.5 157 -19.5s86.167 -33.5 118.5 -61.5s57.333 -64 75 -108s26.5 -97 26.5 -159v-750h-154zM786 481.001c-17.333 10 -35.334 18.8311 -54.001 26.498s-39 14.167 -61 19.5s-46.167 9.33301 -72.5 12
s-55.833 4 -88.5 4c-79.333 0 -141.166 -18.167 -185.499 -54.5s-66.5 -88.5 -66.5 -156.5c0 -40 5.33301 -74.5 16 -103.5s25.5 -52.833 44.5 -71.5s42 -32.5 69 -41.5s56.833 -13.5 89.5 -13.5c34.667 0 67.167 4.16699 97.5 12.5s58.5 19.833 84.5 34.5
s49.667 31.834 71 51.501s40 40.834 56 63.501v217zM863.999 1340c0 -15.333 -3 -29.833 -9 -43.5s-14 -25.667 -24 -36s-21.833 -18.5 -35.5 -24.5s-28.167 -9 -43.5 -9s-29.833 3 -43.5 9s-25.667 14.167 -36 24.5s-18.5 22.333 -24.5 36s-9 28.167 -9 43.5
s3 29.833 9 43.5s14.167 25.834 24.5 36.501s22.333 19 36 25s28.167 9 43.5 9s29.833 -3 43.5 -9s25.5 -14.333 35.5 -25s18 -22.834 24 -36.501s9 -28.167 9 -43.5zM466.999 1340c0 -15.333 -3 -29.833 -9 -43.5s-14 -25.667 -24 -36s-21.833 -18.5 -35.5 -24.5
s-27.834 -9 -42.501 -9c-16 0 -30.833 3 -44.5 9s-25.667 14.167 -36 24.5s-18.5 22.333 -24.5 36s-9 28.167 -9 43.5s3 29.833 9 43.5s14.167 25.834 24.5 36.501s22.333 19 36 25s28.5 9 44.5 9c14.667 0 28.834 -3 42.501 -9s25.5 -14.333 35.5 -25
s18 -22.834 24 -36.501s9 -28.167 9 -43.5z" />
    <glyph glyph-name="aring" unicode="&#xe5;" horiz-adv-x="1104" 
d="M786 0v131.001c-18.667 -20.667 -39.5 -40.334 -62.5 -59.001s-48.333 -35 -76 -49s-57.834 -25.167 -90.501 -33.5s-68 -12.5 -106 -12.5c-42 0 -83.667 5.66699 -125 17s-78.166 30.5 -110.499 57.5s-58.666 62.5 -78.999 106.5s-30.5 98.667 -30.5 164
c0 60 11.5 111.667 34.5 155s53.5 79 91.5 107s81.833 48.667 131.5 62s101.167 20 154.5 20c54.667 0 105 -6 151 -18s85 -26.667 117 -44v127c0 80.667 -19 140.5 -57 179.5s-96.667 58.5 -176 58.5c-56.667 0 -108.667 -7.33301 -156 -22s-93 -34.667 -137 -60l-57 125
c47.333 25.333 101.666 46 162.999 62s127 24 197 24c58 0 110.333 -6.5 157 -19.5s86.167 -33.5 118.5 -61.5s57.333 -64 75 -108s26.5 -97 26.5 -159v-750h-154zM786 481.001c-17.333 10 -35.334 18.8311 -54.001 26.498s-39 14.167 -61 19.5s-46.167 9.33301 -72.5 12
s-55.833 4 -88.5 4c-79.333 0 -141.166 -18.167 -185.499 -54.5s-66.5 -88.5 -66.5 -156.5c0 -40 5.33301 -74.5 16 -103.5s25.5 -52.833 44.5 -71.5s42 -32.5 69 -41.5s56.833 -13.5 89.5 -13.5c34.667 0 67.167 4.16699 97.5 12.5s58.5 19.833 84.5 34.5
s49.667 31.834 71 51.501s40 40.834 56 63.501v217zM794.999 1466c0 -33.333 -6 -64.5 -18 -93.5s-28.667 -54.333 -50 -76s-46.666 -38.667 -75.999 -51s-61.333 -18.5 -96 -18.5s-66.667 6.16699 -96 18.5s-54.666 29.333 -75.999 51s-38 47 -50 76s-18 60.167 -18 93.5
s6 64.5 18 93.5s28.667 54.167 50 75.5s46.666 38.166 75.999 50.499s61.333 18.5 96 18.5s66.667 -6.16699 96 -18.5s54.666 -29.166 75.999 -50.499s38 -46.5 50 -75.5s18 -60.167 18 -93.5zM697.999 1466c0 20.667 -3.33301 40 -10 58s-16.167 33.5 -28.5 46.5
s-27.333 23.167 -45 30.5s-37.5 11 -59.5 11s-41.833 -3.66699 -59.5 -11s-32.667 -17.5 -45 -30.5s-21.833 -28.5 -28.5 -46.5s-10 -37.333 -10 -58c0 -21.333 3.33301 -41 10 -59s16.167 -33.5 28.5 -46.5s27.333 -23.167 45 -30.5s37.5 -11 59.5 -11
s41.833 3.66699 59.5 11s32.667 17.5 45 30.5s21.833 28.5 28.5 46.5s10 37.667 10 59z" />
    <glyph glyph-name="ae" unicode="&#xe6;" horiz-adv-x="1716" 
d="M1599 569c0 -18.667 -0.496094 -34.168 -1.49609 -46.501s-2.5 -24.833 -4.5 -37.5h-688c4 -57.333 12.833 -109 26.5 -155s32.334 -85.333 56.001 -118s52.334 -57.667 86.001 -75s72.5 -26 116.5 -26c31.333 0 59 2.16699 83 6.5s46.667 10.833 68 19.5
s42.5 19.334 63.5 32.001s43.833 27.334 68.5 44.001l71 -111c-32 -20.667 -61.833 -38.834 -89.5 -54.501s-55.5 -28.667 -83.5 -39s-57.833 -18.166 -89.5 -23.499s-67.5 -8 -107.5 -8c-62.667 0 -123.167 14.667 -181.5 44s-108.5 77 -150.5 143
c-60 -69.333 -121 -117.833 -183 -145.5s-136.333 -41.5 -223 -41.5c-42 0 -82.833 5.66699 -122.5 17s-74.834 30.5 -105.501 57.5s-55.334 62.5 -74.001 106.5s-28 98.667 -28 164c0 60 10.667 111.667 32 155s50.333 79 87 107s79 48.667 127 62s98.667 20 152 20
c54 0 101.833 -6 143.5 -18s78.5 -26.667 110.5 -44v127c0 80.667 -16.833 140.5 -50.5 179.5s-89.834 58.5 -168.501 58.5c-58.667 0 -110.834 -8.16699 -156.501 -24.5s-86.5 -35.5 -122.5 -57.5l-57 125c47.333 25.333 99.333 46 156 62s120 24 190 24
c95.333 0 168.333 -17.333 219 -52s82 -82.334 94 -143.001c32 62 74.667 110 128 144s117.333 51 192 51c70 0 131.167 -13.167 183.5 -39.5s95.666 -62.833 129.999 -109.5s60.166 -102.5 77.499 -167.5s26 -135.833 26 -212.5zM1456 609.999
c-3.33301 52 -10.666 99.833 -21.999 143.5s-28 81.167 -50 112.5s-49.833 55.666 -83.5 72.999s-73.834 26 -120.501 26c-44.667 0 -83.5 -8.66699 -116.5 -26s-60.5 -41.666 -82.5 -72.999s-39.167 -68.833 -51.5 -112.5s-20.5 -91.5 -24.5 -143.5h551zM754.004 482.999
c-17.333 9.33301 -34.334 17.668 -51.001 25.001s-35 13.666 -55 18.999s-42.333 9.33301 -67 12s-53 4 -85 4c-79.333 0 -138.833 -18.167 -178.5 -54.5s-59.5 -88.5 -59.5 -156.5c0 -80 17.833 -138.333 53.5 -175s86.167 -55 151.5 -55c24.667 0 50.5 3 77.5 9
s54.333 16.167 82 30.5s55.334 33.166 83.001 56.499s54.5 52.333 80.5 87c-9.33301 28.667 -16.5 59.334 -21.5 92.001s-8.5 68 -10.5 106z" />
    <glyph glyph-name="ccedilla" unicode="&#xe7;" horiz-adv-x="1014" 
d="M911 127c-22.667 -23.333 -46.3369 -44.165 -71.0039 -62.498s-51 -34 -79 -47s-58.167 -23 -90.5 -30s-67.5 -10.5 -105.5 -10.5c-58.667 0 -115.167 11.333 -169.5 34s-102.5 57 -144.5 103s-75.5 103.833 -100.5 173.5s-37.5 151.167 -37.5 244.5
c0 99.333 13.5 184.666 40.5 255.999s62.333 130 106 176s93.167 79.833 148.5 101.5s111 32.5 167 32.5c73.333 0 137.833 -12 193.5 -36s104.5 -54.333 146.5 -91l-92 -115c-19.333 17.333 -38.666 32.833 -57.999 46.5s-39.166 25.167 -59.499 34.5s-42 16.333 -65 21
s-48.167 7 -75.5 7c-42 0 -81.167 -9.33301 -117.5 -28s-67.666 -45.834 -93.999 -81.501s-47.166 -79.667 -62.499 -132s-23 -111.833 -23 -178.5c0 -66 6.83301 -125.667 20.5 -179s33.5 -99 59.5 -137s57.833 -67.167 95.5 -87.5s80.167 -30.5 127.5 -30.5
c26 0 50.167 2.66699 72.5 8s43.333 12.833 63 22.5s38.667 21.5 57 35.5s36.833 30 55.5 48zM482.997 0.000976562h91.998l-35 -104c14.667 9.33301 31 16.333 49 21s39.333 7 64 7c14 0 29 -2.5 45 -7.5s30.833 -13 44.5 -24s25 -25.5 34 -43.5s13.5 -40 13.5 -66
c0 -33.333 -6.5 -61.333 -19.5 -84s-30.667 -41 -53 -55s-48.166 -24 -77.499 -30s-60.333 -9 -93 -9c-42 0 -83.833 6.33301 -125.5 19s-80.5 30.667 -116.5 54l39 66c56.667 -36.667 119.334 -55 188.001 -55c47.333 0 82 7.66699 104 23s33 37 33 65
c0 20.667 -5.5 37 -16.5 49s-27.167 18 -48.5 18c-40 0 -72.667 -12.333 -98 -37l-74 29z" />
    <glyph glyph-name="egrave" unicode="&#xe8;" horiz-adv-x="1106" 
d="M989 569c0 -18.667 -0.499023 -34.1689 -1.49902 -46.502s-2.5 -24.833 -4.5 -37.5h-717c4 -57.333 13.5 -109 28.5 -155s35.167 -85.333 60.5 -118s55.666 -57.667 90.999 -75s75 -26 119 -26c31.333 0 59.833 2.16699 85.5 6.5s50 10.833 73 19.5
s45.667 19.334 68 32.001s45.833 27.334 70.5 44.001l72 -111c-32 -20.667 -62.5 -38.834 -91.5 -54.501s-58.5 -28.667 -88.5 -39s-61.5 -18.166 -94.5 -23.499s-69.833 -8 -110.5 -8c-32.667 0 -66.167 4.16699 -100.5 12.5s-67.666 21.833 -99.999 40.5
s-62.833 42.667 -91.5 72s-53.667 65 -75 107s-38.166 90.667 -50.499 146s-18.5 118 -18.5 188c0 85.333 11.167 162.333 33.5 231s53.166 127 92.499 175s86.166 84.833 140.499 110.5s113.5 38.5 177.5 38.5c70 0 132 -13.167 186 -39.5s99.167 -62.833 135.5 -109.5
s63.833 -102.5 82.5 -167.5s28 -135.833 28 -212.5zM846.001 609.998c-3.33301 52 -11.499 99.834 -24.499 143.501s-31.333 81.167 -55 112.5s-53.167 55.666 -88.5 72.999s-76.333 26 -123 26c-40 0 -76.667 -7.16699 -110 -21.5s-62.5 -36.333 -87.5 -66
s-45.333 -66.667 -61 -111s-25.834 -96.5 -30.501 -156.5h580zM535.002 1219l-309 327h219l211 -327h-121z" />
    <glyph glyph-name="eacute" unicode="&#xe9;" horiz-adv-x="1106" 
d="M989 569c0 -18.667 -0.499023 -34.1689 -1.49902 -46.502s-2.5 -24.833 -4.5 -37.5h-717c4 -57.333 13.5 -109 28.5 -155s35.167 -85.333 60.5 -118s55.666 -57.667 90.999 -75s75 -26 119 -26c31.333 0 59.833 2.16699 85.5 6.5s50 10.833 73 19.5
s45.667 19.334 68 32.001s45.833 27.334 70.5 44.001l72 -111c-32 -20.667 -62.5 -38.834 -91.5 -54.501s-58.5 -28.667 -88.5 -39s-61.5 -18.166 -94.5 -23.499s-69.833 -8 -110.5 -8c-32.667 0 -66.167 4.16699 -100.5 12.5s-67.666 21.833 -99.999 40.5
s-62.833 42.667 -91.5 72s-53.667 65 -75 107s-38.166 90.667 -50.499 146s-18.5 118 -18.5 188c0 85.333 11.167 162.333 33.5 231s53.166 127 92.499 175s86.166 84.833 140.499 110.5s113.5 38.5 177.5 38.5c70 0 132 -13.167 186 -39.5s99.167 -62.833 135.5 -109.5
s63.833 -102.5 82.5 -167.5s28 -135.833 28 -212.5zM846.001 609.998c-3.33301 52 -11.499 99.834 -24.499 143.501s-31.333 81.167 -55 112.5s-53.167 55.666 -88.5 72.999s-76.333 26 -123 26c-40 0 -76.667 -7.16699 -110 -21.5s-62.5 -36.333 -87.5 -66
s-45.333 -66.667 -61 -111s-25.834 -96.5 -30.501 -156.5h580zM586.002 1219h-121l211 327h219z" />
    <glyph glyph-name="ecircumflex" unicode="&#xea;" horiz-adv-x="1106" 
d="M989 569c0 -18.667 -0.499023 -34.1689 -1.49902 -46.502s-2.5 -24.833 -4.5 -37.5h-717c4 -57.333 13.5 -109 28.5 -155s35.167 -85.333 60.5 -118s55.666 -57.667 90.999 -75s75 -26 119 -26c31.333 0 59.833 2.16699 85.5 6.5s50 10.833 73 19.5
s45.667 19.334 68 32.001s45.833 27.334 70.5 44.001l72 -111c-32 -20.667 -62.5 -38.834 -91.5 -54.501s-58.5 -28.667 -88.5 -39s-61.5 -18.166 -94.5 -23.499s-69.833 -8 -110.5 -8c-32.667 0 -66.167 4.16699 -100.5 12.5s-67.666 21.833 -99.999 40.5
s-62.833 42.667 -91.5 72s-53.667 65 -75 107s-38.166 90.667 -50.499 146s-18.5 118 -18.5 188c0 85.333 11.167 162.333 33.5 231s53.166 127 92.499 175s86.166 84.833 140.499 110.5s113.5 38.5 177.5 38.5c70 0 132 -13.167 186 -39.5s99.167 -62.833 135.5 -109.5
s63.833 -102.5 82.5 -167.5s28 -135.833 28 -212.5zM846.001 609.998c-3.33301 52 -11.499 99.834 -24.499 143.501s-31.333 81.167 -55 112.5s-53.167 55.666 -88.5 72.999s-76.333 26 -123 26c-40 0 -76.667 -7.16699 -110 -21.5s-62.5 -36.333 -87.5 -66
s-45.333 -66.667 -61 -111s-25.834 -96.5 -30.501 -156.5h580zM760.002 1201l-207 211l-207 -211h-129l252 327h172l252 -327h-133z" />
    <glyph glyph-name="edieresis" unicode="&#xeb;" horiz-adv-x="1106" 
d="M989 569c0 -18.667 -0.499023 -34.1689 -1.49902 -46.502s-2.5 -24.833 -4.5 -37.5h-717c4 -57.333 13.5 -109 28.5 -155s35.167 -85.333 60.5 -118s55.666 -57.667 90.999 -75s75 -26 119 -26c31.333 0 59.833 2.16699 85.5 6.5s50 10.833 73 19.5
s45.667 19.334 68 32.001s45.833 27.334 70.5 44.001l72 -111c-32 -20.667 -62.5 -38.834 -91.5 -54.501s-58.5 -28.667 -88.5 -39s-61.5 -18.166 -94.5 -23.499s-69.833 -8 -110.5 -8c-32.667 0 -66.167 4.16699 -100.5 12.5s-67.666 21.833 -99.999 40.5
s-62.833 42.667 -91.5 72s-53.667 65 -75 107s-38.166 90.667 -50.499 146s-18.5 118 -18.5 188c0 85.333 11.167 162.333 33.5 231s53.166 127 92.499 175s86.166 84.833 140.499 110.5s113.5 38.5 177.5 38.5c70 0 132 -13.167 186 -39.5s99.167 -62.833 135.5 -109.5
s63.833 -102.5 82.5 -167.5s28 -135.833 28 -212.5zM846.001 609.998c-3.33301 52 -11.499 99.834 -24.499 143.501s-31.333 81.167 -55 112.5s-53.167 55.666 -88.5 72.999s-76.333 26 -123 26c-40 0 -76.667 -7.16699 -110 -21.5s-62.5 -36.333 -87.5 -66
s-45.333 -66.667 -61 -111s-25.834 -96.5 -30.501 -156.5h580zM866.002 1340c0 -15.333 -3 -29.833 -9 -43.5s-14 -25.667 -24 -36s-21.833 -18.5 -35.5 -24.5s-28.167 -9 -43.5 -9s-29.833 3 -43.5 9s-25.667 14.167 -36 24.5s-18.5 22.333 -24.5 36s-9 28.167 -9 43.5
s3 29.833 9 43.5s14.167 25.834 24.5 36.501s22.333 19 36 25s28.167 9 43.5 9s29.833 -3 43.5 -9s25.5 -14.333 35.5 -25s18 -22.834 24 -36.501s9 -28.167 9 -43.5zM469.002 1340c0 -15.333 -3 -29.833 -9 -43.5s-14 -25.667 -24 -36s-21.833 -18.5 -35.5 -24.5
s-27.834 -9 -42.501 -9c-16 0 -30.833 3 -44.5 9s-25.667 14.167 -36 24.5s-18.5 22.333 -24.5 36s-9 28.167 -9 43.5s3 29.833 9 43.5s14.167 25.834 24.5 36.501s22.333 19 36 25s28.5 9 44.5 9c14.667 0 28.834 -3 42.501 -9s25.5 -14.333 35.5 -25
s18 -22.834 24 -36.501s9 -28.167 9 -43.5z" />
    <glyph glyph-name="igrave" unicode="&#xec;" horiz-adv-x="514" 
d="M180 0v1075h154v-1075h-154zM205 1219l-309 327h219l211 -327h-121z" />
    <glyph glyph-name="iacute" unicode="&#xed;" horiz-adv-x="514" 
d="M180 0v1075h154v-1075h-154zM313 1219h-121l211 327h219z" />
    <glyph glyph-name="icircumflex" unicode="&#xee;" horiz-adv-x="514" 
d="M180 0v1075h154v-1075h-154zM463 1190l-207 211l-207 -211h-129l252 327h172l252 -327h-133z" />
    <glyph glyph-name="idieresis" unicode="&#xef;" horiz-adv-x="514" 
d="M180 0v1075h154v-1075h-154zM569 1330c0 -15.333 -3 -29.833 -9 -43.5s-14 -25.667 -24 -36s-21.833 -18.5 -35.5 -24.5s-28.167 -9 -43.5 -9s-29.833 3 -43.5 9s-25.667 14.167 -36 24.5s-18.5 22.333 -24.5 36s-9 28.167 -9 43.5s3 29.833 9 43.5
s14.167 25.834 24.5 36.501s22.333 19 36 25s28.167 9 43.5 9s29.833 -3 43.5 -9s25.5 -14.333 35.5 -25s18 -22.834 24 -36.501s9 -28.167 9 -43.5zM172 1330c0 -15.333 -3 -29.833 -9 -43.5s-14 -25.667 -24 -36s-21.833 -18.5 -35.5 -24.5s-27.834 -9 -42.501 -9
c-16 0 -30.833 3 -44.5 9s-25.667 14.167 -36 24.5s-18.5 22.333 -24.5 36s-9 28.167 -9 43.5s3 29.833 9 43.5s14.167 25.834 24.5 36.501s22.333 19 36 25s28.5 9 44.5 9c14.667 0 28.834 -3 42.501 -9s25.5 -14.333 35.5 -25s18 -22.834 24 -36.501s9 -28.167 9 -43.5z
" />
    <glyph glyph-name="eth" unicode="&#xf0;" horiz-adv-x="1159" 
d="M1047 610c0 -110 -10.832 -204.83 -32.499 -284.497s-52.834 -145.334 -93.501 -197.001s-90.167 -89.834 -148.5 -114.501s-124.166 -37 -197.499 -37c-62 0 -120.833 11 -176.5 33s-104.667 54.167 -147 96.5s-76 94.833 -101 157.5s-37.5 135 -37.5 217
c0 82.667 12 155.5 36 218.5s56 115.667 96 158s85.833 74.5 137.5 96.5s105.167 33 160.5 33c77.333 0 146.166 -13.667 206.499 -41s112.833 -74.333 157.5 -141c-20.667 90.667 -49.5 169.167 -86.5 235.5s-83.833 121.5 -140.5 165.5l-115 -129l-104 88l98 111
c-59.333 24 -120.666 39 -183.999 45v135c48 -3.33301 95.167 -11.166 141.5 -23.499s91.166 -29.833 134.499 -52.5l70 76l104 -88l-59 -65c42 -34.667 80.333 -75 115 -121s64.167 -97.833 88.5 -155.5s43.333 -121.334 57 -191.001s20.5 -144.834 20.5 -225.501z
M893.001 485.003c0 64.667 -8.16602 120.167 -24.499 166.5s-39 84.5 -68 114.5s-63.5 52.167 -103.5 66.5s-84 21.5 -132 21.5c-45.333 0 -86.333 -8 -123 -24s-67.834 -39.667 -93.501 -71s-45.5 -70 -59.5 -116s-21 -98.667 -21 -158c0 -63.333 8 -118.5 24 -165.5
s38 -86 66 -117s61 -54 99 -69s79 -22.5 123 -22.5s85 7.5 123 22.5s71.167 38 99.5 69s50.5 70 66.5 117s24 102.167 24 165.5z" />
    <glyph glyph-name="ntilde" unicode="&#xf1;" horiz-adv-x="1165" 
d="M844 0l-0.000976562 628.996c0 116 -20.667 201 -62 255s-105.333 81 -192 81c-37.333 0 -72.166 -6.5 -104.499 -19.5s-60.5 -33.167 -84.5 -60.5s-42.833 -62.166 -56.5 -104.499s-20.5 -92.833 -20.5 -151.5v-629h-154v1075h154v-131
c15.333 22.667 33 43.334 53 62.001s42.5 34.834 67.5 48.501s52.167 24.334 81.5 32.001s61 11.5 95 11.5c56.667 0 108.167 -8.5 154.5 -25.5s85.833 -43.5 118.5 -79.5s58 -82 76 -138s27 -122.667 27 -200v-655h-153zM937.999 1491
c0 -45.333 -5.66797 -84.666 -17.001 -117.999s-26.666 -61 -45.999 -83s-41.666 -38.333 -66.999 -49s-51.666 -16 -78.999 -16s-53.166 4 -77.499 12s-49 21.5 -74 40.5l-56 42.5c-12.333 9.33301 -21.833 16 -28.5 20c-14.667 10 -27.834 17.167 -39.501 21.5
s-24.5 6.5 -38.5 6.5c-22 0 -39.333 -10.667 -52 -32s-22 -56.333 -28 -105h-127c0 45.333 5.66699 84.666 17 117.999s26.666 61 45.999 83s41.666 38.333 66.999 49s51.666 16 78.999 16s53.166 -4 77.499 -12s49 -21.5 74 -40.5l56 -42.5
c12.333 -9.33301 21.833 -16 28.5 -20c14.667 -10 27.834 -17.167 39.501 -21.5s24.5 -6.5 38.5 -6.5c21.333 0 38.333 10.833 51 32.5s22.334 56.5 29.001 104.5h127z" />
    <glyph glyph-name="ograve" unicode="&#xf2;" horiz-adv-x="1159" 
d="M1047 545c0 -91.333 -12.335 -172.332 -37.002 -242.999s-58.167 -130 -100.5 -178s-92.166 -84.5 -149.499 -109.5s-119 -37.5 -185 -37.5c-65.333 0 -126.166 12 -182.499 36s-105.166 59.667 -146.499 107s-73.833 105.833 -97.5 175.5s-35.5 150.167 -35.5 241.5
c0 90.667 12.167 171 36.5 241s57.833 128.667 100.5 176s92.667 83.166 150 107.499s118.666 36.5 183.999 36.5s126.166 -11.667 182.499 -35s105.333 -58.333 147 -105s74.334 -104.5 98.001 -173.5s35.5 -148.833 35.5 -239.5zM892.998 541.001
c0 70.667 -7.66699 132.5 -23 185.5s-36.666 97.167 -63.999 132.5s-60.166 61.833 -98.499 79.5s-80.833 26.5 -127.5 26.5s-89.167 -8.83301 -127.5 -26.5s-71.166 -44.167 -98.499 -79.5s-48.5 -79.5 -63.5 -132.5s-22.5 -114.833 -22.5 -185.5
s7.5 -132.834 22.5 -186.501s36.167 -98.5 63.5 -134.5s60.166 -63.167 98.499 -81.5s80.833 -27.5 127.5 -27.5s89.167 9.16699 127.5 27.5s71.166 45.5 98.499 81.5s48.666 80.833 63.999 134.5s23 115.834 23 186.501zM548.998 1219l-309 327h219l211 -327h-121z" />
    <glyph glyph-name="oacute" unicode="&#xf3;" horiz-adv-x="1159" 
d="M1047 545c0 -91.333 -12.335 -172.332 -37.002 -242.999s-58.167 -130 -100.5 -178s-92.166 -84.5 -149.499 -109.5s-119 -37.5 -185 -37.5c-65.333 0 -126.166 12 -182.499 36s-105.166 59.667 -146.499 107s-73.833 105.833 -97.5 175.5s-35.5 150.167 -35.5 241.5
c0 90.667 12.167 171 36.5 241s57.833 128.667 100.5 176s92.667 83.166 150 107.499s118.666 36.5 183.999 36.5s126.166 -11.667 182.499 -35s105.333 -58.333 147 -105s74.334 -104.5 98.001 -173.5s35.5 -148.833 35.5 -239.5zM892.998 541.001
c0 70.667 -7.66699 132.5 -23 185.5s-36.666 97.167 -63.999 132.5s-60.166 61.833 -98.499 79.5s-80.833 26.5 -127.5 26.5s-89.167 -8.83301 -127.5 -26.5s-71.166 -44.167 -98.499 -79.5s-48.5 -79.5 -63.5 -132.5s-22.5 -114.833 -22.5 -185.5
s7.5 -132.834 22.5 -186.501s36.167 -98.5 63.5 -134.5s60.166 -63.167 98.499 -81.5s80.833 -27.5 127.5 -27.5s89.167 9.16699 127.5 27.5s71.166 45.5 98.499 81.5s48.666 80.833 63.999 134.5s23 115.834 23 186.501zM601.998 1219h-121l211 327h219z" />
    <glyph glyph-name="ocircumflex" unicode="&#xf4;" horiz-adv-x="1159" 
d="M1047 545c0 -91.333 -12.335 -172.332 -37.002 -242.999s-58.167 -130 -100.5 -178s-92.166 -84.5 -149.499 -109.5s-119 -37.5 -185 -37.5c-65.333 0 -126.166 12 -182.499 36s-105.166 59.667 -146.499 107s-73.833 105.833 -97.5 175.5s-35.5 150.167 -35.5 241.5
c0 90.667 12.167 171 36.5 241s57.833 128.667 100.5 176s92.667 83.166 150 107.499s118.666 36.5 183.999 36.5s126.166 -11.667 182.499 -35s105.333 -58.333 147 -105s74.334 -104.5 98.001 -173.5s35.5 -148.833 35.5 -239.5zM892.998 541.001
c0 70.667 -7.66699 132.5 -23 185.5s-36.666 97.167 -63.999 132.5s-60.166 61.833 -98.499 79.5s-80.833 26.5 -127.5 26.5s-89.167 -8.83301 -127.5 -26.5s-71.166 -44.167 -98.499 -79.5s-48.5 -79.5 -63.5 -132.5s-22.5 -114.833 -22.5 -185.5
s7.5 -132.834 22.5 -186.501s36.167 -98.5 63.5 -134.5s60.166 -63.167 98.499 -81.5s80.833 -27.5 127.5 -27.5s89.167 9.16699 127.5 27.5s71.166 45.5 98.499 81.5s48.666 80.833 63.999 134.5s23 115.834 23 186.501zM782.998 1201l-207 211l-207 -211h-129l252 327h172
l252 -327h-133z" />
    <glyph glyph-name="otilde" unicode="&#xf5;" horiz-adv-x="1159" 
d="M1047 545c0 -91.333 -12.335 -172.332 -37.002 -242.999s-58.167 -130 -100.5 -178s-92.166 -84.5 -149.499 -109.5s-119 -37.5 -185 -37.5c-65.333 0 -126.166 12 -182.499 36s-105.166 59.667 -146.499 107s-73.833 105.833 -97.5 175.5s-35.5 150.167 -35.5 241.5
c0 90.667 12.167 171 36.5 241s57.833 128.667 100.5 176s92.667 83.166 150 107.499s118.666 36.5 183.999 36.5s126.166 -11.667 182.499 -35s105.333 -58.333 147 -105s74.334 -104.5 98.001 -173.5s35.5 -148.833 35.5 -239.5zM892.998 541.001
c0 70.667 -7.66699 132.5 -23 185.5s-36.666 97.167 -63.999 132.5s-60.166 61.833 -98.499 79.5s-80.833 26.5 -127.5 26.5s-89.167 -8.83301 -127.5 -26.5s-71.166 -44.167 -98.499 -79.5s-48.5 -79.5 -63.5 -132.5s-22.5 -114.833 -22.5 -185.5
s7.5 -132.834 22.5 -186.501s36.167 -98.5 63.5 -134.5s60.166 -63.167 98.499 -81.5s80.833 -27.5 127.5 -27.5s89.167 9.16699 127.5 27.5s71.166 45.5 98.499 81.5s48.666 80.833 63.999 134.5s23 115.834 23 186.501zM942.998 1491
c0 -45.333 -5.66797 -84.666 -17.001 -117.999s-26.666 -61 -45.999 -83s-41.666 -38.333 -66.999 -49s-51.666 -16 -78.999 -16s-53.166 4 -77.499 12s-49 21.5 -74 40.5l-56 42.5c-12.333 9.33301 -21.833 16 -28.5 20c-14.667 10 -27.834 17.167 -39.501 21.5
s-24.5 6.5 -38.5 6.5c-22 0 -39.333 -10.667 -52 -32s-22 -56.333 -28 -105h-127c0 45.333 5.66699 84.666 17 117.999s26.666 61 45.999 83s41.666 38.333 66.999 49s51.666 16 78.999 16s53.166 -4 77.499 -12s49 -21.5 74 -40.5l56 -42.5
c12.333 -9.33301 21.833 -16 28.5 -20c14.667 -10 27.834 -17.167 39.501 -21.5s24.5 -6.5 38.5 -6.5c21.333 0 38.333 10.833 51 32.5s22.334 56.5 29.001 104.5h127z" />
    <glyph glyph-name="odieresis" unicode="&#xf6;" horiz-adv-x="1159" 
d="M1047 545c0 -91.333 -12.335 -172.332 -37.002 -242.999s-58.167 -130 -100.5 -178s-92.166 -84.5 -149.499 -109.5s-119 -37.5 -185 -37.5c-65.333 0 -126.166 12 -182.499 36s-105.166 59.667 -146.499 107s-73.833 105.833 -97.5 175.5s-35.5 150.167 -35.5 241.5
c0 90.667 12.167 171 36.5 241s57.833 128.667 100.5 176s92.667 83.166 150 107.499s118.666 36.5 183.999 36.5s126.166 -11.667 182.499 -35s105.333 -58.333 147 -105s74.334 -104.5 98.001 -173.5s35.5 -148.833 35.5 -239.5zM892.998 541.001
c0 70.667 -7.66699 132.5 -23 185.5s-36.666 97.167 -63.999 132.5s-60.166 61.833 -98.499 79.5s-80.833 26.5 -127.5 26.5s-89.167 -8.83301 -127.5 -26.5s-71.166 -44.167 -98.499 -79.5s-48.5 -79.5 -63.5 -132.5s-22.5 -114.833 -22.5 -185.5
s7.5 -132.834 22.5 -186.501s36.167 -98.5 63.5 -134.5s60.166 -63.167 98.499 -81.5s80.833 -27.5 127.5 -27.5s89.167 9.16699 127.5 27.5s71.166 45.5 98.499 81.5s48.666 80.833 63.999 134.5s23 115.834 23 186.501zM888.998 1330c0 -15.333 -3 -29.833 -9 -43.5
s-14 -25.667 -24 -36s-21.833 -18.5 -35.5 -24.5s-28.167 -9 -43.5 -9s-29.833 3 -43.5 9s-25.667 14.167 -36 24.5s-18.5 22.333 -24.5 36s-9 28.167 -9 43.5s3 29.833 9 43.5s14.167 25.834 24.5 36.501s22.333 19 36 25s28.167 9 43.5 9s29.833 -3 43.5 -9
s25.5 -14.333 35.5 -25s18 -22.834 24 -36.501s9 -28.167 9 -43.5zM491.998 1330c0 -15.333 -3 -29.833 -9 -43.5s-14 -25.667 -24 -36s-21.833 -18.5 -35.5 -24.5s-27.834 -9 -42.501 -9c-16 0 -30.833 3 -44.5 9s-25.667 14.167 -36 24.5s-18.5 22.333 -24.5 36
s-9 28.167 -9 43.5s3 29.833 9 43.5s14.167 25.834 24.5 36.501s22.333 19 36 25s28.5 9 44.5 9c14.667 0 28.834 -3 42.501 -9s25.5 -14.333 35.5 -25s18 -22.834 24 -36.501s9 -28.167 9 -43.5z" />
    <glyph glyph-name="divide" unicode="&#xf7;" 
d="M768 1124c0 -18 -3.5 -35.167 -10.5 -51.5s-16.667 -30.5 -29 -42.5s-26.5 -21.5 -42.5 -28.5s-33 -10.5 -51 -10.5c-18.667 0 -36 3.5 -52 10.5s-30 16.5 -42 28.5s-21.5 26.167 -28.5 42.5s-10.5 33.5 -10.5 51.5c0 18.667 3.5 36.334 10.5 53.001
s16.5 31.334 28.5 44.001s26 22.667 42 30s33.333 11 52 11c18 0 35 -3.66699 51 -11s30.167 -17.333 42.5 -30s22 -27.334 29 -44.001s10.5 -34.334 10.5 -53.001zM137 635v139h996v-139h-996zM768 281c0 -18.667 -3.5 -36.167 -10.5 -52.5s-16.667 -30.5 -29 -42.5
s-26.5 -21.5 -42.5 -28.5s-33 -10.5 -51 -10.5c-18.667 0 -36 3.5 -52 10.5s-30 16.5 -42 28.5s-21.5 26.167 -28.5 42.5s-10.5 33.833 -10.5 52.5c0 18 3.5 35.333 10.5 52s16.5 31.334 28.5 44.001s26 22.667 42 30s33.333 11 52 11c18 0 35 -3.66699 51 -11
s30.167 -17.333 42.5 -30s22 -27.334 29 -44.001s10.5 -34 10.5 -52z" />
    <glyph glyph-name="oslash" unicode="&#xf8;" horiz-adv-x="1159" 
d="M1047 545c0 -91.333 -12.334 -172.332 -37.001 -242.999s-58.167 -130 -100.5 -178s-92.166 -84.5 -149.499 -109.5s-119 -37.5 -185 -37.5c-63.333 0 -122 11 -176 33l-53 -112h-135l84 176c-56.667 45.333 -101.167 106.833 -133.5 184.5s-48.5 170.5 -48.5 278.5
c0 90.667 12.167 171 36.5 241s57.833 128.667 100.5 176s92.667 83.166 150 107.499s118.666 36.5 183.999 36.5c32.667 0 64.167 -3 94.5 -9s59.5 -14.667 87.5 -26l55 115h135l-86 -179c54.667 -45.333 97.834 -105.833 129.501 -181.5s47.5 -166.5 47.5 -272.5z
M708.999 942.001c-38.667 18 -81.666 27.002 -128.999 27.002s-90.333 -9 -129 -27s-71.834 -44.833 -99.501 -80.5s-49.167 -80.334 -64.5 -134.001s-23 -115.834 -23 -186.501c0 -75.333 8.16699 -140.5 24.5 -195.5s39.5 -101.167 69.5 -138.5zM897 541.003
c0 72 -7.83203 134.835 -23.499 188.502s-37.834 98.5 -66.501 134.5l-350 -733c38.667 -16.667 79.667 -25 123 -25c46.667 0 89.5 9.33301 128.5 28s72.5 46.167 100.5 82.5s49.667 81.666 65 135.999s23 117.166 23 188.499z" />
    <glyph glyph-name="ugrave" unicode="&#xf9;" horiz-adv-x="1161" 
d="M838 0v131c-31.333 -46 -72 -83.167 -122 -111.5s-108.333 -42.5 -175 -42.5c-121.333 0 -214.5 37.5 -279.5 112.5s-97.5 185.167 -97.5 330.5v655h153v-629c0 -116 20.667 -200.833 62 -254.5s105.333 -80.5 192 -80.5c82 0 147 28.667 195 86s72 140.333 72 249v629
h153v-1075h-153zM533 1219l-309 327h219l211 -327h-121z" />
    <glyph glyph-name="uacute" unicode="&#xfa;" horiz-adv-x="1161" 
d="M838 0v131c-31.333 -46 -72 -83.167 -122 -111.5s-108.333 -42.5 -175 -42.5c-121.333 0 -214.5 37.5 -279.5 112.5s-97.5 185.167 -97.5 330.5v655h153v-629c0 -116 20.667 -200.833 62 -254.5s105.333 -80.5 192 -80.5c82 0 147 28.667 195 86s72 140.333 72 249v629
h153v-1075h-153zM614 1219h-121l211 327h219z" />
    <glyph glyph-name="ucircumflex" unicode="&#xfb;" horiz-adv-x="1161" 
d="M838 0v131c-31.333 -46 -72 -83.167 -122 -111.5s-108.333 -42.5 -175 -42.5c-121.333 0 -214.5 37.5 -279.5 112.5s-97.5 185.167 -97.5 330.5v655h153v-629c0 -116 20.667 -200.833 62 -254.5s105.333 -80.5 192 -80.5c82 0 147 28.667 195 86s72 140.333 72 249v629
h153v-1075h-153zM785 1219l-207 211l-207 -211h-129l252 327h172l252 -327h-133z" />
    <glyph glyph-name="udieresis" unicode="&#xfc;" horiz-adv-x="1161" 
d="M838 0v131c-31.333 -46 -72 -83.167 -122 -111.5s-108.333 -42.5 -175 -42.5c-121.333 0 -214.5 37.5 -279.5 112.5s-97.5 185.167 -97.5 330.5v655h153v-629c0 -116 20.667 -200.833 62 -254.5s105.333 -80.5 192 -80.5c82 0 147 28.667 195 86s72 140.333 72 249v629
h153v-1075h-153zM891 1348c0 -15.333 -3 -29.833 -9 -43.5s-14 -25.667 -24 -36s-21.833 -18.5 -35.5 -24.5s-28.167 -9 -43.5 -9s-29.833 3 -43.5 9s-25.667 14.167 -36 24.5s-18.5 22.333 -24.5 36s-9 28.167 -9 43.5s3 29.833 9 43.5s14.167 25.834 24.5 36.501
s22.333 19 36 25s28.167 9 43.5 9s29.833 -3 43.5 -9s25.5 -14.333 35.5 -25s18 -22.834 24 -36.501s9 -28.167 9 -43.5zM494 1348c0 -15.333 -3 -29.833 -9 -43.5s-14 -25.667 -24 -36s-21.833 -18.5 -35.5 -24.5s-27.834 -9 -42.501 -9c-16 0 -30.833 3 -44.5 9
s-25.667 14.167 -36 24.5s-18.5 22.333 -24.5 36s-9 28.167 -9 43.5s3 29.833 9 43.5s14.167 25.834 24.5 36.501s22.333 19 36 25s28.5 9 44.5 9c14.667 0 28.834 -3 42.501 -9s25.5 -14.333 35.5 -25s18 -22.834 24 -36.501s9 -28.167 9 -43.5z" />
    <glyph glyph-name="yacute" unicode="&#xfd;" horiz-adv-x="1087" 
d="M471 -379h-154l148 391l-383 1063h162l299 -891l301 891h162zM508 1219h-121l211 327h219z" />
    <glyph glyph-name="thorn" unicode="&#xfe;" horiz-adv-x="1145" 
d="M1032 555c0 -95.333 -10.501 -179.001 -31.501 -251.001s-49.833 -132.333 -86.5 -181s-79.667 -85.167 -129 -109.5s-102 -36.5 -158 -36.5c-67.333 0 -125.333 13.167 -174 39.5s-91.667 61.166 -129 104.499v-430l-154 -86v1802l154 86v-549
c18.667 20.667 39.167 40.334 61.5 59.001s46.833 35 73.5 49s55.667 25.167 87 33.5s65 12.5 101 12.5c54 0 104.333 -10.5 151 -31.5s87.334 -53.667 122.001 -98s62 -100.666 82 -168.999s30 -149.833 30 -244.5zM880.999 552.999
c0 67.333 -6.33105 126.665 -18.998 177.998s-30.667 94.333 -54 129s-51.833 60.834 -85.5 78.501s-71.834 26.5 -114.501 26.5c-57.333 0 -109.5 -14.167 -156.5 -42.5s-89.5 -66.166 -127.5 -113.499v-537c14.667 -22.667 32.167 -43.834 52.5 -63.501
s42.666 -36.667 66.999 -51s50.833 -25.666 79.5 -33.999s59 -12.5 91 -12.5c90 0 157 37.333 201 112s66 184.667 66 330z" />
    <glyph glyph-name="ydieresis" unicode="&#xff;" horiz-adv-x="1087" 
d="M471 -379h-154l148 391l-383 1063h162l299 -891l301 891h162zM856 1330c0 -15.333 -3 -29.833 -9 -43.5s-14 -25.667 -24 -36s-21.833 -18.5 -35.5 -24.5s-28.167 -9 -43.5 -9s-29.833 3 -43.5 9s-25.667 14.167 -36 24.5s-18.5 22.333 -24.5 36s-9 28.167 -9 43.5
s3 29.833 9 43.5s14.167 25.834 24.5 36.501s22.333 19 36 25s28.167 9 43.5 9s29.833 -3 43.5 -9s25.5 -14.333 35.5 -25s18 -22.834 24 -36.501s9 -28.167 9 -43.5zM459 1330c0 -15.333 -3 -29.833 -9 -43.5s-14 -25.667 -24 -36s-21.833 -18.5 -35.5 -24.5
s-27.834 -9 -42.501 -9c-16 0 -30.833 3 -44.5 9s-25.667 14.167 -36 24.5s-18.5 22.333 -24.5 36s-9 28.167 -9 43.5s3 29.833 9 43.5s14.167 25.834 24.5 36.501s22.333 19 36 25s28.5 9 44.5 9c14.667 0 28.834 -3 42.501 -9s25.5 -14.333 35.5 -25
s18 -22.834 24 -36.501s9 -28.167 9 -43.5z" />
    <glyph glyph-name="Amacron" unicode="&#x100;" horiz-adv-x="1389" 
d="M1280 0h-168l-123 365h-592l-125 -365h-163l497 1434h176zM940 510l-246 733l-248 -733h494zM415 1573v143h558v-143h-558z" />
    <glyph glyph-name="amacron" unicode="&#x101;" horiz-adv-x="1104" 
d="M786 0v131.001c-18.667 -20.667 -39.5 -40.334 -62.5 -59.001s-48.333 -35 -76 -49s-57.834 -25.167 -90.501 -33.5s-68 -12.5 -106 -12.5c-42 0 -83.667 5.66699 -125 17s-78.166 30.5 -110.499 57.5s-58.666 62.5 -78.999 106.5s-30.5 98.667 -30.5 164
c0 60 11.5 111.667 34.5 155s53.5 79 91.5 107s81.833 48.667 131.5 62s101.167 20 154.5 20c54.667 0 105 -6 151 -18s85 -26.667 117 -44v127c0 80.667 -19 140.5 -57 179.5s-96.667 58.5 -176 58.5c-56.667 0 -108.667 -7.33301 -156 -22s-93 -34.667 -137 -60l-57 125
c47.333 25.333 101.666 46 162.999 62s127 24 197 24c58 0 110.333 -6.5 157 -19.5s86.167 -33.5 118.5 -61.5s57.333 -64 75 -108s26.5 -97 26.5 -159v-750h-154zM786 481.001c-17.333 10 -35.334 18.8311 -54.001 26.498s-39 14.167 -61 19.5s-46.167 9.33301 -72.5 12
s-55.833 4 -88.5 4c-79.333 0 -141.166 -18.167 -185.499 -54.5s-66.5 -88.5 -66.5 -156.5c0 -40 5.33301 -74.5 16 -103.5s25.5 -52.833 44.5 -71.5s42 -32.5 69 -41.5s56.833 -13.5 89.5 -13.5c34.667 0 67.167 4.16699 97.5 12.5s58.5 19.833 84.5 34.5
s49.667 31.834 71 51.501s40 40.834 56 63.501v217zM271.999 1266v143h558v-143h-558z" />
    <glyph glyph-name="Abreve" unicode="&#x102;" horiz-adv-x="1389" 
d="M1280 0h-168l-123 365h-592l-125 -365h-163l497 1434h176zM940 510l-246 733l-248 -733h494zM1011 1715.5c-16.667 -40.333 -39.666 -74.499 -68.999 -102.499s-65 -49.5 -107 -64.5s-89.667 -22.5 -143 -22.5c-50 0 -95.5 7.5 -136.5 22.5s-76.5 36.5 -106.5 64.5
s-53.667 62.167 -71 102.5s-27.333 86.166 -30 137.499h127c6 -74 27.333 -128 64 -162s89 -51 157 -51c63.333 0 114 17.167 152 51.5s60.333 88.166 67 161.499h125c-2.66699 -51.333 -12.334 -97.166 -29.001 -137.499z" />
    <glyph glyph-name="abreve" unicode="&#x103;" horiz-adv-x="1104" 
d="M786 0v131.001c-18.667 -20.667 -39.5 -40.334 -62.5 -59.001s-48.333 -35 -76 -49s-57.834 -25.167 -90.501 -33.5s-68 -12.5 -106 -12.5c-42 0 -83.667 5.66699 -125 17s-78.166 30.5 -110.499 57.5s-58.666 62.5 -78.999 106.5s-30.5 98.667 -30.5 164
c0 60 11.5 111.667 34.5 155s53.5 79 91.5 107s81.833 48.667 131.5 62s101.167 20 154.5 20c54.667 0 105 -6 151 -18s85 -26.667 117 -44v127c0 80.667 -19 140.5 -57 179.5s-96.667 58.5 -176 58.5c-56.667 0 -108.667 -7.33301 -156 -22s-93 -34.667 -137 -60l-57 125
c47.333 25.333 101.666 46 162.999 62s127 24 197 24c58 0 110.333 -6.5 157 -19.5s86.167 -33.5 118.5 -61.5s57.333 -64 75 -108s26.5 -97 26.5 -159v-750h-154zM786 481.001c-17.333 10 -35.334 18.8311 -54.001 26.498s-39 14.167 -61 19.5s-46.167 9.33301 -72.5 12
s-55.833 4 -88.5 4c-79.333 0 -141.166 -18.167 -185.499 -54.5s-66.5 -88.5 -66.5 -156.5c0 -40 5.33301 -74.5 16 -103.5s25.5 -52.833 44.5 -71.5s42 -32.5 69 -41.5s56.833 -13.5 89.5 -13.5c34.667 0 67.167 4.16699 97.5 12.5s58.5 19.833 84.5 34.5
s49.667 31.834 71 51.501s40 40.834 56 63.501v217zM867.999 1408.5c-16.667 -40.333 -39.666 -74.499 -68.999 -102.499s-65 -49.5 -107 -64.5s-89.667 -22.5 -143 -22.5c-50 0 -95.5 7.5 -136.5 22.5s-76.5 36.5 -106.5 64.5s-53.667 62.167 -71 102.5
s-27.333 86.166 -30 137.499h127c6 -74 27.333 -128 64 -162s89 -51 157 -51c63.333 0 114 17.167 152 51.5s60.333 88.166 67 161.499h125c-2.66699 -51.333 -12.334 -97.166 -29.001 -137.499z" />
    <glyph glyph-name="Aogonek" unicode="&#x104;" horiz-adv-x="1389" 
d="M1280 0h-168l-123 365h-592l-125 -365h-163l497 1434h176zM940 510l-246 733l-248 -733h494zM1266 0c-28 -16 -51.9971 -30.335 -71.9971 -43.002s-40.167 -27 -60.5 -43s-37.833 -35 -52.5 -57s-22 -44.667 -22 -68c0 -22.667 5.83301 -38.5 17.5 -47.5
s26.167 -13.5 43.5 -13.5c14 0 27.667 2.83301 41 8.5s25 12.834 35 21.501l70 -102c-22.667 -22 -49.834 -38.5 -81.501 -49.5s-65.5 -16.5 -101.5 -16.5c-24.667 0 -48.334 3.66699 -71.001 11s-42.834 18 -60.501 32s-31.834 30.833 -42.501 50.5s-16 41.834 -16 66.501
c0 34 6.83301 64.333 20.5 91s30.834 49.5 51.501 68.5s41.667 35.333 63 49s49.333 27.5 84 41.5h154z" />
    <glyph glyph-name="aogonek" unicode="&#x105;" horiz-adv-x="1104" 
d="M786 0v131.001c-18.667 -20.667 -39.5 -40.334 -62.5 -59.001s-48.333 -35 -76 -49s-57.834 -25.167 -90.501 -33.5s-68 -12.5 -106 -12.5c-42 0 -83.667 5.66699 -125 17s-78.166 30.5 -110.499 57.5s-58.666 62.5 -78.999 106.5s-30.5 98.667 -30.5 164
c0 60 11.5 111.667 34.5 155s53.5 79 91.5 107s81.833 48.667 131.5 62s101.167 20 154.5 20c54.667 0 105 -6 151 -18s85 -26.667 117 -44v127c0 80.667 -19 140.5 -57 179.5s-96.667 58.5 -176 58.5c-56.667 0 -108.667 -7.33301 -156 -22s-93 -34.667 -137 -60l-57 125
c47.333 25.333 101.666 46 162.999 62s127 24 197 24c58 0 110.333 -6.5 157 -19.5s86.167 -33.5 118.5 -61.5s57.333 -64 75 -108s26.5 -97 26.5 -159v-750h-154zM786 481.001c-17.333 10 -35.334 18.8311 -54.001 26.498s-39 14.167 -61 19.5s-46.167 9.33301 -72.5 12
s-55.833 4 -88.5 4c-79.333 0 -141.166 -18.167 -185.499 -54.5s-66.5 -88.5 -66.5 -156.5c0 -40 5.33301 -74.5 16 -103.5s25.5 -52.833 44.5 -71.5s42 -32.5 69 -41.5s56.833 -13.5 89.5 -13.5c34.667 0 67.167 4.16699 97.5 12.5s58.5 19.833 84.5 34.5
s49.667 31.834 71 51.501s40 40.834 56 63.501v217zM939.999 -0.000976562c-28 -16 -51.9971 -30.335 -71.9971 -43.002s-40.167 -27 -60.5 -43s-37.833 -35 -52.5 -57s-22 -44.667 -22 -68c0 -22.667 5.83301 -38.5 17.5 -47.5s26.167 -13.5 43.5 -13.5
c14 0 27.667 2.83301 41 8.5s25 12.834 35 21.501l70 -102c-22.667 -22 -49.834 -38.5 -81.501 -49.5s-65.5 -16.5 -101.5 -16.5c-24.667 0 -48.334 3.66699 -71.001 11s-42.834 18 -60.501 32s-31.834 30.833 -42.501 50.5s-16 41.834 -16 66.501
c0 34 6.83301 64.333 20.5 91s30.834 49.5 51.501 68.5s41.667 35.333 63 49s49.333 27.5 84 41.5h154z" />
    <glyph glyph-name="Cacute" unicode="&#x106;" horiz-adv-x="1286" 
d="M1042 1130c-23.333 31.333 -46.502 58.334 -69.502 81.001s-47.5 41.5 -73.5 56.5s-54.5 26 -85.5 33s-65.833 10.5 -104.5 10.5c-61.333 0 -117.833 -14.5 -169.5 -43.5s-96.167 -69.667 -133.5 -122s-66.5 -114.833 -87.5 -187.5s-31.5 -152.334 -31.5 -239.001
c0 -87.333 10.667 -167.5 32 -240.5s51 -135.833 89 -188.5s82.833 -93.667 134.5 -123s107.834 -44 168.501 -44c77.333 0 144.166 16.5 200.499 49.5s107.5 79.167 153.5 138.5l111 -96c-26 -35.333 -55.333 -67.5 -88 -96.5s-68.5 -54 -107.5 -75
s-81.333 -37.333 -127 -49s-94.5 -17.5 -146.5 -17.5c-58.667 0 -113.667 8.5 -165 25.5s-98.5 41.167 -141.5 72.5s-81.333 69.166 -115 113.499s-62.334 93.833 -86.001 148.5s-41.667 113.834 -54 177.501s-18.5 130.5 -18.5 200.5c0 106.667 14.333 205.167 43 295.5
s68.834 168.5 120.501 234.5s113.334 117.667 185.001 155s150.834 56 237.501 56c98.667 0 185.167 -18.667 259.5 -56s139.833 -95 196.5 -173zM755.998 1526h-121l211 327h219z" />
    <glyph glyph-name="cacute" unicode="&#x107;" horiz-adv-x="1014" 
d="M911 127c-22.667 -23.333 -46.3369 -44.165 -71.0039 -62.498s-51 -34 -79 -47s-58.167 -23 -90.5 -30s-67.5 -10.5 -105.5 -10.5c-58.667 0 -115.167 11.333 -169.5 34s-102.5 57 -144.5 103s-75.5 103.833 -100.5 173.5s-37.5 151.167 -37.5 244.5
c0 99.333 13.5 184.666 40.5 255.999s62.333 130 106 176s93.167 79.833 148.5 101.5s111 32.5 167 32.5c73.333 0 137.833 -12 193.5 -36s104.5 -54.333 146.5 -91l-92 -115c-19.333 17.333 -38.666 32.833 -57.999 46.5s-39.166 25.167 -59.499 34.5s-42 16.333 -65 21
s-48.167 7 -75.5 7c-42 0 -81.167 -9.33301 -117.5 -28s-67.666 -45.834 -93.999 -81.501s-47.166 -79.667 -62.499 -132s-23 -111.833 -23 -178.5c0 -66 6.83301 -125.667 20.5 -179s33.5 -99 59.5 -137s57.833 -67.167 95.5 -87.5s80.167 -30.5 127.5 -30.5
c26 0 50.167 2.66699 72.5 8s43.333 12.833 63 22.5s38.667 21.5 57 35.5s36.833 30 55.5 48zM509.997 1219h-121l211 327h219z" />
    <glyph glyph-name="Ccircumflex" unicode="&#x108;" horiz-adv-x="1286" 
d="M1042 1130c-23.333 31.333 -46.502 58.334 -69.502 81.001s-47.5 41.5 -73.5 56.5s-54.5 26 -85.5 33s-65.833 10.5 -104.5 10.5c-61.333 0 -117.833 -14.5 -169.5 -43.5s-96.167 -69.667 -133.5 -122s-66.5 -114.833 -87.5 -187.5s-31.5 -152.334 -31.5 -239.001
c0 -87.333 10.667 -167.5 32 -240.5s51 -135.833 89 -188.5s82.833 -93.667 134.5 -123s107.834 -44 168.501 -44c77.333 0 144.166 16.5 200.499 49.5s107.5 79.167 153.5 138.5l111 -96c-26 -35.333 -55.333 -67.5 -88 -96.5s-68.5 -54 -107.5 -75
s-81.333 -37.333 -127 -49s-94.5 -17.5 -146.5 -17.5c-58.667 0 -113.667 8.5 -165 25.5s-98.5 41.167 -141.5 72.5s-81.333 69.166 -115 113.499s-62.334 93.833 -86.001 148.5s-41.667 113.834 -54 177.501s-18.5 130.5 -18.5 200.5c0 106.667 14.333 205.167 43 295.5
s68.834 168.5 120.501 234.5s113.334 117.667 185.001 155s150.834 56 237.501 56c98.667 0 185.167 -18.667 259.5 -56s139.833 -95 196.5 -173zM923.998 1516l-207 211l-207 -211h-129l252 327h172l252 -327h-133z" />
    <glyph glyph-name="ccircumflex" unicode="&#x109;" horiz-adv-x="1014" 
d="M911 127c-22.667 -23.333 -46.3369 -44.165 -71.0039 -62.498s-51 -34 -79 -47s-58.167 -23 -90.5 -30s-67.5 -10.5 -105.5 -10.5c-58.667 0 -115.167 11.333 -169.5 34s-102.5 57 -144.5 103s-75.5 103.833 -100.5 173.5s-37.5 151.167 -37.5 244.5
c0 99.333 13.5 184.666 40.5 255.999s62.333 130 106 176s93.167 79.833 148.5 101.5s111 32.5 167 32.5c73.333 0 137.833 -12 193.5 -36s104.5 -54.333 146.5 -91l-92 -115c-19.333 17.333 -38.666 32.833 -57.999 46.5s-39.166 25.167 -59.499 34.5s-42 16.333 -65 21
s-48.167 7 -75.5 7c-42 0 -81.167 -9.33301 -117.5 -28s-67.666 -45.834 -93.999 -81.501s-47.166 -79.667 -62.499 -132s-23 -111.833 -23 -178.5c0 -66 6.83301 -125.667 20.5 -179s33.5 -99 59.5 -137s57.833 -67.167 95.5 -87.5s80.167 -30.5 127.5 -30.5
c26 0 50.167 2.66699 72.5 8s43.333 12.833 63 22.5s38.667 21.5 57 35.5s36.833 30 55.5 48zM782.997 1201l-207 211l-207 -211h-129l252 327h172l252 -327h-133z" />
    <glyph glyph-name="Cdotaccent" unicode="&#x10a;" horiz-adv-x="1286" 
d="M1042 1130c-23.333 31.333 -46.502 58.334 -69.502 81.001s-47.5 41.5 -73.5 56.5s-54.5 26 -85.5 33s-65.833 10.5 -104.5 10.5c-61.333 0 -117.833 -14.5 -169.5 -43.5s-96.167 -69.667 -133.5 -122s-66.5 -114.833 -87.5 -187.5s-31.5 -152.334 -31.5 -239.001
c0 -87.333 10.667 -167.5 32 -240.5s51 -135.833 89 -188.5s82.833 -93.667 134.5 -123s107.834 -44 168.501 -44c77.333 0 144.166 16.5 200.499 49.5s107.5 79.167 153.5 138.5l111 -96c-26 -35.333 -55.333 -67.5 -88 -96.5s-68.5 -54 -107.5 -75
s-81.333 -37.333 -127 -49s-94.5 -17.5 -146.5 -17.5c-58.667 0 -113.667 8.5 -165 25.5s-98.5 41.167 -141.5 72.5s-81.333 69.166 -115 113.499s-62.334 93.833 -86.001 148.5s-41.667 113.834 -54 177.501s-18.5 130.5 -18.5 200.5c0 106.667 14.333 205.167 43 295.5
s68.834 168.5 120.501 234.5s113.334 117.667 185.001 155s150.834 56 237.501 56c98.667 0 185.167 -18.667 259.5 -56s139.833 -95 196.5 -173zM827.998 1655c0 -15.333 -3 -29.833 -9 -43.5s-14.167 -25.667 -24.5 -36s-22.333 -18.5 -36 -24.5s-28.167 -9 -43.5 -9
s-29.833 3 -43.5 9s-25.667 14.167 -36 24.5s-18.5 22.333 -24.5 36s-9 28.167 -9 43.5s3 29.833 9 43.5s14.167 25.834 24.5 36.501s22.333 19 36 25s28.167 9 43.5 9s29.833 -3 43.5 -9s25.667 -14.333 36 -25s18.5 -22.834 24.5 -36.501s9 -28.167 9 -43.5z" />
    <glyph glyph-name="cdotaccent" unicode="&#x10b;" horiz-adv-x="1014" 
d="M911 127c-22.667 -23.333 -46.3369 -44.165 -71.0039 -62.498s-51 -34 -79 -47s-58.167 -23 -90.5 -30s-67.5 -10.5 -105.5 -10.5c-58.667 0 -115.167 11.333 -169.5 34s-102.5 57 -144.5 103s-75.5 103.833 -100.5 173.5s-37.5 151.167 -37.5 244.5
c0 99.333 13.5 184.666 40.5 255.999s62.333 130 106 176s93.167 79.833 148.5 101.5s111 32.5 167 32.5c73.333 0 137.833 -12 193.5 -36s104.5 -54.333 146.5 -91l-92 -115c-19.333 17.333 -38.666 32.833 -57.999 46.5s-39.166 25.167 -59.499 34.5s-42 16.333 -65 21
s-48.167 7 -75.5 7c-42 0 -81.167 -9.33301 -117.5 -28s-67.666 -45.834 -93.999 -81.501s-47.166 -79.667 -62.499 -132s-23 -111.833 -23 -178.5c0 -66 6.83301 -125.667 20.5 -179s33.5 -99 59.5 -137s57.833 -67.167 95.5 -87.5s80.167 -30.5 127.5 -30.5
c26 0 50.167 2.66699 72.5 8s43.333 12.833 63 22.5s38.667 21.5 57 35.5s36.833 30 55.5 48zM690.997 1348c0 -15.333 -3 -29.833 -9 -43.5s-14.167 -25.667 -24.5 -36s-22.333 -18.5 -36 -24.5s-28.167 -9 -43.5 -9s-29.833 3 -43.5 9s-25.667 14.167 -36 24.5
s-18.5 22.333 -24.5 36s-9 28.167 -9 43.5s3 29.833 9 43.5s14.167 25.834 24.5 36.501s22.333 19 36 25s28.167 9 43.5 9s29.833 -3 43.5 -9s25.667 -14.333 36 -25s18.5 -22.834 24.5 -36.501s9 -28.167 9 -43.5z" />
    <glyph glyph-name="Ccaron" unicode="&#x10c;" horiz-adv-x="1286" 
d="M1042 1130c-23.333 31.333 -46.502 58.334 -69.502 81.001s-47.5 41.5 -73.5 56.5s-54.5 26 -85.5 33s-65.833 10.5 -104.5 10.5c-61.333 0 -117.833 -14.5 -169.5 -43.5s-96.167 -69.667 -133.5 -122s-66.5 -114.833 -87.5 -187.5s-31.5 -152.334 -31.5 -239.001
c0 -87.333 10.667 -167.5 32 -240.5s51 -135.833 89 -188.5s82.833 -93.667 134.5 -123s107.834 -44 168.501 -44c77.333 0 144.166 16.5 200.499 49.5s107.5 79.167 153.5 138.5l111 -96c-26 -35.333 -55.333 -67.5 -88 -96.5s-68.5 -54 -107.5 -75
s-81.333 -37.333 -127 -49s-94.5 -17.5 -146.5 -17.5c-58.667 0 -113.667 8.5 -165 25.5s-98.5 41.167 -141.5 72.5s-81.333 69.166 -115 113.499s-62.334 93.833 -86.001 148.5s-41.667 113.834 -54 177.501s-18.5 130.5 -18.5 200.5c0 106.667 14.333 205.167 43 295.5
s68.834 168.5 120.501 234.5s113.334 117.667 185.001 155s150.834 56 237.501 56c98.667 0 185.167 -18.667 259.5 -56s139.833 -95 196.5 -173zM802.998 1516h-172l-252 327h133l207 -211l207 211h129z" />
    <glyph glyph-name="ccaron" unicode="&#x10d;" horiz-adv-x="1014" 
d="M911 127c-22.667 -23.333 -46.3369 -44.165 -71.0039 -62.498s-51 -34 -79 -47s-58.167 -23 -90.5 -30s-67.5 -10.5 -105.5 -10.5c-58.667 0 -115.167 11.333 -169.5 34s-102.5 57 -144.5 103s-75.5 103.833 -100.5 173.5s-37.5 151.167 -37.5 244.5
c0 99.333 13.5 184.666 40.5 255.999s62.333 130 106 176s93.167 79.833 148.5 101.5s111 32.5 167 32.5c73.333 0 137.833 -12 193.5 -36s104.5 -54.333 146.5 -91l-92 -115c-19.333 17.333 -38.666 32.833 -57.999 46.5s-39.166 25.167 -59.499 34.5s-42 16.333 -65 21
s-48.167 7 -75.5 7c-42 0 -81.167 -9.33301 -117.5 -28s-67.666 -45.834 -93.999 -81.501s-47.166 -79.667 -62.499 -132s-23 -111.833 -23 -178.5c0 -66 6.83301 -125.667 20.5 -179s33.5 -99 59.5 -137s57.833 -67.167 95.5 -87.5s80.167 -30.5 127.5 -30.5
c26 0 50.167 2.66699 72.5 8s43.333 12.833 63 22.5s38.667 21.5 57 35.5s36.833 30 55.5 48zM658.997 1219h-172l-252 327h133l207 -211l207 211h129z" />
    <glyph glyph-name="Dcaron" unicode="&#x10e;" horiz-adv-x="1348" 
d="M1221 727c0 -64.667 -4.16504 -124.001 -12.498 -178.001s-23.5 -110.833 -45.5 -170.5s-54.667 -115 -98 -166s-92.833 -92.167 -148.5 -123.5s-114.834 -54 -177.501 -68s-129.334 -21 -200.001 -21h-351v1434h379c94 0 181 -13.833 261 -41.5
s149.167 -70.167 207.5 -127.5s103.833 -130.666 136.5 -219.999s49 -195.333 49 -318zM1061 720.999c0 91.333 -10.8311 172.334 -32.498 243.001s-53.834 130 -96.501 178s-95.5 84.333 -158.5 109s-135.833 37 -218.5 37h-207v-1143h211c77.333 0 147 10.667 209 32
s114.667 55.166 158 101.499s76.666 105.833 99.999 178.5s35 160.667 35 264zM760.004 1526h-172l-252 327h133l207 -211l207 211h129z" />
    <glyph glyph-name="dcaron" unicode="&#x10f;" horiz-adv-x="1233" 
d="M821 0l-0.00292969 131.003c-19.333 -20.667 -40.166 -40.334 -62.499 -59.001s-46.666 -35 -72.999 -49s-55.166 -25.167 -86.499 -33.5s-65 -12.5 -101 -12.5c-54 0 -104.333 10.5 -151 31.5s-87.334 53.667 -122.001 98s-62 100.666 -82 168.999
s-30 149.833 -30 244.5c0 95.333 10.5 179 31.5 251s49.833 132.333 86.5 181s79.667 85.167 129 109.5s102 36.5 158 36.5c34 0 65.333 -3.5 94 -10.5s55.334 -16.833 80.001 -29.5s47.5 -27.834 68.5 -45.501s41.167 -37.167 60.5 -58.5v453l154 86v-1493h-154z
M820.997 803.003c-14.667 22.667 -32.165 43.832 -52.498 63.499s-42.833 36.834 -67.5 51.501s-51.334 26.167 -80.001 34.5s-59 12.5 -91 12.5c-89.333 0 -156 -37.5 -200 -112.5s-66 -185.167 -66 -330.5c0 -70 6.66699 -131.333 20 -184s32.666 -96 57.999 -130
s54.333 -58.667 87 -74s68.667 -23 108 -23c31.333 0 59.333 3.66699 84 11s48.667 17.666 72 30.999s45.5 29.333 66.5 48s41.5 40.334 61.5 65.001v537zM1208 977.001h-106l30 457h209z" />
    <glyph glyph-name="Dcroat" unicode="&#x110;" horiz-adv-x="1397" 
d="M1241 727c0 -130 -17.5 -241.001 -52.5 -333.001s-83.167 -167.167 -144.5 -225.5s-133.5 -101 -216.5 -128s-172.5 -40.5 -268.5 -40.5h-350v678h-127v143h127v613h379c94 0 181 -13.833 261 -41.5s149 -70.167 207 -127.5s103.333 -130.666 136 -219.999
s49 -195.333 49 -318zM1081 720.999c0 91.333 -10.8311 172.334 -32.498 243.001s-53.834 130 -96.501 178s-95.5 84.333 -158.5 109s-135.833 37 -218.5 37h-210v-467h290v-143h-290v-533h215c77.333 0 146.833 10.667 208.5 32s114.167 55.166 157.5 101.499
s76.666 105.833 99.999 178.5s35 160.667 35 264z" />
    <glyph glyph-name="dcroat" unicode="&#x111;" horiz-adv-x="1176" 
d="M1167 1288v-142.998h-192v-1145h-154v131c-49.333 -52.667 -100.5 -91.5 -153.5 -116.5s-109.5 -37.5 -169.5 -37.5c-54 0 -104.333 10.5 -151 31.5s-87.334 53.667 -122.001 98s-62 100.666 -82 168.999s-30 149.833 -30 244.5c0 95.333 10.5 179 31.5 251
s49.833 132.333 86.5 181s79.667 85.167 129 109.5s102 36.5 158 36.5c34 0 65.333 -3.5 94 -10.5s55.334 -16.833 80.001 -29.5s47.5 -27.834 68.5 -45.501s41.167 -37.167 60.5 -58.5v191h-211v143h211v119l154 86v-205h192zM821 803.002
c-14.667 22.667 -32.165 43.832 -52.498 63.499s-42.833 36.834 -67.5 51.501s-51.334 26.167 -80.001 34.5s-59 12.5 -91 12.5c-89.333 0 -156 -37.5 -200 -112.5s-66 -185.167 -66 -330.5c0 -70 6.66699 -131.333 20 -184s32.666 -96 57.999 -130s54.333 -58.667 87 -74
s68.667 -23 108 -23c31.333 0 59.333 3.66699 84 11s48.667 17.666 72 30.999s45.5 29.333 66.5 48s41.5 40.334 61.5 65.001v537z" />
    <glyph glyph-name="Emacron" unicode="&#x112;" horiz-adv-x="1202" 
d="M1085 0h-897v1434h867v-146h-707v-450h572v-146h-572v-547h737v-145zM356 1573v143h558v-143h-558z" />
    <glyph glyph-name="emacron" unicode="&#x113;" horiz-adv-x="1106" 
d="M989 569c0 -18.667 -0.499023 -34.1689 -1.49902 -46.502s-2.5 -24.833 -4.5 -37.5h-717c4 -57.333 13.5 -109 28.5 -155s35.167 -85.333 60.5 -118s55.666 -57.667 90.999 -75s75 -26 119 -26c31.333 0 59.833 2.16699 85.5 6.5s50 10.833 73 19.5
s45.667 19.334 68 32.001s45.833 27.334 70.5 44.001l72 -111c-32 -20.667 -62.5 -38.834 -91.5 -54.501s-58.5 -28.667 -88.5 -39s-61.5 -18.166 -94.5 -23.499s-69.833 -8 -110.5 -8c-32.667 0 -66.167 4.16699 -100.5 12.5s-67.666 21.833 -99.999 40.5
s-62.833 42.667 -91.5 72s-53.667 65 -75 107s-38.166 90.667 -50.499 146s-18.5 118 -18.5 188c0 85.333 11.167 162.333 33.5 231s53.166 127 92.499 175s86.166 84.833 140.499 110.5s113.5 38.5 177.5 38.5c70 0 132 -13.167 186 -39.5s99.167 -62.833 135.5 -109.5
s63.833 -102.5 82.5 -167.5s28 -135.833 28 -212.5zM846.001 609.998c-3.33301 52 -11.499 99.834 -24.499 143.501s-31.333 81.167 -55 112.5s-53.167 55.666 -88.5 72.999s-76.333 26 -123 26c-40 0 -76.667 -7.16699 -110 -21.5s-62.5 -36.333 -87.5 -66
s-45.333 -66.667 -61 -111s-25.834 -96.5 -30.501 -156.5h580zM274.002 1266v143h558v-143h-558z" />
    <glyph glyph-name="Ebreve" unicode="&#x114;" horiz-adv-x="1202" 
d="M1085 0h-897v1434h867v-146h-707v-450h572v-146h-572v-547h737v-145zM938 1715.5c-16.667 -40.333 -39.666 -74.499 -68.999 -102.499s-65 -49.5 -107 -64.5s-89.667 -22.5 -143 -22.5c-50 0 -95.5 7.5 -136.5 22.5s-76.5 36.5 -106.5 64.5s-53.667 62.167 -71 102.5
s-27.333 86.166 -30 137.499h127c6 -74 27.333 -128 64 -162s89 -51 157 -51c63.333 0 114 17.167 152 51.5s60.333 88.166 67 161.499h125c-2.66699 -51.333 -12.334 -97.166 -29.001 -137.499z" />
    <glyph glyph-name="ebreve" unicode="&#x115;" horiz-adv-x="1106" 
d="M989 569c0 -18.667 -0.499023 -34.1689 -1.49902 -46.502s-2.5 -24.833 -4.5 -37.5h-717c4 -57.333 13.5 -109 28.5 -155s35.167 -85.333 60.5 -118s55.666 -57.667 90.999 -75s75 -26 119 -26c31.333 0 59.833 2.16699 85.5 6.5s50 10.833 73 19.5
s45.667 19.334 68 32.001s45.833 27.334 70.5 44.001l72 -111c-32 -20.667 -62.5 -38.834 -91.5 -54.501s-58.5 -28.667 -88.5 -39s-61.5 -18.166 -94.5 -23.499s-69.833 -8 -110.5 -8c-32.667 0 -66.167 4.16699 -100.5 12.5s-67.666 21.833 -99.999 40.5
s-62.833 42.667 -91.5 72s-53.667 65 -75 107s-38.166 90.667 -50.499 146s-18.5 118 -18.5 188c0 85.333 11.167 162.333 33.5 231s53.166 127 92.499 175s86.166 84.833 140.499 110.5s113.5 38.5 177.5 38.5c70 0 132 -13.167 186 -39.5s99.167 -62.833 135.5 -109.5
s63.833 -102.5 82.5 -167.5s28 -135.833 28 -212.5zM846.001 609.998c-3.33301 52 -11.499 99.834 -24.499 143.501s-31.333 81.167 -55 112.5s-53.167 55.666 -88.5 72.999s-76.333 26 -123 26c-40 0 -76.667 -7.16699 -110 -21.5s-62.5 -36.333 -87.5 -66
s-45.333 -66.667 -61 -111s-25.834 -96.5 -30.501 -156.5h580zM872.002 1408.5c-16.667 -40.333 -39.666 -74.499 -68.999 -102.499s-65 -49.5 -107 -64.5s-89.667 -22.5 -143 -22.5c-50 0 -95.5 7.5 -136.5 22.5s-76.5 36.5 -106.5 64.5s-53.667 62.167 -71 102.5
s-27.333 86.166 -30 137.499h127c6 -74 27.333 -128 64 -162s89 -51 157 -51c63.333 0 114 17.167 152 51.5s60.333 88.166 67 161.499h125c-2.66699 -51.333 -12.334 -97.166 -29.001 -137.499z" />
    <glyph glyph-name="Edotaccent" unicode="&#x116;" horiz-adv-x="1202" 
d="M1085 0h-897v1434h867v-146h-707v-450h572v-146h-572v-547h737v-145zM713 1655c0 -15.333 -3 -29.833 -9 -43.5s-14.167 -25.667 -24.5 -36s-22.333 -18.5 -36 -24.5s-28.167 -9 -43.5 -9s-29.833 3 -43.5 9s-25.667 14.167 -36 24.5s-18.5 22.333 -24.5 36
s-9 28.167 -9 43.5s3 29.833 9 43.5s14.167 25.834 24.5 36.501s22.333 19 36 25s28.167 9 43.5 9s29.833 -3 43.5 -9s25.667 -14.333 36 -25s18.5 -22.834 24.5 -36.501s9 -28.167 9 -43.5z" />
    <glyph glyph-name="edotaccent" unicode="&#x117;" horiz-adv-x="1106" 
d="M989 569c0 -18.667 -0.499023 -34.1689 -1.49902 -46.502s-2.5 -24.833 -4.5 -37.5h-717c4 -57.333 13.5 -109 28.5 -155s35.167 -85.333 60.5 -118s55.666 -57.667 90.999 -75s75 -26 119 -26c31.333 0 59.833 2.16699 85.5 6.5s50 10.833 73 19.5
s45.667 19.334 68 32.001s45.833 27.334 70.5 44.001l72 -111c-32 -20.667 -62.5 -38.834 -91.5 -54.501s-58.5 -28.667 -88.5 -39s-61.5 -18.166 -94.5 -23.499s-69.833 -8 -110.5 -8c-32.667 0 -66.167 4.16699 -100.5 12.5s-67.666 21.833 -99.999 40.5
s-62.833 42.667 -91.5 72s-53.667 65 -75 107s-38.166 90.667 -50.499 146s-18.5 118 -18.5 188c0 85.333 11.167 162.333 33.5 231s53.166 127 92.499 175s86.166 84.833 140.499 110.5s113.5 38.5 177.5 38.5c70 0 132 -13.167 186 -39.5s99.167 -62.833 135.5 -109.5
s63.833 -102.5 82.5 -167.5s28 -135.833 28 -212.5zM846.001 609.998c-3.33301 52 -11.499 99.834 -24.499 143.501s-31.333 81.167 -55 112.5s-53.167 55.666 -88.5 72.999s-76.333 26 -123 26c-40 0 -76.667 -7.16699 -110 -21.5s-62.5 -36.333 -87.5 -66
s-45.333 -66.667 -61 -111s-25.834 -96.5 -30.501 -156.5h580zM666.002 1348c0 -15.333 -3 -29.833 -9 -43.5s-14.167 -25.667 -24.5 -36s-22.333 -18.5 -36 -24.5s-28.167 -9 -43.5 -9s-29.833 3 -43.5 9s-25.667 14.167 -36 24.5s-18.5 22.333 -24.5 36s-9 28.167 -9 43.5
s3 29.833 9 43.5s14.167 25.834 24.5 36.501s22.333 19 36 25s28.167 9 43.5 9s29.833 -3 43.5 -9s25.667 -14.333 36 -25s18.5 -22.834 24.5 -36.501s9 -28.167 9 -43.5z" />
    <glyph glyph-name="Eogonek" unicode="&#x118;" horiz-adv-x="1202" 
d="M1085 0h-897v1434h867v-146h-707v-450h572v-146h-572v-547h737v-145zM1085 0c-28 -16 -51.9971 -30.335 -71.9971 -43.002s-40.167 -27 -60.5 -43s-37.833 -35 -52.5 -57s-22 -44.667 -22 -68c0 -22.667 5.83301 -38.5 17.5 -47.5s26.167 -13.5 43.5 -13.5
c14 0 27.667 2.83301 41 8.5s25 12.834 35 21.501l70 -102c-22.667 -22 -49.834 -38.5 -81.501 -49.5s-65.5 -16.5 -101.5 -16.5c-24.667 0 -48.334 3.66699 -71.001 11s-42.834 18 -60.501 32s-31.834 30.833 -42.501 50.5s-16 41.834 -16 66.501
c0 34 6.83301 64.333 20.5 91s30.834 49.5 51.501 68.5s41.667 35.333 63 49s49.333 27.5 84 41.5h154z" />
    <glyph glyph-name="eogonek" unicode="&#x119;" horiz-adv-x="1106" 
d="M862 213l72.001 -110.998l-84.5 -52l-64.5 -41c-21.333 -14 -42.666 -29 -63.999 -45s-41 -32.667 -59 -50s-33.5 -37.333 -46.5 -60s-19.5 -46.334 -19.5 -71.001c0 -13.333 6.16699 -26.166 18.5 -38.499s28.166 -18.5 47.499 -18.5
c12.667 0 24.834 2.16699 36.501 6.5s22.5 10.166 32.5 17.499l66 -98c-26 -18.667 -53.333 -33.667 -82 -45s-58 -17 -88 -17c-27.333 0 -52.333 3.83301 -75 11.5s-42.167 18.667 -58.5 33s-29 32 -38 53s-13.5 45.167 -13.5 72.5c0 42 15 82 45 120s67 70.333 111 97
c-70 -4.66699 -136 4.83301 -198 28.5s-116.167 63.667 -162.5 120s-78.666 121 -96.999 194s-27.5 147.5 -27.5 223.5c0 85.333 11.167 162.333 33.5 231s53.166 127 92.499 175s86.166 84.833 140.499 110.5s113.5 38.5 177.5 38.5c70 0 132 -13.167 186 -39.5
s99.167 -62.833 135.5 -109.5s63.833 -102.5 82.5 -167.5s28 -135.833 28 -212.5c0 -18.667 -0.5 -34.167 -1.5 -46.5s-2.5 -24.833 -4.5 -37.5h-717c4 -57.333 13.5 -109 28.5 -155s35.167 -85.333 60.5 -118s55.666 -57.667 90.999 -75s75 -26 119 -26
c53.333 0 101.833 7.16699 145.5 21.5s94.167 41.166 151.5 80.499zM846.001 610.002c-3.33301 52 -11.499 99.834 -24.499 143.501s-31.333 81.167 -55 112.5s-53 55.666 -88 72.999s-76.167 26 -123.5 26c-40 0 -76.667 -7.16699 -110 -21.5s-62.5 -36.333 -87.5 -66
s-45.333 -66.667 -61 -111s-25.834 -96.5 -30.501 -156.5h580z" />
    <glyph glyph-name="Ecaron" unicode="&#x11a;" horiz-adv-x="1202" 
d="M1085 0h-897v1434h867v-146h-707v-450h572v-146h-572v-547h737v-145zM704 1526h-172l-252 327h133l207 -211l207 211h129z" />
    <glyph glyph-name="ecaron" unicode="&#x11b;" horiz-adv-x="1106" 
d="M989 569c0 -18.667 -0.499023 -34.1689 -1.49902 -46.502s-2.5 -24.833 -4.5 -37.5h-717c4 -57.333 13.5 -109 28.5 -155s35.167 -85.333 60.5 -118s55.666 -57.667 90.999 -75s75 -26 119 -26c31.333 0 59.833 2.16699 85.5 6.5s50 10.833 73 19.5
s45.667 19.334 68 32.001s45.833 27.334 70.5 44.001l72 -111c-32 -20.667 -62.5 -38.834 -91.5 -54.501s-58.5 -28.667 -88.5 -39s-61.5 -18.166 -94.5 -23.499s-69.833 -8 -110.5 -8c-32.667 0 -66.167 4.16699 -100.5 12.5s-67.666 21.833 -99.999 40.5
s-62.833 42.667 -91.5 72s-53.667 65 -75 107s-38.166 90.667 -50.499 146s-18.5 118 -18.5 188c0 85.333 11.167 162.333 33.5 231s53.166 127 92.499 175s86.166 84.833 140.499 110.5s113.5 38.5 177.5 38.5c70 0 132 -13.167 186 -39.5s99.167 -62.833 135.5 -109.5
s63.833 -102.5 82.5 -167.5s28 -135.833 28 -212.5zM846.001 609.998c-3.33301 52 -11.499 99.834 -24.499 143.501s-31.333 81.167 -55 112.5s-53.167 55.666 -88.5 72.999s-76.333 26 -123 26c-40 0 -76.667 -7.16699 -110 -21.5s-62.5 -36.333 -87.5 -66
s-45.333 -66.667 -61 -111s-25.834 -96.5 -30.501 -156.5h580zM639.002 1219h-172l-252 327h133l207 -211l207 211h129z" />
    <glyph glyph-name="Gcircumflex" unicode="&#x11c;" horiz-adv-x="1350" 
d="M1237 571c0 -98.667 -13.3379 -185.165 -40.0049 -259.498s-63.667 -136.166 -111 -185.499s-103.333 -86.5 -168 -111.5s-135 -37.5 -211 -37.5c-92 0 -175 20.667 -249 62s-134.667 95.166 -182 161.499s-83.666 141.666 -108.999 225.999s-38.666 180.5 -39.999 288.5
c0 106.667 14.333 205.167 43 295.5s68.834 168.5 120.501 234.5s113.334 117.667 185.001 155s150.834 56 237.501 56c98.667 0 185.167 -18.667 259.5 -56s139.833 -95 196.5 -173l-127 -97c-23.333 31.333 -46.5 58.333 -69.5 81s-47.5 41.5 -73.5 56.5
s-54.5 26 -85.5 33s-65.833 10.5 -104.5 10.5c-61.333 0 -117.833 -14.5 -169.5 -43.5s-96.167 -69.667 -133.5 -122s-66.5 -114.833 -87.5 -187.5s-31.5 -152.334 -31.5 -239.001c0 -87.333 10.833 -167.5 32.5 -240.5s51.5 -135.833 89.5 -188.5
s82.833 -93.667 134.5 -123s107.5 -44 167.5 -44c120 0 211.667 36 275 108s95 178.667 95 320v12h-258v148h414v-140zM923.995 1516l-207 211l-207 -211h-129l252 327h172l252 -327h-133z" />
    <glyph glyph-name="gcircumflex" unicode="&#x11d;" horiz-adv-x="1145" 
d="M975 96c0 -76.667 -9.66895 -145.829 -29.002 -207.496s-51.333 -113.167 -96 -154.5c-41.333 -39.333 -99 -69.833 -173 -91.5s-167.333 -34.167 -280 -37.5l-39 125c102 0 183.167 6.66699 243.5 20s104.166 31.666 131.499 54.999c30 26 52.167 61.5 66.5 106.5
s21.5 99.833 21.5 164.5v55c-19.333 -20.667 -40.166 -40.334 -62.499 -59.001s-46.666 -35 -72.999 -49s-55.166 -25.167 -86.499 -33.5s-65 -12.5 -101 -12.5c-54 0 -104.333 10.5 -151 31.5s-87.334 53.667 -122.001 98s-62 100.666 -82 168.999s-30 149.833 -30 244.5
c0 95.333 10.5 179 31.5 251s49.833 132.333 86.5 181s79.667 85.167 129 109.5s102 36.5 158 36.5c34 0 65.333 -3.5 94 -10.5s55.334 -16.833 80.001 -29.5s47.5 -27.834 68.5 -45.501s41.167 -37.167 60.5 -58.5v121h154v-979zM536.998 111.005
c57.333 0 109.502 13.9971 156.502 41.9971s89.5 65.667 127.5 113v537c-14.667 22.667 -32.167 43.834 -52.5 63.501s-42.833 36.834 -67.5 51.501s-51.334 26.167 -80.001 34.5s-59 12.5 -91 12.5c-89.333 0 -156 -37.5 -200 -112.5s-66 -185.167 -66 -330.5
c0 -135.333 24.167 -237.666 72.5 -306.999s115.166 -104 200.499 -104zM783 1201l-207 211l-207 -211h-129l252 327h172l252 -327h-133z" />
    <glyph glyph-name="Gbreve" unicode="&#x11e;" horiz-adv-x="1350" 
d="M1237 571c0 -98.667 -13.3379 -185.165 -40.0049 -259.498s-63.667 -136.166 -111 -185.499s-103.333 -86.5 -168 -111.5s-135 -37.5 -211 -37.5c-92 0 -175 20.667 -249 62s-134.667 95.166 -182 161.499s-83.666 141.666 -108.999 225.999s-38.666 180.5 -39.999 288.5
c0 106.667 14.333 205.167 43 295.5s68.834 168.5 120.501 234.5s113.334 117.667 185.001 155s150.834 56 237.501 56c98.667 0 185.167 -18.667 259.5 -56s139.833 -95 196.5 -173l-127 -97c-23.333 31.333 -46.5 58.333 -69.5 81s-47.5 41.5 -73.5 56.5
s-54.5 26 -85.5 33s-65.833 10.5 -104.5 10.5c-61.333 0 -117.833 -14.5 -169.5 -43.5s-96.167 -69.667 -133.5 -122s-66.5 -114.833 -87.5 -187.5s-31.5 -152.334 -31.5 -239.001c0 -87.333 10.833 -167.5 32.5 -240.5s51.5 -135.833 89.5 -188.5
s82.833 -93.667 134.5 -123s107.5 -44 167.5 -44c120 0 211.667 36 275 108s95 178.667 95 320v12h-258v148h414v-140zM1036 1705.5c-16.667 -40.333 -39.666 -74.499 -68.999 -102.499s-65 -49.5 -107 -64.5s-89.667 -22.5 -143 -22.5c-50 0 -95.5 7.5 -136.5 22.5
s-76.5 36.5 -106.5 64.5s-53.667 62.167 -71 102.5s-27.333 86.166 -30 137.499h127c6 -74 27.333 -128 64 -162s89 -51 157 -51c63.333 0 114 17.167 152 51.5s60.333 88.166 67 161.499h125c-2.66699 -51.333 -12.334 -97.166 -29.001 -137.499z" />
    <glyph glyph-name="gbreve" unicode="&#x11f;" horiz-adv-x="1145" 
d="M975 96c0 -76.667 -9.66895 -145.829 -29.002 -207.496s-51.333 -113.167 -96 -154.5c-41.333 -39.333 -99 -69.833 -173 -91.5s-167.333 -34.167 -280 -37.5l-39 125c102 0 183.167 6.66699 243.5 20s104.166 31.666 131.499 54.999c30 26 52.167 61.5 66.5 106.5
s21.5 99.833 21.5 164.5v55c-19.333 -20.667 -40.166 -40.334 -62.499 -59.001s-46.666 -35 -72.999 -49s-55.166 -25.167 -86.499 -33.5s-65 -12.5 -101 -12.5c-54 0 -104.333 10.5 -151 31.5s-87.334 53.667 -122.001 98s-62 100.666 -82 168.999s-30 149.833 -30 244.5
c0 95.333 10.5 179 31.5 251s49.833 132.333 86.5 181s79.667 85.167 129 109.5s102 36.5 158 36.5c34 0 65.333 -3.5 94 -10.5s55.334 -16.833 80.001 -29.5s47.5 -27.834 68.5 -45.501s41.167 -37.167 60.5 -58.5v121h154v-979zM536.998 111.005
c57.333 0 109.502 13.9971 156.502 41.9971s89.5 65.667 127.5 113v537c-14.667 22.667 -32.167 43.834 -52.5 63.501s-42.833 36.834 -67.5 51.501s-51.334 26.167 -80.001 34.5s-59 12.5 -91 12.5c-89.333 0 -156 -37.5 -200 -112.5s-66 -185.167 -66 -330.5
c0 -135.333 24.167 -237.666 72.5 -306.999s115.166 -104 200.499 -104zM888 1408.5c-16.667 -40.333 -39.666 -74.499 -68.999 -102.499s-65 -49.5 -107 -64.5s-89.667 -22.5 -143 -22.5c-50 0 -95.5 7.5 -136.5 22.5s-76.5 36.5 -106.5 64.5s-53.667 62.167 -71 102.5
s-27.333 86.166 -30 137.499h127c6 -74 27.333 -128 64 -162s89 -51 157 -51c63.333 0 114 17.167 152 51.5s60.333 88.166 67 161.499h125c-2.66699 -51.333 -12.334 -97.166 -29.001 -137.499z" />
    <glyph glyph-name="Gdotaccent" unicode="&#x120;" horiz-adv-x="1350" 
d="M1237 571c0 -98.667 -13.3379 -185.165 -40.0049 -259.498s-63.667 -136.166 -111 -185.499s-103.333 -86.5 -168 -111.5s-135 -37.5 -211 -37.5c-92 0 -175 20.667 -249 62s-134.667 95.166 -182 161.499s-83.666 141.666 -108.999 225.999s-38.666 180.5 -39.999 288.5
c0 106.667 14.333 205.167 43 295.5s68.834 168.5 120.501 234.5s113.334 117.667 185.001 155s150.834 56 237.501 56c98.667 0 185.167 -18.667 259.5 -56s139.833 -95 196.5 -173l-127 -97c-23.333 31.333 -46.5 58.333 -69.5 81s-47.5 41.5 -73.5 56.5
s-54.5 26 -85.5 33s-65.833 10.5 -104.5 10.5c-61.333 0 -117.833 -14.5 -169.5 -43.5s-96.167 -69.667 -133.5 -122s-66.5 -114.833 -87.5 -187.5s-31.5 -152.334 -31.5 -239.001c0 -87.333 10.833 -167.5 32.5 -240.5s51.5 -135.833 89.5 -188.5
s82.833 -93.667 134.5 -123s107.5 -44 167.5 -44c120 0 211.667 36 275 108s95 178.667 95 320v12h-258v148h414v-140zM827.995 1655c0 -15.333 -3 -29.833 -9 -43.5s-14.167 -25.667 -24.5 -36s-22.333 -18.5 -36 -24.5s-28.167 -9 -43.5 -9s-29.833 3 -43.5 9
s-25.667 14.167 -36 24.5s-18.5 22.333 -24.5 36s-9 28.167 -9 43.5s3 29.833 9 43.5s14.167 25.834 24.5 36.501s22.333 19 36 25s28.167 9 43.5 9s29.833 -3 43.5 -9s25.667 -14.333 36 -25s18.5 -22.834 24.5 -36.501s9 -28.167 9 -43.5z" />
    <glyph glyph-name="gdotaccent" unicode="&#x121;" horiz-adv-x="1145" 
d="M975 96c0 -76.667 -9.66895 -145.829 -29.002 -207.496s-51.333 -113.167 -96 -154.5c-41.333 -39.333 -99 -69.833 -173 -91.5s-167.333 -34.167 -280 -37.5l-39 125c102 0 183.167 6.66699 243.5 20s104.166 31.666 131.499 54.999c30 26 52.167 61.5 66.5 106.5
s21.5 99.833 21.5 164.5v55c-19.333 -20.667 -40.166 -40.334 -62.499 -59.001s-46.666 -35 -72.999 -49s-55.166 -25.167 -86.499 -33.5s-65 -12.5 -101 -12.5c-54 0 -104.333 10.5 -151 31.5s-87.334 53.667 -122.001 98s-62 100.666 -82 168.999s-30 149.833 -30 244.5
c0 95.333 10.5 179 31.5 251s49.833 132.333 86.5 181s79.667 85.167 129 109.5s102 36.5 158 36.5c34 0 65.333 -3.5 94 -10.5s55.334 -16.833 80.001 -29.5s47.5 -27.834 68.5 -45.501s41.167 -37.167 60.5 -58.5v121h154v-979zM536.998 111.005
c57.333 0 109.502 13.9971 156.502 41.9971s89.5 65.667 127.5 113v537c-14.667 22.667 -32.167 43.834 -52.5 63.501s-42.833 36.834 -67.5 51.501s-51.334 26.167 -80.001 34.5s-59 12.5 -91 12.5c-89.333 0 -156 -37.5 -200 -112.5s-66 -185.167 -66 -330.5
c0 -135.333 24.167 -237.666 72.5 -306.999s115.166 -104 200.499 -104zM660 1348c0 -15.333 -3 -29.833 -9 -43.5s-14.167 -25.667 -24.5 -36s-22.333 -18.5 -36 -24.5s-28.167 -9 -43.5 -9s-29.833 3 -43.5 9s-25.667 14.167 -36 24.5s-18.5 22.333 -24.5 36
s-9 28.167 -9 43.5s3 29.833 9 43.5s14.167 25.834 24.5 36.501s22.333 19 36 25s28.167 9 43.5 9s29.833 -3 43.5 -9s25.667 -14.333 36 -25s18.5 -22.834 24.5 -36.501s9 -28.167 9 -43.5z" />
    <glyph glyph-name="Gcommaaccent" unicode="&#x122;" horiz-adv-x="1350" 
d="M1237 571c0 -98.667 -13.3379 -185.165 -40.0049 -259.498s-63.667 -136.166 -111 -185.499s-103.333 -86.5 -168 -111.5s-135 -37.5 -211 -37.5c-92 0 -175 20.667 -249 62s-134.667 95.166 -182 161.499s-83.666 141.666 -108.999 225.999s-38.666 180.5 -39.999 288.5
c0 106.667 14.333 205.167 43 295.5s68.834 168.5 120.501 234.5s113.334 117.667 185.001 155s150.834 56 237.501 56c98.667 0 185.167 -18.667 259.5 -56s139.833 -95 196.5 -173l-127 -97c-23.333 31.333 -46.5 58.333 -69.5 81s-47.5 41.5 -73.5 56.5
s-54.5 26 -85.5 33s-65.833 10.5 -104.5 10.5c-61.333 0 -117.833 -14.5 -169.5 -43.5s-96.167 -69.667 -133.5 -122s-66.5 -114.833 -87.5 -187.5s-31.5 -152.334 -31.5 -239.001c0 -87.333 10.833 -167.5 32.5 -240.5s51.5 -135.833 89.5 -188.5
s82.833 -93.667 134.5 -123s107.5 -44 167.5 -44c120 0 211.667 36 275 108s95 178.667 95 320v12h-258v148h414v-140zM653.995 -490.998h-84l24 385h170z" />
    <glyph glyph-name="gcommaaccent" unicode="&#x123;" horiz-adv-x="1145" 
d="M975 96c0 -76.667 -9.66895 -145.829 -29.002 -207.496s-51.333 -113.167 -96 -154.5c-41.333 -39.333 -99 -69.833 -173 -91.5s-167.333 -34.167 -280 -37.5l-39 125c102 0 183.167 6.66699 243.5 20s104.166 31.666 131.499 54.999c30 26 52.167 61.5 66.5 106.5
s21.5 99.833 21.5 164.5v55c-19.333 -20.667 -40.166 -40.334 -62.499 -59.001s-46.666 -35 -72.999 -49s-55.166 -25.167 -86.499 -33.5s-65 -12.5 -101 -12.5c-54 0 -104.333 10.5 -151 31.5s-87.334 53.667 -122.001 98s-62 100.666 -82 168.999s-30 149.833 -30 244.5
c0 95.333 10.5 179 31.5 251s49.833 132.333 86.5 181s79.667 85.167 129 109.5s102 36.5 158 36.5c34 0 65.333 -3.5 94 -10.5s55.334 -16.833 80.001 -29.5s47.5 -27.834 68.5 -45.501s41.167 -37.167 60.5 -58.5v121h154v-979zM536.998 111.005
c57.333 0 109.502 13.9971 156.502 41.9971s89.5 65.667 127.5 113v537c-14.667 22.667 -32.167 43.834 -52.5 63.501s-42.833 36.834 -67.5 51.501s-51.334 26.167 -80.001 34.5s-59 12.5 -91 12.5c-89.333 0 -156 -37.5 -200 -112.5s-66 -185.167 -66 -330.5
c0 -135.333 24.167 -237.666 72.5 -306.999s115.166 -104 200.499 -104zM602.087 1679.92h93.2236l-26.6357 -427.274h-188.666z" />
    <glyph glyph-name="Hcircumflex" unicode="&#x124;" horiz-adv-x="1409" 
d="M1061 0v676h-713v-676h-160v1434h160v-613h713v613h160v-1434h-160zM910 1526l-207 211l-207 -211h-129l252 327h172l252 -327h-133z" />
    <glyph glyph-name="hcircumflex" unicode="&#x125;" horiz-adv-x="1161" 
d="M844 0l-0.000976562 628.996c0 116 -20.667 201 -62 255s-105.333 81 -192 81c-37.333 0 -72.166 -6.5 -104.499 -19.5s-60.5 -33.167 -84.5 -60.5s-42.833 -62.166 -56.5 -104.499s-20.5 -92.833 -20.5 -151.5v-629h-154v1407l154 86v-549
c15.333 22.667 33 43.334 53 62.001s42.5 34.834 67.5 48.501s52.167 24.334 81.5 32.001s61 11.5 95 11.5c56.667 0 108.167 -8.5 154.5 -25.5s85.833 -43.5 118.5 -79.5s58 -82 76 -138s27 -122.667 27 -200v-655h-153zM789.999 1512l-207 211l-207 -211h-129l252 327h172
l252 -327h-133z" />
    <glyph glyph-name="Hbar" unicode="&#x126;" horiz-adv-x="1409" 
d="M1061 0v676h-713v-676h-160v1079h-102v145h102v210h160v-210h713v210h160v-210h103v-145h-103v-1079h-160zM1061 821v258h-713v-258h713z" />
    <glyph glyph-name="hbar" unicode="&#x127;" horiz-adv-x="1161" 
d="M844 0v628.997c0 56.667 -4.83301 105.5 -14.5 146.5s-24.667 75.667 -45 104s-46.5 49.666 -78.5 63.999s-70.667 21.5 -116 21.5c-82 0 -146.833 -28.667 -194.5 -86s-71.5 -140.666 -71.5 -249.999v-629h-154v1167h-182v127h182v113l154 86v-199h200v-127h-200v-223
c15.333 22.667 33 43.334 53 62.001s42.5 34.834 67.5 48.501s52.167 24.334 81.5 32.001s61 11.5 95 11.5c126 0 220.167 -38.667 282.5 -116s93.5 -186.333 93.5 -327v-655h-153z" />
    <glyph glyph-name="Itilde" unicode="&#x128;" horiz-adv-x="557" 
d="M199 0v1434h159v-1434h-159zM646 1806c0 -45.333 -5.66797 -84.666 -17.001 -117.999s-26.666 -61 -45.999 -83s-41.666 -38.333 -66.999 -49s-51.666 -16 -78.999 -16s-53.166 4 -77.499 12s-49 21.5 -74 40.5l-56 42.5c-12.333 9.33301 -21.833 16 -28.5 20
c-14.667 10 -27.834 17.167 -39.501 21.5s-24.5 6.5 -38.5 6.5c-22 0 -39.333 -10.667 -52 -32s-22 -56.333 -28 -105h-127c0 45.333 5.66699 84.666 17 117.999s26.666 61 45.999 83s41.666 38.333 66.999 49s51.666 16 78.999 16s53.166 -4 77.499 -12s49 -21.5 74 -40.5
l56 -42.5c12.333 -9.33301 21.833 -16 28.5 -20c14.667 -10 27.834 -17.167 39.501 -21.5s24.5 -6.5 38.5 -6.5c21.333 0 38.333 10.833 51 32.5s22.334 56.5 29.001 104.5h127z" />
    <glyph glyph-name="itilde" unicode="&#x129;" horiz-adv-x="514" 
d="M180 0v1075h154v-1075h-154zM623 1491c0 -45.333 -5.66797 -84.666 -17.001 -117.999s-26.666 -61 -45.999 -83s-41.666 -38.333 -66.999 -49s-51.666 -16 -78.999 -16s-53.166 4 -77.499 12s-49 21.5 -74 40.5l-56 42.5c-12.333 9.33301 -21.833 16 -28.5 20
c-14.667 10 -27.834 17.167 -39.501 21.5s-24.5 6.5 -38.5 6.5c-22 0 -39.333 -10.667 -52 -32s-22 -56.333 -28 -105h-127c0 45.333 5.66699 84.666 17 117.999s26.666 61 45.999 83s41.666 38.333 66.999 49s51.666 16 78.999 16s53.166 -4 77.499 -12s49 -21.5 74 -40.5
l56 -42.5c12.333 -9.33301 21.833 -16 28.5 -20c14.667 -10 27.834 -17.167 39.501 -21.5s24.5 -6.5 38.5 -6.5c21.333 0 38.333 10.833 51 32.5s22.334 56.5 29.001 104.5h127z" />
    <glyph glyph-name="Imacron" unicode="&#x12a;" horiz-adv-x="557" 
d="M199 0v1434h159v-1434h-159zM2 1573v143h558v-143h-558z" />
    <glyph glyph-name="imacron" unicode="&#x12b;" horiz-adv-x="514" 
d="M180 0v1075h154v-1075h-154zM-21 1266v143h558v-143h-558z" />
    <glyph glyph-name="Ibreve" unicode="&#x12c;" horiz-adv-x="557" 
d="M199 0v1434h159v-1434h-159zM598 1715.5c-16.667 -40.333 -39.666 -74.499 -68.999 -102.499s-65 -49.5 -107 -64.5s-89.667 -22.5 -143 -22.5c-50 0 -95.5 7.5 -136.5 22.5s-76.5 36.5 -106.5 64.5s-53.667 62.167 -71 102.5s-27.333 86.166 -30 137.499h127
c6 -74 27.333 -128 64 -162s89 -51 157 -51c63.333 0 114 17.167 152 51.5s60.333 88.166 67 161.499h125c-2.66699 -51.333 -12.334 -97.166 -29.001 -137.499z" />
    <glyph glyph-name="ibreve" unicode="&#x12d;" horiz-adv-x="514" 
d="M180 0v1075h154v-1075h-154zM575 1408.5c-16.667 -40.333 -39.666 -74.499 -68.999 -102.499s-65 -49.5 -107 -64.5s-89.667 -22.5 -143 -22.5c-50 0 -95.5 7.5 -136.5 22.5s-76.5 36.5 -106.5 64.5s-53.667 62.167 -71 102.5s-27.333 86.166 -30 137.499h127
c6 -74 27.333 -128 64 -162s89 -51 157 -51c63.333 0 114 17.167 152 51.5s60.333 88.166 67 161.499h125c-2.66699 -51.333 -12.334 -97.166 -29.001 -137.499z" />
    <glyph glyph-name="Iogonek" unicode="&#x12e;" horiz-adv-x="557" 
d="M199 0v1434h159v-1434h-159zM356 0c-28 -16 -51.9971 -30.335 -71.9971 -43.002s-40.167 -27 -60.5 -43s-37.833 -35 -52.5 -57s-22 -44.667 -22 -68c0 -22.667 5.83301 -38.5 17.5 -47.5s26.167 -13.5 43.5 -13.5c14 0 27.667 2.83301 41 8.5s25 12.834 35 21.501
l70 -102c-22.667 -22 -49.834 -38.5 -81.501 -49.5s-65.5 -16.5 -101.5 -16.5c-24.667 0 -48.334 3.66699 -71.001 11s-42.834 18 -60.501 32s-31.834 30.833 -42.501 50.5s-16 41.834 -16 66.501c0 34 6.83301 64.333 20.5 91s30.834 49.5 51.501 68.5s41.667 35.333 63 49
s49.333 27.5 84 41.5h154z" />
    <glyph glyph-name="iogonek" unicode="&#x12f;" horiz-adv-x="514" 
d="M367 1376c0 -14.667 -2.83301 -28.5 -8.5 -41.5s-13.5 -24.5 -23.5 -34.5s-21.5 -17.833 -34.5 -23.5s-26.5 -8.5 -40.5 -8.5c-16 0 -30.833 2.83301 -44.5 8.5s-25.5 13.5 -35.5 23.5s-18 21.5 -24 34.5s-9 26.833 -9 41.5c0 15.333 3 29.833 9 43.5s14 25.5 24 35.5
s21.833 17.833 35.5 23.5s28.5 8.5 44.5 8.5c14 0 27.5 -2.83301 40.5 -8.5s24.5 -13.5 34.5 -23.5s17.833 -21.833 23.5 -35.5s8.5 -28.167 8.5 -43.5zM180 0v1075h154v-1075h-154zM336 0c-28 -16 -51.9971 -30.335 -71.9971 -43.002s-40.167 -27 -60.5 -43
s-37.833 -35 -52.5 -57s-22 -44.667 -22 -68c0 -22.667 5.83301 -38.5 17.5 -47.5s26.167 -13.5 43.5 -13.5c14 0 27.667 2.83301 41 8.5s25 12.834 35 21.501l70 -102c-22.667 -22 -49.834 -38.5 -81.501 -49.5s-65.5 -16.5 -101.5 -16.5
c-24.667 0 -48.334 3.66699 -71.001 11s-42.834 18 -60.501 32s-31.834 30.833 -42.501 50.5s-16 41.834 -16 66.501c0 34 6.83301 64.333 20.5 91s30.834 49.5 51.501 68.5s41.667 35.333 63 49s49.333 27.5 84 41.5h154z" />
    <glyph glyph-name="Idotaccent" unicode="&#x130;" horiz-adv-x="557" 
d="M199 0v1434h159v-1434h-159zM394 1655c0 -15.333 -3 -29.833 -9 -43.5s-14.167 -25.667 -24.5 -36s-22.333 -18.5 -36 -24.5s-28.167 -9 -43.5 -9s-29.833 3 -43.5 9s-25.667 14.167 -36 24.5s-18.5 22.333 -24.5 36s-9 28.167 -9 43.5s3 29.833 9 43.5
s14.167 25.834 24.5 36.501s22.333 19 36 25s28.167 9 43.5 9s29.833 -3 43.5 -9s25.667 -14.333 36 -25s18.5 -22.834 24.5 -36.501s9 -28.167 9 -43.5z" />
    <glyph glyph-name="dotlessi" unicode="&#x131;" horiz-adv-x="514" 
d="M180 0v1075h154v-1075h-154z" />
    <glyph glyph-name="IJ" unicode="&#x132;" horiz-adv-x="1741" 
d="M199 0v1434h159v-1434h-159zM1563 549c0 -191.333 -40.499 -334.497 -121.499 -429.497s-203.833 -142.5 -368.5 -142.5c-60.667 0 -114.834 7.5 -162.501 22.5s-90 37.333 -127 67s-69.167 66 -96.5 109s-50.333 92.5 -69 148.5l152 51c14 -39.333 30 -74.5 48 -105.5
s39.333 -57.333 64 -79s53 -38.334 85 -50.001s69.333 -17.5 112 -17.5c57.333 0 106.5 8.33301 147.5 25s74.5 42.667 100.5 78s45.167 80.166 57.5 134.499s18.5 119.166 18.5 194.499v879h160v-885z" />
    <glyph glyph-name="ij" unicode="&#x133;" horiz-adv-x="1028" 
d="M367 1376c0 -14.667 -2.83301 -28.5 -8.5 -41.5s-13.5 -24.5 -23.5 -34.5s-21.5 -17.833 -34.5 -23.5s-26.5 -8.5 -40.5 -8.5c-16 0 -30.833 2.83301 -44.5 8.5s-25.5 13.5 -35.5 23.5s-18 21.5 -24 34.5s-9 26.833 -9 41.5c0 15.333 3 29.833 9 43.5s14 25.5 24 35.5
s21.833 17.833 35.5 23.5s28.5 8.5 44.5 8.5c14 0 27.5 -2.83301 40.5 -8.5s24.5 -13.5 34.5 -23.5s17.833 -21.833 23.5 -35.5s8.5 -28.167 8.5 -43.5zM180 0v1075h154v-1075h-154zM881 1376c0 -14.667 -2.83301 -28.5 -8.5 -41.5s-13.5 -24.5 -23.5 -34.5
s-21.5 -17.833 -34.5 -23.5s-26.5 -8.5 -40.5 -8.5c-16 0 -30.833 2.83301 -44.5 8.5s-25.5 13.5 -35.5 23.5s-18 21.5 -24 34.5s-9 26.833 -9 41.5c0 15.333 3 29.833 9 43.5s14 25.5 24 35.5s21.833 17.833 35.5 23.5s28.5 8.5 44.5 8.5c14 0 27.5 -2.83301 40.5 -8.5
s24.5 -13.5 34.5 -23.5s17.833 -21.833 23.5 -35.5s8.5 -28.167 8.5 -43.5zM848 25c0 -61.333 -3.83496 -114.667 -11.502 -160s-23 -84.5 -46 -117.5s-55.167 -60.833 -96.5 -83.5s-96 -42.334 -164 -59.001l-51 114c48.667 14.667 87.334 29.834 116.001 45.501
s50.334 34.667 65.001 57s24 49.833 28 82.5s6 73.667 6 123v1048h154v-1050z" />
    <glyph glyph-name="Jcircumflex" unicode="&#x134;" horiz-adv-x="1184" 
d="M1006 549c0 -191.333 -40.499 -334.497 -121.499 -429.497s-203.833 -142.5 -368.5 -142.5c-60.667 0 -114.834 7.5 -162.501 22.5s-90 37.333 -127 67s-69.167 66 -96.5 109s-50.333 92.5 -69 148.5l152 51c14 -39.333 30 -74.5 48 -105.5s39.333 -57.333 64 -79
s53 -38.334 85 -50.001s69.333 -17.5 112 -17.5c57.333 0 106.5 8.33301 147.5 25s74.5 42.667 100.5 78s45.167 80.166 57.5 134.499s18.5 119.166 18.5 194.499v879h160v-885zM1125 1516l-207 211l-207 -211h-129l252 327h172l252 -327h-133z" />
    <glyph glyph-name="jcircumflex" unicode="&#x135;" horiz-adv-x="514" 
d="M334 25c0 -61.333 -3.83496 -114.667 -11.502 -160s-23 -84.5 -46 -117.5s-55.167 -60.833 -96.5 -83.5s-96 -42.334 -164 -59.001l-51 114c48.667 14.667 87.334 29.834 116.001 45.501s50.334 34.667 65.001 57s24 49.833 28 82.5s6 73.667 6 123v1048h154v-1050z
M460.998 1219l-207 211l-207 -211h-129l252 327h172l252 -327h-133z" />
    <glyph glyph-name="Kcommaaccent" unicode="&#x136;" horiz-adv-x="1315" 
d="M1227 0h-183l-423 764l-273 -352v-412h-160v1434h160v-809l625 809h174l-420 -539zM637 -491h-84l24 385h170z" />
    <glyph glyph-name="kcommaaccent" unicode="&#x137;" horiz-adv-x="1034" 
d="M782 0l-272 565l-186 -256v-309h-154v1407l154 86v-980l395 562h172l-283 -381l340 -694h-166zM496 -491h-84l24 385h170z" />
    <glyph glyph-name="kgreenlandic" unicode="&#x138;" horiz-adv-x="1034" 
d="M782 0l-272 565l-186 -256v-309h-154v1075h154v-561l395 561h172l-283 -381l340 -694h-166z" />
    <glyph glyph-name="Lacute" unicode="&#x139;" horiz-adv-x="1178" 
d="M188 0v1434h160v-1289h709v-145h-869zM319 1526h-121l211 327h219z" />
    <glyph glyph-name="lacute" unicode="&#x13a;" horiz-adv-x="514" 
d="M180 0v1407l154 86v-1493h-154zM305 1598h-121l211 327h219z" />
    <glyph glyph-name="Lcommaaccent" unicode="&#x13b;" horiz-adv-x="1178" 
d="M188 0v1434h160v-1289h709v-145h-869zM568 -491h-84l24 385h170z" />
    <glyph glyph-name="lcommaaccent" unicode="&#x13c;" horiz-adv-x="514" 
d="M180 0v1407l154 86v-1493h-154zM236 -491h-84l24 385h170z" />
    <glyph glyph-name="Lcaron" unicode="&#x13d;" horiz-adv-x="1178" 
d="M188 0v1434h160v-1289h709v-145h-869zM622 1180h-106l30 457h209z" />
    <glyph glyph-name="lcaron" unicode="&#x13e;" horiz-adv-x="590" 
d="M180 0v1407l154 86v-1493h-154zM565 977h-106l30 457h209z" />
    <glyph glyph-name="Ldot" unicode="&#x13f;" horiz-adv-x="1178" 
d="M188 0v1434h160v-1289h709v-145h-869zM905 752c0 -18 -3.5 -35 -10.5 -51s-16.5 -29.833 -28.5 -41.5s-26 -21 -42 -28s-32.667 -10.5 -50 -10.5c-18 0 -35 3.5 -51 10.5s-29.833 16.333 -41.5 28s-21 25.5 -28 41.5s-10.5 33 -10.5 51s3.5 35 10.5 51
s16.333 30.333 28 43s25.5 22.667 41.5 30s33 11 51 11c17.333 0 34 -3.66699 50 -11s30 -17.333 42 -30s21.5 -27 28.5 -43s10.5 -33 10.5 -51z" />
    <glyph glyph-name="ldot" unicode="&#x140;" horiz-adv-x="1006" 
d="M180 0v1407l154 86v-1493h-154zM891 752c0 -18 -3.5 -35 -10.5 -51s-16.5 -29.833 -28.5 -41.5s-26 -21 -42 -28s-32.667 -10.5 -50 -10.5c-18 0 -35 3.5 -51 10.5s-29.833 16.333 -41.5 28s-21 25.5 -28 41.5s-10.5 33 -10.5 51s3.5 35 10.5 51s16.333 30.333 28 43
s25.5 22.667 41.5 30s33 11 51 11c17.333 0 34 -3.66699 50 -11s30 -17.333 42 -30s21.5 -27 28.5 -43s10.5 -33 10.5 -51z" />
    <glyph glyph-name="Lslash" unicode="&#x141;" horiz-adv-x="1198" 
d="M209 0v487l-127 -110v182l127 111v764h160v-639l329 280v-182l-329 -281v-467h708v-145h-868z" />
    <glyph glyph-name="lslash" unicode="&#x142;" horiz-adv-x="535" 
d="M344 647v-647h-154v524l-100 -88v187l100 88v696l154 86v-662l100 91v-187z" />
    <glyph glyph-name="Nacute" unicode="&#x143;" horiz-adv-x="1409" 
d="M1221 0h-150l-729 1141v-1141h-154v1434h156l723 -1164v1164h154v-1434zM670 1526h-121l211 327h219z" />
    <glyph glyph-name="nacute" unicode="&#x144;" horiz-adv-x="1165" 
d="M844 0l-0.000976562 628.996c0 116 -20.667 201 -62 255s-105.333 81 -192 81c-37.333 0 -72.166 -6.5 -104.499 -19.5s-60.5 -33.167 -84.5 -60.5s-42.833 -62.166 -56.5 -104.499s-20.5 -92.833 -20.5 -151.5v-629h-154v1075h154v-131
c15.333 22.667 33 43.334 53 62.001s42.5 34.834 67.5 48.501s52.167 24.334 81.5 32.001s61 11.5 95 11.5c56.667 0 108.167 -8.5 154.5 -25.5s85.833 -43.5 118.5 -79.5s58 -82 76 -138s27 -122.667 27 -200v-655h-153zM634.999 1219h-121l211 327h219z" />
    <glyph glyph-name="Ncommaaccent" unicode="&#x145;" horiz-adv-x="1409" 
d="M1221 0h-150l-729 1141v-1141h-154v1434h156l723 -1164v1164h154v-1434zM685 -491h-84l24 385h170z" />
    <glyph glyph-name="ncommaaccent" unicode="&#x146;" horiz-adv-x="1165" 
d="M844 0l-0.000976562 628.996c0 116 -20.667 201 -62 255s-105.333 81 -192 81c-37.333 0 -72.166 -6.5 -104.499 -19.5s-60.5 -33.167 -84.5 -60.5s-42.833 -62.166 -56.5 -104.499s-20.5 -92.833 -20.5 -151.5v-629h-154v1075h154v-131
c15.333 22.667 33 43.334 53 62.001s42.5 34.834 67.5 48.501s52.167 24.334 81.5 32.001s61 11.5 95 11.5c56.667 0 108.167 -8.5 154.5 -25.5s85.833 -43.5 118.5 -79.5s58 -82 76 -138s27 -122.667 27 -200v-655h-153zM559.999 -491.004h-84l24 385h170z" />
    <glyph glyph-name="Ncaron" unicode="&#x147;" horiz-adv-x="1409" 
d="M1221 0h-150l-729 1141v-1141h-154v1434h156l723 -1164v1164h154v-1434zM791 1526h-172l-252 327h133l207 -211l207 211h129z" />
    <glyph glyph-name="ncaron" unicode="&#x148;" horiz-adv-x="1165" 
d="M844 0l-0.000976562 628.996c0 116 -20.667 201 -62 255s-105.333 81 -192 81c-37.333 0 -72.166 -6.5 -104.499 -19.5s-60.5 -33.167 -84.5 -60.5s-42.833 -62.166 -56.5 -104.499s-20.5 -92.833 -20.5 -151.5v-629h-154v1075h154v-131
c15.333 22.667 33 43.334 53 62.001s42.5 34.834 67.5 48.501s52.167 24.334 81.5 32.001s61 11.5 95 11.5c56.667 0 108.167 -8.5 154.5 -25.5s85.833 -43.5 118.5 -79.5s58 -82 76 -138s27 -122.667 27 -200v-655h-153zM665.999 1219h-172l-252 327h133l207 -211l207 211
h129z" />
    <glyph glyph-name="napostrophe" unicode="&#x149;" horiz-adv-x="1628" 
d="M1307 0l-0.000976562 628.996c0 116 -20.667 201 -62 255s-105.333 81 -192 81c-37.333 0 -72.166 -6.5 -104.499 -19.5s-60.5 -33.167 -84.5 -60.5s-42.833 -62.166 -56.5 -104.499s-20.5 -92.833 -20.5 -151.5v-629h-154v1075h154v-131
c15.333 22.667 33 43.334 53 62.001s42.5 34.834 67.5 48.501s52.167 24.334 81.5 32.001s61 11.5 95 11.5c56.667 0 108.167 -8.5 154.5 -25.5s85.833 -43.5 118.5 -79.5s58 -82 76 -138s27 -122.667 27 -200v-655h-153zM259.999 976.996h-106l30 457h209z" />
    <glyph glyph-name="Eng" unicode="&#x14a;" horiz-adv-x="1409" 
d="M1221 0c0 -56.667 -4.33203 -106.167 -12.999 -148.5s-24.834 -79 -48.501 -110s-56.167 -57.5 -97.5 -79.5s-94.333 -41 -159 -57l-51 114c46.667 14.667 84 29.5 112 44.5s49.5 33 64.5 54s25 46.5 30 76.5s7.83301 67.333 8.5 112l-725 1135v-1141h-154v1434h156
l723 -1164v1164h154v-1434z" />
    <glyph glyph-name="eng" unicode="&#x14b;" horiz-adv-x="1165" 
d="M324 0l-153.999 -0.00488281v1075h154v-131c15.333 22.667 33 43.334 53 62.001s42.5 34.834 67.5 48.501s52.167 24.334 81.5 32.001s61 11.5 95 11.5c56.667 0 108.167 -8.5 154.5 -25.5s85.833 -43.5 118.5 -79.5s58 -82 76 -138s27 -122.667 27 -200v-630
c0 -61.333 -3.83301 -114.666 -11.5 -159.999s-22.834 -84.5 -45.501 -117.5s-54.834 -60.833 -96.501 -83.5s-96.167 -42.334 -163.5 -59.001l-51 114c46 14.667 83 29.334 111 44.001s49.833 32.334 65.5 53.001s26 45.667 31 75s7.5 65.666 7.5 108.999v629
c0 116 -20.667 201 -62 255s-105.333 81 -192 81c-37.333 0 -72.166 -6.5 -104.499 -19.5s-60.5 -33.167 -84.5 -60.5s-42.833 -62.166 -56.5 -104.499s-20.5 -92.833 -20.5 -151.5v-629z" />
    <glyph glyph-name="Omacron" unicode="&#x14c;" horiz-adv-x="1444" 
d="M1317 719c0 -108 -14.498 -207.333 -43.498 -298s-69.667 -169 -122 -235s-115.333 -117.333 -189 -154s-154.834 -55 -243.501 -55c-89.333 0 -170.333 18.167 -243 54.5s-134.834 87.166 -186.501 152.499s-91.667 143.166 -120 233.499s-42.5 189.5 -42.5 297.5
s14.333 207.333 43 298s69.167 168.834 121.5 234.501s115 116.834 188 153.501s154.167 55 243.5 55c88.667 0 169.5 -18.167 242.5 -54.5s135.5 -87 187.5 -152s92.333 -142.667 121 -233s43 -189.5 43 -297.5zM1157 715c0 90 -11.1689 171.666 -33.502 244.999
s-53.166 136 -92.499 188s-85.833 92.167 -139.5 120.5s-111.834 42.5 -174.501 42.5c-62 0 -119.333 -14 -172 -42s-98 -67.667 -136 -119s-67.833 -113.5 -89.5 -186.5s-32.5 -154.5 -32.5 -244.5s11.167 -171.667 33.5 -245s53 -136 92 -188s85.167 -92.167 138.5 -120.5
s111.333 -42.5 174 -42.5c62 0 119.333 13.833 172 41.5s98.334 67.334 137.001 119.001s68.834 114 90.501 187s32.5 154.5 32.5 244.5zM442 1573v143h558v-143h-558z" />
    <glyph glyph-name="omacron" unicode="&#x14d;" horiz-adv-x="1159" 
d="M1047 545c0 -91.333 -12.335 -172.332 -37.002 -242.999s-58.167 -130 -100.5 -178s-92.166 -84.5 -149.499 -109.5s-119 -37.5 -185 -37.5c-65.333 0 -126.166 12 -182.499 36s-105.166 59.667 -146.499 107s-73.833 105.833 -97.5 175.5s-35.5 150.167 -35.5 241.5
c0 90.667 12.167 171 36.5 241s57.833 128.667 100.5 176s92.667 83.166 150 107.499s118.666 36.5 183.999 36.5s126.166 -11.667 182.499 -35s105.333 -58.333 147 -105s74.334 -104.5 98.001 -173.5s35.5 -148.833 35.5 -239.5zM892.998 541.001
c0 70.667 -7.66699 132.5 -23 185.5s-36.666 97.167 -63.999 132.5s-60.166 61.833 -98.499 79.5s-80.833 26.5 -127.5 26.5s-89.167 -8.83301 -127.5 -26.5s-71.166 -44.167 -98.499 -79.5s-48.5 -79.5 -63.5 -132.5s-22.5 -114.833 -22.5 -185.5
s7.5 -132.834 22.5 -186.501s36.167 -98.5 63.5 -134.5s60.166 -63.167 98.499 -81.5s80.833 -27.5 127.5 -27.5s89.167 9.16699 127.5 27.5s71.166 45.5 98.499 81.5s48.666 80.833 63.999 134.5s23 115.834 23 186.501zM300.998 1266v143h558v-143h-558z" />
    <glyph glyph-name="Obreve" unicode="&#x14e;" horiz-adv-x="1444" 
d="M1317 719c0 -108 -14.498 -207.333 -43.498 -298s-69.667 -169 -122 -235s-115.333 -117.333 -189 -154s-154.834 -55 -243.501 -55c-89.333 0 -170.333 18.167 -243 54.5s-134.834 87.166 -186.501 152.499s-91.667 143.166 -120 233.499s-42.5 189.5 -42.5 297.5
s14.333 207.333 43 298s69.167 168.834 121.5 234.501s115 116.834 188 153.501s154.167 55 243.5 55c88.667 0 169.5 -18.167 242.5 -54.5s135.5 -87 187.5 -152s92.333 -142.667 121 -233s43 -189.5 43 -297.5zM1157 715c0 90 -11.1689 171.666 -33.502 244.999
s-53.166 136 -92.499 188s-85.833 92.167 -139.5 120.5s-111.834 42.5 -174.501 42.5c-62 0 -119.333 -14 -172 -42s-98 -67.667 -136 -119s-67.833 -113.5 -89.5 -186.5s-32.5 -154.5 -32.5 -244.5s11.167 -171.667 33.5 -245s53 -136 92 -188s85.167 -92.167 138.5 -120.5
s111.333 -42.5 174 -42.5c62 0 119.333 13.833 172 41.5s98.334 67.334 137.001 119.001s68.834 114 90.501 187s32.5 154.5 32.5 244.5zM1036 1705.5c-16.667 -40.333 -39.666 -74.499 -68.999 -102.499s-65 -49.5 -107 -64.5s-89.667 -22.5 -143 -22.5
c-50 0 -95.5 7.5 -136.5 22.5s-76.5 36.5 -106.5 64.5s-53.667 62.167 -71 102.5s-27.333 86.166 -30 137.499h127c6 -74 27.333 -128 64 -162s89 -51 157 -51c63.333 0 114 17.167 152 51.5s60.333 88.166 67 161.499h125
c-2.66699 -51.333 -12.334 -97.166 -29.001 -137.499z" />
    <glyph glyph-name="obreve" unicode="&#x14f;" horiz-adv-x="1159" 
d="M1047 545c0 -91.333 -12.335 -172.332 -37.002 -242.999s-58.167 -130 -100.5 -178s-92.166 -84.5 -149.499 -109.5s-119 -37.5 -185 -37.5c-65.333 0 -126.166 12 -182.499 36s-105.166 59.667 -146.499 107s-73.833 105.833 -97.5 175.5s-35.5 150.167 -35.5 241.5
c0 90.667 12.167 171 36.5 241s57.833 128.667 100.5 176s92.667 83.166 150 107.499s118.666 36.5 183.999 36.5s126.166 -11.667 182.499 -35s105.333 -58.333 147 -105s74.334 -104.5 98.001 -173.5s35.5 -148.833 35.5 -239.5zM892.998 541.001
c0 70.667 -7.66699 132.5 -23 185.5s-36.666 97.167 -63.999 132.5s-60.166 61.833 -98.499 79.5s-80.833 26.5 -127.5 26.5s-89.167 -8.83301 -127.5 -26.5s-71.166 -44.167 -98.499 -79.5s-48.5 -79.5 -63.5 -132.5s-22.5 -114.833 -22.5 -185.5
s7.5 -132.834 22.5 -186.501s36.167 -98.5 63.5 -134.5s60.166 -63.167 98.499 -81.5s80.833 -27.5 127.5 -27.5s89.167 9.16699 127.5 27.5s71.166 45.5 98.499 81.5s48.666 80.833 63.999 134.5s23 115.834 23 186.501zM896.998 1408.5
c-16.667 -40.333 -39.666 -74.499 -68.999 -102.499s-65 -49.5 -107 -64.5s-89.667 -22.5 -143 -22.5c-50 0 -95.5 7.5 -136.5 22.5s-76.5 36.5 -106.5 64.5s-53.667 62.167 -71 102.5s-27.333 86.166 -30 137.499h127c6 -74 27.333 -128 64 -162s89 -51 157 -51
c63.333 0 114 17.167 152 51.5s60.333 88.166 67 161.499h125c-2.66699 -51.333 -12.334 -97.166 -29.001 -137.499z" />
    <glyph glyph-name="Ohungarumlaut" unicode="&#x150;" horiz-adv-x="1444" 
d="M1317 719c0 -108 -14.498 -207.333 -43.498 -298s-69.667 -169 -122 -235s-115.333 -117.333 -189 -154s-154.834 -55 -243.501 -55c-89.333 0 -170.333 18.167 -243 54.5s-134.834 87.166 -186.501 152.499s-91.667 143.166 -120 233.499s-42.5 189.5 -42.5 297.5
s14.333 207.333 43 298s69.167 168.834 121.5 234.501s115 116.834 188 153.501s154.167 55 243.5 55c88.667 0 169.5 -18.167 242.5 -54.5s135.5 -87 187.5 -152s92.333 -142.667 121 -233s43 -189.5 43 -297.5zM1157 715c0 90 -11.1689 171.666 -33.502 244.999
s-53.166 136 -92.499 188s-85.833 92.167 -139.5 120.5s-111.834 42.5 -174.501 42.5c-62 0 -119.333 -14 -172 -42s-98 -67.667 -136 -119s-67.833 -113.5 -89.5 -186.5s-32.5 -154.5 -32.5 -244.5s11.167 -171.667 33.5 -245s53 -136 92 -188s85.167 -92.167 138.5 -120.5
s111.333 -42.5 174 -42.5c62 0 119.333 13.833 172 41.5s98.334 67.334 137.001 119.001s68.834 114 90.501 187s32.5 154.5 32.5 244.5zM938 1526h-115l191 327h204zM575 1526h-114l190 327h205z" />
    <glyph glyph-name="ohungarumlaut" unicode="&#x151;" horiz-adv-x="1159" 
d="M1047 545c0 -91.333 -12.335 -172.332 -37.002 -242.999s-58.167 -130 -100.5 -178s-92.166 -84.5 -149.499 -109.5s-119 -37.5 -185 -37.5c-65.333 0 -126.166 12 -182.499 36s-105.166 59.667 -146.499 107s-73.833 105.833 -97.5 175.5s-35.5 150.167 -35.5 241.5
c0 90.667 12.167 171 36.5 241s57.833 128.667 100.5 176s92.667 83.166 150 107.499s118.666 36.5 183.999 36.5s126.166 -11.667 182.499 -35s105.333 -58.333 147 -105s74.334 -104.5 98.001 -173.5s35.5 -148.833 35.5 -239.5zM892.998 541.001
c0 70.667 -7.66699 132.5 -23 185.5s-36.666 97.167 -63.999 132.5s-60.166 61.833 -98.499 79.5s-80.833 26.5 -127.5 26.5s-89.167 -8.83301 -127.5 -26.5s-71.166 -44.167 -98.499 -79.5s-48.5 -79.5 -63.5 -132.5s-22.5 -114.833 -22.5 -185.5
s7.5 -132.834 22.5 -186.501s36.167 -98.5 63.5 -134.5s60.166 -63.167 98.499 -81.5s80.833 -27.5 127.5 -27.5s89.167 9.16699 127.5 27.5s71.166 45.5 98.499 81.5s48.666 80.833 63.999 134.5s23 115.834 23 186.501zM757.998 1219h-115l191 327h204zM394.998 1219h-114
l190 327h205z" />
    <glyph glyph-name="OE" unicode="&#x152;" horiz-adv-x="2136" 
d="M1288 692l0.00195312 -547h731v-145h-874v238c-22 -37.333 -46 -72 -72 -104s-55.833 -59.667 -89.5 -83s-72.334 -41.5 -116.001 -54.5s-94.5 -19.5 -152.5 -19.5c-88.667 0 -169.167 18.333 -241.5 55s-134.166 87.667 -185.499 153s-91 143.333 -119 234
s-42 190 -42 298s14 207.167 42 297.5s67.667 168.333 119 234s113.166 116.667 185.499 153s152.833 54.5 241.5 54.5c53.333 0 102 -6.66699 146 -20s83.667 -31.5 119 -54.5s66.666 -50 93.999 -81s51 -63.833 71 -98.5v232h844v-146h-701v-450h576v-146h-576zM1145 715
c0 90 -10.833 171.666 -32.5 244.999s-51.834 136 -90.501 188s-84.5 92.167 -137.5 120.5s-110.833 42.5 -173.5 42.5c-62 0 -119 -14 -171 -42s-96.667 -67.667 -134 -119s-66.5 -113.5 -87.5 -186.5s-31.5 -154.5 -31.5 -244.5s10.833 -171.667 32.5 -245
s51.667 -136 90 -188s83.833 -92.167 136.5 -120.5s110.334 -42.5 173.001 -42.5c62 0 119 13.833 171 41.5s97 67.334 135 119.001s67.5 114 88.5 187s31.5 154.5 31.5 244.5z" />
    <glyph glyph-name="oe" unicode="&#x153;" horiz-adv-x="1835" 
d="M1718 569c0 -18.667 -0.500977 -34.167 -1.50098 -46.5s-2.5 -24.833 -4.5 -37.5h-696c3.33301 -57.333 12.5 -109 27.5 -155s34.833 -85.333 59.5 -118s54 -57.667 88 -75s72 -26 114 -26c49.333 0 95.5 7.5 138.5 22.5s92.167 41.5 147.5 79.5l72 -111
c-61.333 -39.333 -119.833 -70 -175.5 -92s-122.167 -33 -199.5 -33c-40 0 -78.167 6.83301 -114.5 20.5s-69.833 32.167 -100.5 55.5s-57.5 50.5 -80.5 81.5s-41.167 63.833 -54.5 98.5c-14 -35.333 -32.333 -68.5 -55 -99.5s-49.5 -58.167 -80.5 -81.5
s-66.333 -41.666 -106 -54.999s-83.5 -20 -131.5 -20c-62 0 -120.5 12 -175.5 36s-103 59.667 -144 107s-73.333 105.833 -97 175.5s-35.5 150.167 -35.5 241.5c0 90.667 12.333 171 37 241s58 128.667 100 176s90.833 83.166 146.5 107.499s114.5 36.5 176.5 36.5
c46.667 0 89.667 -6.83301 129 -20.5s74.5 -32 105.5 -55s57.833 -50 80.5 -81s40.667 -63.5 54 -97.5c28.667 72.667 74.334 133.167 137.001 181.5s135 72.5 217 72.5c66.667 0 126.167 -13.167 178.5 -39.5s96.5 -62.833 132.5 -109.5s63.5 -102.5 82.5 -167.5
s28.5 -135.833 28.5 -212.5zM1575 610c-3.33301 52 -11.332 99.834 -23.999 143.501s-30.667 81.167 -54 112.5s-51.833 55.666 -85.5 72.999s-72.834 26 -117.501 26c-76 0 -138.833 -29.167 -188.5 -87.5s-79.5 -147.5 -89.5 -267.5h559zM872 541.001
c0 70.667 -7.5 132.5 -22.5 185.5s-36 97.167 -63 132.5s-59 61.833 -96 79.5s-77.5 26.5 -121.5 26.5s-84.5 -8.83301 -121.5 -26.5s-68.667 -44.167 -95 -79.5s-47 -79.5 -62 -132.5s-22.5 -114.833 -22.5 -185.5s7.5 -132.834 22.5 -186.501s35.667 -98.5 62 -134.5
s58 -63.167 95 -81.5s77.5 -27.5 121.5 -27.5s84.5 9.16699 121.5 27.5s69 45.5 96 81.5s48 80.833 63 134.5s22.5 115.834 22.5 186.501z" />
    <glyph glyph-name="Racute" unicode="&#x154;" horiz-adv-x="1331" 
d="M995 0l-307 610h-340v-610h-160v1434h568c62.667 0 121.167 -8.16699 175.5 -24.5s101.5 -41.166 141.5 -74.499s71.5 -75.5 94.5 -126.5s34.5 -111.167 34.5 -180.5c0 -56 -8 -106.5 -24 -151.5s-38.667 -84.5 -68 -118.5s-64.833 -62.333 -106.5 -85
s-88.167 -39.334 -139.5 -50.001l316 -623h-185zM1021 1143.5c-14 35 -35.3311 63.668 -63.998 86.001s-60.834 37.666 -96.501 45.999s-72.5 12.5 -110.5 12.5h-402v-534h381c46 0 87.833 4.33301 125.5 13s71.167 23.667 100.5 45s51.166 50 65.499 86
s21.5 77.333 21.5 124c0 46 -7 86.5 -21 121.5zM631.002 1526h-121l211 327h219z" />
    <glyph glyph-name="racute" unicode="&#x155;" horiz-adv-x="834" 
d="M719 915c-21.333 12.667 -44.6689 22.667 -70.002 30s-56 11 -92 11c-74.667 0 -132.167 -28.5 -172.5 -85.5s-60.5 -136.833 -60.5 -239.5v-631h-154v1075h154v-133c12 21.333 27.333 41.5 46 60.5s39.5 35.5 62.5 49.5s47.833 25.167 74.5 33.5
s54.334 12.5 83.001 12.5c40 0 73.333 -2.5 100 -7.5s49.334 -11.5 68.001 -19.5zM445.997 1219h-121l211 327h219z" />
    <glyph glyph-name="Rcommaaccent" unicode="&#x156;" horiz-adv-x="1331" 
d="M995 0l-307 610h-340v-610h-160v1434h568c62.667 0 121.167 -8.16699 175.5 -24.5s101.5 -41.166 141.5 -74.499s71.5 -75.5 94.5 -126.5s34.5 -111.167 34.5 -180.5c0 -56 -8 -106.5 -24 -151.5s-38.667 -84.5 -68 -118.5s-64.833 -62.333 -106.5 -85
s-88.167 -39.334 -139.5 -50.001l316 -623h-185zM1021 1143.5c-14 35 -35.3311 63.668 -63.998 86.001s-60.834 37.666 -96.501 45.999s-72.5 12.5 -110.5 12.5h-402v-534h381c46 0 87.833 4.33301 125.5 13s71.167 23.667 100.5 45s51.166 50 65.499 86
s21.5 77.333 21.5 124c0 46 -7 86.5 -21 121.5zM646.002 -490.999h-84l24 385h170z" />
    <glyph glyph-name="rcommaaccent" unicode="&#x157;" horiz-adv-x="834" 
d="M719 915c-21.333 12.667 -44.6689 22.667 -70.002 30s-56 11 -92 11c-74.667 0 -132.167 -28.5 -172.5 -85.5s-60.5 -136.833 -60.5 -239.5v-631h-154v1075h154v-133c12 21.333 27.333 41.5 46 60.5s39.5 35.5 62.5 49.5s47.833 25.167 74.5 33.5
s54.334 12.5 83.001 12.5c40 0 73.333 -2.5 100 -7.5s49.334 -11.5 68.001 -19.5zM223.997 -491h-84l24 385h170z" />
    <glyph glyph-name="Rcaron" unicode="&#x158;" horiz-adv-x="1331" 
d="M995 0l-307 610h-340v-610h-160v1434h568c62.667 0 121.167 -8.16699 175.5 -24.5s101.5 -41.166 141.5 -74.499s71.5 -75.5 94.5 -126.5s34.5 -111.167 34.5 -180.5c0 -56 -8 -106.5 -24 -151.5s-38.667 -84.5 -68 -118.5s-64.833 -62.333 -106.5 -85
s-88.167 -39.334 -139.5 -50.001l316 -623h-185zM1021 1143.5c-14 35 -35.3311 63.668 -63.998 86.001s-60.834 37.666 -96.501 45.999s-72.5 12.5 -110.5 12.5h-402v-534h381c46 0 87.833 4.33301 125.5 13s71.167 23.667 100.5 45s51.166 50 65.499 86
s21.5 77.333 21.5 124c0 46 -7 86.5 -21 121.5zM752.002 1526h-172l-252 327h133l207 -211l207 211h129z" />
    <glyph glyph-name="rcaron" unicode="&#x159;" horiz-adv-x="834" 
d="M719 915c-21.333 12.667 -44.6689 22.667 -70.002 30s-56 11 -92 11c-74.667 0 -132.167 -28.5 -172.5 -85.5s-60.5 -136.833 -60.5 -239.5v-631h-154v1075h154v-133c12 21.333 27.333 41.5 46 60.5s39.5 35.5 62.5 49.5s47.833 25.167 74.5 33.5
s54.334 12.5 83.001 12.5c40 0 73.333 -2.5 100 -7.5s49.334 -11.5 68.001 -19.5zM503.997 1219h-172l-252 327h133l207 -211l207 211h129z" />
    <glyph glyph-name="Sacute" unicode="&#x15a;" horiz-adv-x="1212" 
d="M1069 377c0 -56 -10.6689 -108.331 -32.002 -156.998s-52.333 -91 -93 -127s-90.5 -64.333 -149.5 -85s-125.833 -31 -200.5 -31c-48.667 0 -95.834 5 -141.501 15s-89 23.833 -130 41.5s-79.167 38.667 -114.5 63s-67 50.833 -95 79.5l106 119
c54.667 -52.667 113.334 -94.5 176.001 -125.5s131 -46.5 205 -46.5c48 0 91 5.66699 129 17s70.333 27.666 97 48.999s47.167 47.166 61.5 77.499s21.5 64.5 21.5 102.5c0 33.333 -5.5 63.5 -16.5 90.5s-29.667 52.333 -56 76s-61.5 46.5 -105.5 68.5
s-98.667 44.667 -164 68c-77.333 27.333 -142.333 54.833 -195 82.5s-95.167 57.667 -127.5 90s-55.5 68.333 -69.5 108s-21 85.5 -21 137.5c0 57.333 10.833 108.666 32.5 153.999s52 83.666 91 114.999s86 55.333 141 72s116.167 25 183.5 25
c48 0 92.167 -3.5 132.5 -10.5s78 -17 113 -30s68 -29 99 -48s61.5 -40.5 91.5 -64.5l-102 -125c-26 21.333 -52 40.333 -78 57s-52.667 30.667 -80 42s-56.166 19.833 -86.499 25.5s-63.5 8.5 -99.5 8.5c-49.333 0 -91.666 -5.66699 -126.999 -17
s-64.166 -26.833 -86.499 -46.5s-38.833 -42.167 -49.5 -67.5s-16 -52 -16 -80c0 -30 4.33301 -57 13 -81s25.334 -47.167 50.001 -69.5s59.167 -44.666 103.5 -66.999s102.166 -46.166 173.499 -71.499c79.333 -28.667 145.666 -57.5 198.999 -86.5s96 -60.333 128 -94
s54.833 -71 68.5 -112s20.5 -88.167 20.5 -141.5zM570.998 1526h-121l211 327h219z" />
    <glyph glyph-name="sacute" unicode="&#x15b;" horiz-adv-x="956" 
d="M809 983l-85.9971 -112.997c-46 36 -88.5 61.167 -127.5 75.5s-85.833 21.5 -140.5 21.5c-56.667 0 -100.667 -12.5 -132 -37.5s-47 -56.833 -47 -95.5c0 -22.667 3.83301 -42.5 11.5 -59.5s20.667 -33.167 39 -48.5s42.833 -30.833 73.5 -46.5
s68.667 -33.834 114 -54.501c50.667 -23.333 96 -45.333 136 -66s73.667 -43.667 101 -69s48.333 -54.5 63 -87.5s22 -73.5 22 -121.5c0 -52.667 -10.5 -98.167 -31.5 -136.5s-48.833 -69.833 -83.5 -94.5s-74 -43 -118 -55s-89.333 -18 -136 -18
c-74.667 0 -143.667 12.667 -207 38s-120.666 58.666 -171.999 99.999l90 112c43.333 -38 89.666 -67.167 138.999 -87.5s100.666 -30.5 153.999 -30.5c74 0 128.667 14.5 164 43.5s53 69.5 53 121.5c0 22 -4.33301 42 -13 60s-22.834 35.5 -42.501 52.5s-45.667 34 -78 51
s-72.5 35.833 -120.5 56.5c-54 22.667 -100.167 44.667 -138.5 66s-69.833 44.166 -94.5 68.499s-42.834 52 -54.501 83s-17.5 68.167 -17.5 111.5c0 40.667 8.33301 78 25 112s40 63 70 87s65.5 42.667 106.5 56s85.833 20 134.5 20c74 0 139.5 -10.667 196.5 -32
s106.167 -49 147.5 -83zM444.003 1219h-121l211 327h219z" />
    <glyph glyph-name="Scircumflex" unicode="&#x15c;" horiz-adv-x="1212" 
d="M1069 377c0 -56 -10.6689 -108.331 -32.002 -156.998s-52.333 -91 -93 -127s-90.5 -64.333 -149.5 -85s-125.833 -31 -200.5 -31c-48.667 0 -95.834 5 -141.501 15s-89 23.833 -130 41.5s-79.167 38.667 -114.5 63s-67 50.833 -95 79.5l106 119
c54.667 -52.667 113.334 -94.5 176.001 -125.5s131 -46.5 205 -46.5c48 0 91 5.66699 129 17s70.333 27.666 97 48.999s47.167 47.166 61.5 77.499s21.5 64.5 21.5 102.5c0 33.333 -5.5 63.5 -16.5 90.5s-29.667 52.333 -56 76s-61.5 46.5 -105.5 68.5
s-98.667 44.667 -164 68c-77.333 27.333 -142.333 54.833 -195 82.5s-95.167 57.667 -127.5 90s-55.5 68.333 -69.5 108s-21 85.5 -21 137.5c0 57.333 10.833 108.666 32.5 153.999s52 83.666 91 114.999s86 55.333 141 72s116.167 25 183.5 25
c48 0 92.167 -3.5 132.5 -10.5s78 -17 113 -30s68 -29 99 -48s61.5 -40.5 91.5 -64.5l-102 -125c-26 21.333 -52 40.333 -78 57s-52.667 30.667 -80 42s-56.166 19.833 -86.499 25.5s-63.5 8.5 -99.5 8.5c-49.333 0 -91.666 -5.66699 -126.999 -17
s-64.166 -26.833 -86.499 -46.5s-38.833 -42.167 -49.5 -67.5s-16 -52 -16 -80c0 -30 4.33301 -57 13 -81s25.334 -47.167 50.001 -69.5s59.167 -44.666 103.5 -66.999s102.166 -46.166 173.499 -71.499c79.333 -28.667 145.666 -57.5 198.999 -86.5s96 -60.333 128 -94
s54.833 -71 68.5 -112s20.5 -88.167 20.5 -141.5zM816.998 1516l-207 211l-207 -211h-129l252 327h172l252 -327h-133z" />
    <glyph glyph-name="scircumflex" unicode="&#x15d;" horiz-adv-x="956" 
d="M809 983l-85.9971 -112.997c-46 36 -88.5 61.167 -127.5 75.5s-85.833 21.5 -140.5 21.5c-56.667 0 -100.667 -12.5 -132 -37.5s-47 -56.833 -47 -95.5c0 -22.667 3.83301 -42.5 11.5 -59.5s20.667 -33.167 39 -48.5s42.833 -30.833 73.5 -46.5
s68.667 -33.834 114 -54.501c50.667 -23.333 96 -45.333 136 -66s73.667 -43.667 101 -69s48.333 -54.5 63 -87.5s22 -73.5 22 -121.5c0 -52.667 -10.5 -98.167 -31.5 -136.5s-48.833 -69.833 -83.5 -94.5s-74 -43 -118 -55s-89.333 -18 -136 -18
c-74.667 0 -143.667 12.667 -207 38s-120.666 58.666 -171.999 99.999l90 112c43.333 -38 89.666 -67.167 138.999 -87.5s100.666 -30.5 153.999 -30.5c74 0 128.667 14.5 164 43.5s53 69.5 53 121.5c0 22 -4.33301 42 -13 60s-22.834 35.5 -42.501 52.5s-45.667 34 -78 51
s-72.5 35.833 -120.5 56.5c-54 22.667 -100.167 44.667 -138.5 66s-69.833 44.166 -94.5 68.499s-42.834 52 -54.501 83s-17.5 68.167 -17.5 111.5c0 40.667 8.33301 78 25 112s40 63 70 87s65.5 42.667 106.5 56s85.833 20 134.5 20c74 0 139.5 -10.667 196.5 -32
s106.167 -49 147.5 -83zM684.003 1201l-207 211l-207 -211h-129l252 327h172l252 -327h-133z" />
    <glyph glyph-name="Scedilla" unicode="&#x15e;" horiz-adv-x="1212" 
d="M1069 377c0 -56 -10.6689 -108.331 -32.002 -156.998s-52.333 -91 -93 -127s-90.5 -64.333 -149.5 -85s-125.833 -31 -200.5 -31c-48.667 0 -95.834 5 -141.501 15s-89 23.833 -130 41.5s-79.167 38.667 -114.5 63s-67 50.833 -95 79.5l106 119
c54.667 -52.667 113.334 -94.5 176.001 -125.5s131 -46.5 205 -46.5c48 0 91 5.66699 129 17s70.333 27.666 97 48.999s47.167 47.166 61.5 77.499s21.5 64.5 21.5 102.5c0 33.333 -5.5 63.5 -16.5 90.5s-29.667 52.333 -56 76s-61.5 46.5 -105.5 68.5
s-98.667 44.667 -164 68c-77.333 27.333 -142.333 54.833 -195 82.5s-95.167 57.667 -127.5 90s-55.5 68.333 -69.5 108s-21 85.5 -21 137.5c0 57.333 10.833 108.666 32.5 153.999s52 83.666 91 114.999s86 55.333 141 72s116.167 25 183.5 25
c48 0 92.167 -3.5 132.5 -10.5s78 -17 113 -30s68 -29 99 -48s61.5 -40.5 91.5 -64.5l-102 -125c-26 21.333 -52 40.333 -78 57s-52.667 30.667 -80 42s-56.166 19.833 -86.499 25.5s-63.5 8.5 -99.5 8.5c-49.333 0 -91.666 -5.66699 -126.999 -17
s-64.166 -26.833 -86.499 -46.5s-38.833 -42.167 -49.5 -67.5s-16 -52 -16 -80c0 -30 4.33301 -57 13 -81s25.334 -47.167 50.001 -69.5s59.167 -44.666 103.5 -66.999s102.166 -46.166 173.499 -71.499c79.333 -28.667 145.666 -57.5 198.999 -86.5s96 -60.333 128 -94
s54.833 -71 68.5 -112s20.5 -88.167 20.5 -141.5zM550.998 0.00195312h91.998l-35 -104c14.667 9.33301 31 16.333 49 21s39.333 7 64 7c14 0 29 -2.5 45 -7.5s30.833 -13 44.5 -24s25 -25.5 34 -43.5s13.5 -40 13.5 -66c0 -33.333 -6.5 -61.333 -19.5 -84
s-30.667 -41 -53 -55s-48.166 -24 -77.499 -30s-60.333 -9 -93 -9c-42 0 -83.833 6.33301 -125.5 19s-80.5 30.667 -116.5 54l39 66c56.667 -36.667 119.334 -55 188.001 -55c47.333 0 82 7.66699 104 23s33 37 33 65c0 20.667 -5.5 37 -16.5 49s-27.167 18 -48.5 18
c-40 0 -72.667 -12.333 -98 -37l-74 29z" />
    <glyph glyph-name="scedilla" unicode="&#x15f;" horiz-adv-x="956" 
d="M809 983l-85.9971 -112.997c-46 36 -88.5 61.167 -127.5 75.5s-85.833 21.5 -140.5 21.5c-56.667 0 -100.667 -12.5 -132 -37.5s-47 -56.833 -47 -95.5c0 -22.667 3.83301 -42.5 11.5 -59.5s20.667 -33.167 39 -48.5s42.833 -30.833 73.5 -46.5
s68.667 -33.834 114 -54.501c50.667 -23.333 96 -45.333 136 -66s73.667 -43.667 101 -69s48.333 -54.5 63 -87.5s22 -73.5 22 -121.5c0 -52.667 -10.5 -98.167 -31.5 -136.5s-48.833 -69.833 -83.5 -94.5s-74 -43 -118 -55s-89.333 -18 -136 -18
c-74.667 0 -143.667 12.667 -207 38s-120.666 58.666 -171.999 99.999l90 112c43.333 -38 89.666 -67.167 138.999 -87.5s100.666 -30.5 153.999 -30.5c74 0 128.667 14.5 164 43.5s53 69.5 53 121.5c0 22 -4.33301 42 -13 60s-22.834 35.5 -42.501 52.5s-45.667 34 -78 51
s-72.5 35.833 -120.5 56.5c-54 22.667 -100.167 44.667 -138.5 66s-69.833 44.166 -94.5 68.499s-42.834 52 -54.501 83s-17.5 68.167 -17.5 111.5c0 40.667 8.33301 78 25 112s40 63 70 87s65.5 42.667 106.5 56s85.833 20 134.5 20c74 0 139.5 -10.667 196.5 -32
s106.167 -49 147.5 -83zM424.003 0.00292969h91.998l-35 -104c14.667 9.33301 31 16.333 49 21s39.333 7 64 7c14 0 29 -2.5 45 -7.5s30.833 -13 44.5 -24s25 -25.5 34 -43.5s13.5 -40 13.5 -66c0 -33.333 -6.5 -61.333 -19.5 -84s-30.667 -41 -53 -55
s-48.166 -24 -77.499 -30s-60.333 -9 -93 -9c-42 0 -83.833 6.33301 -125.5 19s-80.5 30.667 -116.5 54l39 66c56.667 -36.667 119.334 -55 188.001 -55c47.333 0 82 7.66699 104 23s33 37 33 65c0 20.667 -5.5 37 -16.5 49s-27.167 18 -48.5 18
c-40 0 -72.667 -12.333 -98 -37l-74 29z" />
    <glyph glyph-name="Scaron" unicode="&#x160;" horiz-adv-x="1212" 
d="M1069 377c0 -56 -10.6689 -108.331 -32.002 -156.998s-52.333 -91 -93 -127s-90.5 -64.333 -149.5 -85s-125.833 -31 -200.5 -31c-48.667 0 -95.834 5 -141.501 15s-89 23.833 -130 41.5s-79.167 38.667 -114.5 63s-67 50.833 -95 79.5l106 119
c54.667 -52.667 113.334 -94.5 176.001 -125.5s131 -46.5 205 -46.5c48 0 91 5.66699 129 17s70.333 27.666 97 48.999s47.167 47.166 61.5 77.499s21.5 64.5 21.5 102.5c0 33.333 -5.5 63.5 -16.5 90.5s-29.667 52.333 -56 76s-61.5 46.5 -105.5 68.5
s-98.667 44.667 -164 68c-77.333 27.333 -142.333 54.833 -195 82.5s-95.167 57.667 -127.5 90s-55.5 68.333 -69.5 108s-21 85.5 -21 137.5c0 57.333 10.833 108.666 32.5 153.999s52 83.666 91 114.999s86 55.333 141 72s116.167 25 183.5 25
c48 0 92.167 -3.5 132.5 -10.5s78 -17 113 -30s68 -29 99 -48s61.5 -40.5 91.5 -64.5l-102 -125c-26 21.333 -52 40.333 -78 57s-52.667 30.667 -80 42s-56.166 19.833 -86.499 25.5s-63.5 8.5 -99.5 8.5c-49.333 0 -91.666 -5.66699 -126.999 -17
s-64.166 -26.833 -86.499 -46.5s-38.833 -42.167 -49.5 -67.5s-16 -52 -16 -80c0 -30 4.33301 -57 13 -81s25.334 -47.167 50.001 -69.5s59.167 -44.666 103.5 -66.999s102.166 -46.166 173.499 -71.499c79.333 -28.667 145.666 -57.5 198.999 -86.5s96 -60.333 128 -94
s54.833 -71 68.5 -112s20.5 -88.167 20.5 -141.5zM691.998 1526h-172l-252 327h133l207 -211l207 211h129z" />
    <glyph glyph-name="scaron" unicode="&#x161;" horiz-adv-x="956" 
d="M809 983l-85.9971 -112.997c-46 36 -88.5 61.167 -127.5 75.5s-85.833 21.5 -140.5 21.5c-56.667 0 -100.667 -12.5 -132 -37.5s-47 -56.833 -47 -95.5c0 -22.667 3.83301 -42.5 11.5 -59.5s20.667 -33.167 39 -48.5s42.833 -30.833 73.5 -46.5
s68.667 -33.834 114 -54.501c50.667 -23.333 96 -45.333 136 -66s73.667 -43.667 101 -69s48.333 -54.5 63 -87.5s22 -73.5 22 -121.5c0 -52.667 -10.5 -98.167 -31.5 -136.5s-48.833 -69.833 -83.5 -94.5s-74 -43 -118 -55s-89.333 -18 -136 -18
c-74.667 0 -143.667 12.667 -207 38s-120.666 58.666 -171.999 99.999l90 112c43.333 -38 89.666 -67.167 138.999 -87.5s100.666 -30.5 153.999 -30.5c74 0 128.667 14.5 164 43.5s53 69.5 53 121.5c0 22 -4.33301 42 -13 60s-22.834 35.5 -42.501 52.5s-45.667 34 -78 51
s-72.5 35.833 -120.5 56.5c-54 22.667 -100.167 44.667 -138.5 66s-69.833 44.166 -94.5 68.499s-42.834 52 -54.501 83s-17.5 68.167 -17.5 111.5c0 40.667 8.33301 78 25 112s40 63 70 87s65.5 42.667 106.5 56s85.833 20 134.5 20c74 0 139.5 -10.667 196.5 -32
s106.167 -49 147.5 -83zM565.003 1219h-172l-252 327h133l207 -211l207 211h129z" />
    </font>
</defs>
</svg>
